G04 #@! TF.GenerationSoftware,KiCad,Pcbnew,5.1.5-52549c5~84~ubuntu19.10.1*
G04 #@! TF.CreationDate,2020-03-20T23:31:44-07:00*
G04 #@! TF.ProjectId,hw3-jason_bourne,6877332d-6a61-4736-9f6e-5f626f75726e,rev?*
G04 #@! TF.SameCoordinates,Original*
G04 #@! TF.FileFunction,Soldermask,Bot*
G04 #@! TF.FilePolarity,Negative*
%FSLAX46Y46*%
G04 Gerber Fmt 4.6, Leading zero omitted, Abs format (unit mm)*
G04 Created by KiCad (PCBNEW 5.1.5-52549c5~84~ubuntu19.10.1) date 2020-03-20 23:31:44*
%MOMM*%
%LPD*%
G04 APERTURE LIST*
%ADD10O,1.700000X1.700000*%
%ADD11R,1.700000X1.700000*%
%ADD12R,5.080000X6.350000*%
%ADD13C,1.000000*%
%ADD14O,1.000000X1.600000*%
%ADD15C,0.750000*%
%ADD16O,1.000000X2.100000*%
%ADD17C,5.000000*%
%ADD18C,0.100000*%
%ADD19R,0.700000X1.300000*%
%ADD20R,3.000000X1.200000*%
%ADD21C,0.787400*%
%ADD22C,2.375000*%
%ADD23C,0.990600*%
%ADD24C,5.300000*%
G04 APERTURE END LIST*
D10*
X91850000Y-69360000D03*
D11*
X91850000Y-71900000D03*
D10*
X96350000Y-71940000D03*
D11*
X96350000Y-69400000D03*
D12*
X90500000Y-162570000D03*
X90600000Y-107430000D03*
X76900000Y-107430000D03*
X76800000Y-162570000D03*
X103900000Y-107510000D03*
X103800000Y-162650000D03*
D13*
X140800000Y-103750000D03*
X55800000Y-202650000D03*
X63800000Y-56650000D03*
X117800000Y-86650000D03*
X108800000Y-176650000D03*
X64800000Y-130650000D03*
D10*
X100700000Y-71930000D03*
X100700000Y-69390000D03*
D11*
X100700000Y-66850000D03*
D14*
X92820000Y-213345000D03*
D15*
X85610000Y-209695000D03*
D16*
X92820000Y-209165000D03*
X84180000Y-209165000D03*
D14*
X84180000Y-213345000D03*
D15*
X91390000Y-209695000D03*
D17*
X58800000Y-211650000D03*
X115800000Y-211650000D03*
X106800000Y-38150000D03*
X73700000Y-38550000D03*
D18*
G36*
X87064703Y-168645722D02*
G01*
X87079264Y-168647882D01*
X87093543Y-168651459D01*
X87107403Y-168656418D01*
X87120710Y-168662712D01*
X87133336Y-168670280D01*
X87145159Y-168679048D01*
X87156066Y-168688934D01*
X87165952Y-168699841D01*
X87174720Y-168711664D01*
X87182288Y-168724290D01*
X87188582Y-168737597D01*
X87193541Y-168751457D01*
X87197118Y-168765736D01*
X87199278Y-168780297D01*
X87200000Y-168795000D01*
X87200000Y-169095000D01*
X87199278Y-169109703D01*
X87197118Y-169124264D01*
X87193541Y-169138543D01*
X87188582Y-169152403D01*
X87182288Y-169165710D01*
X87174720Y-169178336D01*
X87165952Y-169190159D01*
X87156066Y-169201066D01*
X87145159Y-169210952D01*
X87133336Y-169219720D01*
X87120710Y-169227288D01*
X87107403Y-169233582D01*
X87093543Y-169238541D01*
X87079264Y-169242118D01*
X87064703Y-169244278D01*
X87050000Y-169245000D01*
X85750000Y-169245000D01*
X85735297Y-169244278D01*
X85720736Y-169242118D01*
X85706457Y-169238541D01*
X85692597Y-169233582D01*
X85679290Y-169227288D01*
X85666664Y-169219720D01*
X85654841Y-169210952D01*
X85643934Y-169201066D01*
X85634048Y-169190159D01*
X85625280Y-169178336D01*
X85617712Y-169165710D01*
X85611418Y-169152403D01*
X85606459Y-169138543D01*
X85602882Y-169124264D01*
X85600722Y-169109703D01*
X85600000Y-169095000D01*
X85600000Y-168795000D01*
X85600722Y-168780297D01*
X85602882Y-168765736D01*
X85606459Y-168751457D01*
X85611418Y-168737597D01*
X85617712Y-168724290D01*
X85625280Y-168711664D01*
X85634048Y-168699841D01*
X85643934Y-168688934D01*
X85654841Y-168679048D01*
X85666664Y-168670280D01*
X85679290Y-168662712D01*
X85692597Y-168656418D01*
X85706457Y-168651459D01*
X85720736Y-168647882D01*
X85735297Y-168645722D01*
X85750000Y-168645000D01*
X87050000Y-168645000D01*
X87064703Y-168645722D01*
G37*
G36*
X87064703Y-169915722D02*
G01*
X87079264Y-169917882D01*
X87093543Y-169921459D01*
X87107403Y-169926418D01*
X87120710Y-169932712D01*
X87133336Y-169940280D01*
X87145159Y-169949048D01*
X87156066Y-169958934D01*
X87165952Y-169969841D01*
X87174720Y-169981664D01*
X87182288Y-169994290D01*
X87188582Y-170007597D01*
X87193541Y-170021457D01*
X87197118Y-170035736D01*
X87199278Y-170050297D01*
X87200000Y-170065000D01*
X87200000Y-170365000D01*
X87199278Y-170379703D01*
X87197118Y-170394264D01*
X87193541Y-170408543D01*
X87188582Y-170422403D01*
X87182288Y-170435710D01*
X87174720Y-170448336D01*
X87165952Y-170460159D01*
X87156066Y-170471066D01*
X87145159Y-170480952D01*
X87133336Y-170489720D01*
X87120710Y-170497288D01*
X87107403Y-170503582D01*
X87093543Y-170508541D01*
X87079264Y-170512118D01*
X87064703Y-170514278D01*
X87050000Y-170515000D01*
X85750000Y-170515000D01*
X85735297Y-170514278D01*
X85720736Y-170512118D01*
X85706457Y-170508541D01*
X85692597Y-170503582D01*
X85679290Y-170497288D01*
X85666664Y-170489720D01*
X85654841Y-170480952D01*
X85643934Y-170471066D01*
X85634048Y-170460159D01*
X85625280Y-170448336D01*
X85617712Y-170435710D01*
X85611418Y-170422403D01*
X85606459Y-170408543D01*
X85602882Y-170394264D01*
X85600722Y-170379703D01*
X85600000Y-170365000D01*
X85600000Y-170065000D01*
X85600722Y-170050297D01*
X85602882Y-170035736D01*
X85606459Y-170021457D01*
X85611418Y-170007597D01*
X85617712Y-169994290D01*
X85625280Y-169981664D01*
X85634048Y-169969841D01*
X85643934Y-169958934D01*
X85654841Y-169949048D01*
X85666664Y-169940280D01*
X85679290Y-169932712D01*
X85692597Y-169926418D01*
X85706457Y-169921459D01*
X85720736Y-169917882D01*
X85735297Y-169915722D01*
X85750000Y-169915000D01*
X87050000Y-169915000D01*
X87064703Y-169915722D01*
G37*
G36*
X87064703Y-171185722D02*
G01*
X87079264Y-171187882D01*
X87093543Y-171191459D01*
X87107403Y-171196418D01*
X87120710Y-171202712D01*
X87133336Y-171210280D01*
X87145159Y-171219048D01*
X87156066Y-171228934D01*
X87165952Y-171239841D01*
X87174720Y-171251664D01*
X87182288Y-171264290D01*
X87188582Y-171277597D01*
X87193541Y-171291457D01*
X87197118Y-171305736D01*
X87199278Y-171320297D01*
X87200000Y-171335000D01*
X87200000Y-171635000D01*
X87199278Y-171649703D01*
X87197118Y-171664264D01*
X87193541Y-171678543D01*
X87188582Y-171692403D01*
X87182288Y-171705710D01*
X87174720Y-171718336D01*
X87165952Y-171730159D01*
X87156066Y-171741066D01*
X87145159Y-171750952D01*
X87133336Y-171759720D01*
X87120710Y-171767288D01*
X87107403Y-171773582D01*
X87093543Y-171778541D01*
X87079264Y-171782118D01*
X87064703Y-171784278D01*
X87050000Y-171785000D01*
X85750000Y-171785000D01*
X85735297Y-171784278D01*
X85720736Y-171782118D01*
X85706457Y-171778541D01*
X85692597Y-171773582D01*
X85679290Y-171767288D01*
X85666664Y-171759720D01*
X85654841Y-171750952D01*
X85643934Y-171741066D01*
X85634048Y-171730159D01*
X85625280Y-171718336D01*
X85617712Y-171705710D01*
X85611418Y-171692403D01*
X85606459Y-171678543D01*
X85602882Y-171664264D01*
X85600722Y-171649703D01*
X85600000Y-171635000D01*
X85600000Y-171335000D01*
X85600722Y-171320297D01*
X85602882Y-171305736D01*
X85606459Y-171291457D01*
X85611418Y-171277597D01*
X85617712Y-171264290D01*
X85625280Y-171251664D01*
X85634048Y-171239841D01*
X85643934Y-171228934D01*
X85654841Y-171219048D01*
X85666664Y-171210280D01*
X85679290Y-171202712D01*
X85692597Y-171196418D01*
X85706457Y-171191459D01*
X85720736Y-171187882D01*
X85735297Y-171185722D01*
X85750000Y-171185000D01*
X87050000Y-171185000D01*
X87064703Y-171185722D01*
G37*
G36*
X87064703Y-172455722D02*
G01*
X87079264Y-172457882D01*
X87093543Y-172461459D01*
X87107403Y-172466418D01*
X87120710Y-172472712D01*
X87133336Y-172480280D01*
X87145159Y-172489048D01*
X87156066Y-172498934D01*
X87165952Y-172509841D01*
X87174720Y-172521664D01*
X87182288Y-172534290D01*
X87188582Y-172547597D01*
X87193541Y-172561457D01*
X87197118Y-172575736D01*
X87199278Y-172590297D01*
X87200000Y-172605000D01*
X87200000Y-172905000D01*
X87199278Y-172919703D01*
X87197118Y-172934264D01*
X87193541Y-172948543D01*
X87188582Y-172962403D01*
X87182288Y-172975710D01*
X87174720Y-172988336D01*
X87165952Y-173000159D01*
X87156066Y-173011066D01*
X87145159Y-173020952D01*
X87133336Y-173029720D01*
X87120710Y-173037288D01*
X87107403Y-173043582D01*
X87093543Y-173048541D01*
X87079264Y-173052118D01*
X87064703Y-173054278D01*
X87050000Y-173055000D01*
X85750000Y-173055000D01*
X85735297Y-173054278D01*
X85720736Y-173052118D01*
X85706457Y-173048541D01*
X85692597Y-173043582D01*
X85679290Y-173037288D01*
X85666664Y-173029720D01*
X85654841Y-173020952D01*
X85643934Y-173011066D01*
X85634048Y-173000159D01*
X85625280Y-172988336D01*
X85617712Y-172975710D01*
X85611418Y-172962403D01*
X85606459Y-172948543D01*
X85602882Y-172934264D01*
X85600722Y-172919703D01*
X85600000Y-172905000D01*
X85600000Y-172605000D01*
X85600722Y-172590297D01*
X85602882Y-172575736D01*
X85606459Y-172561457D01*
X85611418Y-172547597D01*
X85617712Y-172534290D01*
X85625280Y-172521664D01*
X85634048Y-172509841D01*
X85643934Y-172498934D01*
X85654841Y-172489048D01*
X85666664Y-172480280D01*
X85679290Y-172472712D01*
X85692597Y-172466418D01*
X85706457Y-172461459D01*
X85720736Y-172457882D01*
X85735297Y-172455722D01*
X85750000Y-172455000D01*
X87050000Y-172455000D01*
X87064703Y-172455722D01*
G37*
G36*
X94264703Y-172455722D02*
G01*
X94279264Y-172457882D01*
X94293543Y-172461459D01*
X94307403Y-172466418D01*
X94320710Y-172472712D01*
X94333336Y-172480280D01*
X94345159Y-172489048D01*
X94356066Y-172498934D01*
X94365952Y-172509841D01*
X94374720Y-172521664D01*
X94382288Y-172534290D01*
X94388582Y-172547597D01*
X94393541Y-172561457D01*
X94397118Y-172575736D01*
X94399278Y-172590297D01*
X94400000Y-172605000D01*
X94400000Y-172905000D01*
X94399278Y-172919703D01*
X94397118Y-172934264D01*
X94393541Y-172948543D01*
X94388582Y-172962403D01*
X94382288Y-172975710D01*
X94374720Y-172988336D01*
X94365952Y-173000159D01*
X94356066Y-173011066D01*
X94345159Y-173020952D01*
X94333336Y-173029720D01*
X94320710Y-173037288D01*
X94307403Y-173043582D01*
X94293543Y-173048541D01*
X94279264Y-173052118D01*
X94264703Y-173054278D01*
X94250000Y-173055000D01*
X92950000Y-173055000D01*
X92935297Y-173054278D01*
X92920736Y-173052118D01*
X92906457Y-173048541D01*
X92892597Y-173043582D01*
X92879290Y-173037288D01*
X92866664Y-173029720D01*
X92854841Y-173020952D01*
X92843934Y-173011066D01*
X92834048Y-173000159D01*
X92825280Y-172988336D01*
X92817712Y-172975710D01*
X92811418Y-172962403D01*
X92806459Y-172948543D01*
X92802882Y-172934264D01*
X92800722Y-172919703D01*
X92800000Y-172905000D01*
X92800000Y-172605000D01*
X92800722Y-172590297D01*
X92802882Y-172575736D01*
X92806459Y-172561457D01*
X92811418Y-172547597D01*
X92817712Y-172534290D01*
X92825280Y-172521664D01*
X92834048Y-172509841D01*
X92843934Y-172498934D01*
X92854841Y-172489048D01*
X92866664Y-172480280D01*
X92879290Y-172472712D01*
X92892597Y-172466418D01*
X92906457Y-172461459D01*
X92920736Y-172457882D01*
X92935297Y-172455722D01*
X92950000Y-172455000D01*
X94250000Y-172455000D01*
X94264703Y-172455722D01*
G37*
G36*
X94264703Y-171185722D02*
G01*
X94279264Y-171187882D01*
X94293543Y-171191459D01*
X94307403Y-171196418D01*
X94320710Y-171202712D01*
X94333336Y-171210280D01*
X94345159Y-171219048D01*
X94356066Y-171228934D01*
X94365952Y-171239841D01*
X94374720Y-171251664D01*
X94382288Y-171264290D01*
X94388582Y-171277597D01*
X94393541Y-171291457D01*
X94397118Y-171305736D01*
X94399278Y-171320297D01*
X94400000Y-171335000D01*
X94400000Y-171635000D01*
X94399278Y-171649703D01*
X94397118Y-171664264D01*
X94393541Y-171678543D01*
X94388582Y-171692403D01*
X94382288Y-171705710D01*
X94374720Y-171718336D01*
X94365952Y-171730159D01*
X94356066Y-171741066D01*
X94345159Y-171750952D01*
X94333336Y-171759720D01*
X94320710Y-171767288D01*
X94307403Y-171773582D01*
X94293543Y-171778541D01*
X94279264Y-171782118D01*
X94264703Y-171784278D01*
X94250000Y-171785000D01*
X92950000Y-171785000D01*
X92935297Y-171784278D01*
X92920736Y-171782118D01*
X92906457Y-171778541D01*
X92892597Y-171773582D01*
X92879290Y-171767288D01*
X92866664Y-171759720D01*
X92854841Y-171750952D01*
X92843934Y-171741066D01*
X92834048Y-171730159D01*
X92825280Y-171718336D01*
X92817712Y-171705710D01*
X92811418Y-171692403D01*
X92806459Y-171678543D01*
X92802882Y-171664264D01*
X92800722Y-171649703D01*
X92800000Y-171635000D01*
X92800000Y-171335000D01*
X92800722Y-171320297D01*
X92802882Y-171305736D01*
X92806459Y-171291457D01*
X92811418Y-171277597D01*
X92817712Y-171264290D01*
X92825280Y-171251664D01*
X92834048Y-171239841D01*
X92843934Y-171228934D01*
X92854841Y-171219048D01*
X92866664Y-171210280D01*
X92879290Y-171202712D01*
X92892597Y-171196418D01*
X92906457Y-171191459D01*
X92920736Y-171187882D01*
X92935297Y-171185722D01*
X92950000Y-171185000D01*
X94250000Y-171185000D01*
X94264703Y-171185722D01*
G37*
G36*
X94264703Y-169915722D02*
G01*
X94279264Y-169917882D01*
X94293543Y-169921459D01*
X94307403Y-169926418D01*
X94320710Y-169932712D01*
X94333336Y-169940280D01*
X94345159Y-169949048D01*
X94356066Y-169958934D01*
X94365952Y-169969841D01*
X94374720Y-169981664D01*
X94382288Y-169994290D01*
X94388582Y-170007597D01*
X94393541Y-170021457D01*
X94397118Y-170035736D01*
X94399278Y-170050297D01*
X94400000Y-170065000D01*
X94400000Y-170365000D01*
X94399278Y-170379703D01*
X94397118Y-170394264D01*
X94393541Y-170408543D01*
X94388582Y-170422403D01*
X94382288Y-170435710D01*
X94374720Y-170448336D01*
X94365952Y-170460159D01*
X94356066Y-170471066D01*
X94345159Y-170480952D01*
X94333336Y-170489720D01*
X94320710Y-170497288D01*
X94307403Y-170503582D01*
X94293543Y-170508541D01*
X94279264Y-170512118D01*
X94264703Y-170514278D01*
X94250000Y-170515000D01*
X92950000Y-170515000D01*
X92935297Y-170514278D01*
X92920736Y-170512118D01*
X92906457Y-170508541D01*
X92892597Y-170503582D01*
X92879290Y-170497288D01*
X92866664Y-170489720D01*
X92854841Y-170480952D01*
X92843934Y-170471066D01*
X92834048Y-170460159D01*
X92825280Y-170448336D01*
X92817712Y-170435710D01*
X92811418Y-170422403D01*
X92806459Y-170408543D01*
X92802882Y-170394264D01*
X92800722Y-170379703D01*
X92800000Y-170365000D01*
X92800000Y-170065000D01*
X92800722Y-170050297D01*
X92802882Y-170035736D01*
X92806459Y-170021457D01*
X92811418Y-170007597D01*
X92817712Y-169994290D01*
X92825280Y-169981664D01*
X92834048Y-169969841D01*
X92843934Y-169958934D01*
X92854841Y-169949048D01*
X92866664Y-169940280D01*
X92879290Y-169932712D01*
X92892597Y-169926418D01*
X92906457Y-169921459D01*
X92920736Y-169917882D01*
X92935297Y-169915722D01*
X92950000Y-169915000D01*
X94250000Y-169915000D01*
X94264703Y-169915722D01*
G37*
G36*
X94264703Y-168645722D02*
G01*
X94279264Y-168647882D01*
X94293543Y-168651459D01*
X94307403Y-168656418D01*
X94320710Y-168662712D01*
X94333336Y-168670280D01*
X94345159Y-168679048D01*
X94356066Y-168688934D01*
X94365952Y-168699841D01*
X94374720Y-168711664D01*
X94382288Y-168724290D01*
X94388582Y-168737597D01*
X94393541Y-168751457D01*
X94397118Y-168765736D01*
X94399278Y-168780297D01*
X94400000Y-168795000D01*
X94400000Y-169095000D01*
X94399278Y-169109703D01*
X94397118Y-169124264D01*
X94393541Y-169138543D01*
X94388582Y-169152403D01*
X94382288Y-169165710D01*
X94374720Y-169178336D01*
X94365952Y-169190159D01*
X94356066Y-169201066D01*
X94345159Y-169210952D01*
X94333336Y-169219720D01*
X94320710Y-169227288D01*
X94307403Y-169233582D01*
X94293543Y-169238541D01*
X94279264Y-169242118D01*
X94264703Y-169244278D01*
X94250000Y-169245000D01*
X92950000Y-169245000D01*
X92935297Y-169244278D01*
X92920736Y-169242118D01*
X92906457Y-169238541D01*
X92892597Y-169233582D01*
X92879290Y-169227288D01*
X92866664Y-169219720D01*
X92854841Y-169210952D01*
X92843934Y-169201066D01*
X92834048Y-169190159D01*
X92825280Y-169178336D01*
X92817712Y-169165710D01*
X92811418Y-169152403D01*
X92806459Y-169138543D01*
X92802882Y-169124264D01*
X92800722Y-169109703D01*
X92800000Y-169095000D01*
X92800000Y-168795000D01*
X92800722Y-168780297D01*
X92802882Y-168765736D01*
X92806459Y-168751457D01*
X92811418Y-168737597D01*
X92817712Y-168724290D01*
X92825280Y-168711664D01*
X92834048Y-168699841D01*
X92843934Y-168688934D01*
X92854841Y-168679048D01*
X92866664Y-168670280D01*
X92879290Y-168662712D01*
X92892597Y-168656418D01*
X92906457Y-168651459D01*
X92920736Y-168647882D01*
X92935297Y-168645722D01*
X92950000Y-168645000D01*
X94250000Y-168645000D01*
X94264703Y-168645722D01*
G37*
D19*
X96350001Y-196400000D03*
X98249999Y-196400000D03*
D20*
X113300000Y-142150000D03*
X113300000Y-144650000D03*
X118300000Y-142150000D03*
X118300000Y-147150000D03*
X118300000Y-144650000D03*
X113300000Y-147150000D03*
D11*
X91100000Y-40250000D03*
D10*
X91100000Y-42790000D03*
X88560000Y-40250000D03*
X88560000Y-42790000D03*
X86020000Y-40250000D03*
X86020000Y-42790000D03*
D21*
X76735000Y-54110000D03*
X76735000Y-55380000D03*
X76735000Y-56650000D03*
X76735000Y-57920000D03*
X76735000Y-59190000D03*
X75465000Y-59190000D03*
X75465000Y-57920000D03*
X75465000Y-56650000D03*
X75465000Y-55380000D03*
X75465000Y-54110000D03*
D22*
X73560000Y-52840000D03*
X78640000Y-52840000D03*
X78640000Y-58555000D03*
X73560000Y-58555000D03*
D23*
X76100000Y-52840000D03*
X75084000Y-60460000D03*
X77116000Y-60460000D03*
D24*
X113700000Y-44950000D03*
X66700000Y-44650000D03*
M02*
