G04 #@! TF.GenerationSoftware,KiCad,Pcbnew,5.1.5-52549c5~84~ubuntu19.10.1*
G04 #@! TF.CreationDate,2020-03-20T23:31:44-07:00*
G04 #@! TF.ProjectId,hw3-jason_bourne,6877332d-6a61-4736-9f6e-5f626f75726e,rev?*
G04 #@! TF.SameCoordinates,Original*
G04 #@! TF.FileFunction,Profile,NP*
%FSLAX46Y46*%
G04 Gerber Fmt 4.6, Leading zero omitted, Abs format (unit mm)*
G04 Created by KiCad (PCBNEW 5.1.5-52549c5~84~ubuntu19.10.1) date 2020-03-20 23:31:44*
%MOMM*%
%LPD*%
G04 APERTURE LIST*
%ADD10C,0.100000*%
G04 APERTURE END LIST*
D10*
X45795736Y-215449660D02*
X45795915Y-215449550D01*
X46871191Y-215973140D02*
X45795736Y-215449660D01*
X57190695Y-215963040D02*
X46871191Y-215973140D01*
X67510340Y-215970040D02*
X57190695Y-215963040D01*
X88149776Y-215998040D02*
X67510340Y-215970040D01*
X98469429Y-216002040D02*
X88149776Y-215998040D01*
X108788947Y-215987740D02*
X98469429Y-216002040D01*
X119108261Y-215946340D02*
X108788947Y-215987740D01*
X129427301Y-215869140D02*
X119108261Y-215946340D01*
X129638048Y-215923740D02*
X129427301Y-215869140D01*
X129837032Y-215960440D02*
X129638048Y-215923740D01*
X130024611Y-215979940D02*
X129837032Y-215960440D01*
X130201138Y-215982940D02*
X130024611Y-215979940D01*
X130366971Y-215970440D02*
X130201138Y-215982940D01*
X130522465Y-215943040D02*
X130366971Y-215970440D01*
X130667975Y-215901440D02*
X130522465Y-215943040D01*
X130803857Y-215846440D02*
X130667975Y-215901440D01*
X130930467Y-215778740D02*
X130803857Y-215846440D01*
X131048161Y-215699040D02*
X130930467Y-215778740D01*
X131258222Y-215506940D02*
X131048161Y-215699040D01*
X131436887Y-215276070D02*
X131258222Y-215506940D01*
X131587000Y-215012380D02*
X131436887Y-215276070D01*
X131711408Y-214721860D02*
X131587000Y-215012380D01*
X131812956Y-214410450D02*
X131711408Y-214721860D01*
X131894486Y-214084120D02*
X131812956Y-214410450D01*
X131958856Y-213748840D02*
X131894486Y-214084120D01*
X132047466Y-213075290D02*
X131958856Y-213748840D01*
X132101546Y-212437500D02*
X132047466Y-213075290D01*
X132055186Y-212270150D02*
X132101546Y-212437500D01*
X131994496Y-212108860D02*
X132055186Y-212270150D01*
X131844300Y-211799770D02*
X131994496Y-212108860D01*
X131679273Y-211501000D02*
X131844300Y-211799770D01*
X131527733Y-211203280D02*
X131679273Y-211501000D01*
X131465873Y-211051930D02*
X131527733Y-211203280D01*
X131418003Y-210897360D02*
X131465873Y-211051930D01*
X131387663Y-210738440D02*
X131418003Y-210897360D01*
X131378363Y-210573990D02*
X131387663Y-210738440D01*
X131393703Y-210402870D02*
X131378363Y-210573990D01*
X131437193Y-210223920D02*
X131393703Y-210402870D01*
X131512373Y-210035970D02*
X131437193Y-210223920D01*
X131622784Y-209837880D02*
X131512373Y-210035970D01*
X131688424Y-209566610D02*
X131622784Y-209837880D01*
X131731894Y-209303080D02*
X131688424Y-209566610D01*
X131754034Y-209047310D02*
X131731894Y-209303080D01*
X131755634Y-208799350D02*
X131754034Y-209047310D01*
X131737614Y-208559230D02*
X131755634Y-208799350D01*
X131700774Y-208326980D02*
X131737614Y-208559230D01*
X131645944Y-208102640D02*
X131700774Y-208326980D01*
X131573964Y-207886240D02*
X131645944Y-208102640D01*
X131485664Y-207677830D02*
X131573964Y-207886240D01*
X131381888Y-207477420D02*
X131485664Y-207677830D01*
X131263469Y-207285070D02*
X131381888Y-207477420D01*
X131131243Y-207100810D02*
X131263469Y-207285070D01*
X130828716Y-206756670D02*
X131131243Y-207100810D01*
X130480997Y-206445290D02*
X130828716Y-206756670D01*
X130094774Y-206166960D02*
X130480997Y-206445290D01*
X129676738Y-205921950D02*
X130094774Y-206166960D01*
X129233577Y-205710540D02*
X129676738Y-205921950D01*
X128771981Y-205533020D02*
X129233577Y-205710540D01*
X128298640Y-205389670D02*
X128771981Y-205533020D01*
X127820243Y-205280760D02*
X128298640Y-205389670D01*
X127343478Y-205206560D02*
X127820243Y-205280760D01*
X126875037Y-205167360D02*
X127343478Y-205206560D01*
X126602615Y-205186460D02*
X126875037Y-205167360D01*
X126360568Y-205179460D02*
X126602615Y-205186460D01*
X126147631Y-205148560D02*
X126360568Y-205179460D01*
X125962542Y-205094760D02*
X126147631Y-205148560D01*
X125804035Y-205019560D02*
X125962542Y-205094760D01*
X125670847Y-204924460D02*
X125804035Y-205019560D01*
X125561713Y-204810880D02*
X125670847Y-204924460D01*
X125475373Y-204680290D02*
X125561713Y-204810880D01*
X125410553Y-204534160D02*
X125475373Y-204680290D01*
X125366003Y-204373940D02*
X125410553Y-204534160D01*
X125340443Y-204201090D02*
X125366003Y-204373940D01*
X125332643Y-204017070D02*
X125340443Y-204201090D01*
X125365143Y-203621370D02*
X125332643Y-204017070D01*
X125453413Y-203198540D02*
X125365143Y-203621370D01*
X125192974Y-202996340D02*
X125453413Y-203198540D01*
X124982140Y-202776300D02*
X125192974Y-202996340D01*
X124816324Y-202539980D02*
X124982140Y-202776300D01*
X124690940Y-202288930D02*
X124816324Y-202539980D01*
X124601400Y-202024710D02*
X124690940Y-202288930D01*
X124543120Y-201748880D02*
X124601400Y-202024710D01*
X124511510Y-201462990D02*
X124543120Y-201748880D01*
X124502010Y-201168600D02*
X124511510Y-201462990D01*
X124530870Y-200560580D02*
X124502010Y-201168600D01*
X124593030Y-199937250D02*
X124530870Y-200560580D01*
X124651800Y-199311090D02*
X124593030Y-199937250D01*
X124668440Y-199000840D02*
X124651800Y-199311090D01*
X124670440Y-198694550D02*
X124668440Y-199000840D01*
X124609400Y-197070300D02*
X124670440Y-198694550D01*
X124526140Y-195446520D02*
X124609400Y-197070300D01*
X124423164Y-193823130D02*
X124526140Y-195446520D01*
X124302969Y-192200100D02*
X124423164Y-193823130D01*
X124020918Y-188954890D02*
X124302969Y-192200100D01*
X123699978Y-185710460D02*
X124020918Y-188954890D01*
X123021405Y-179222250D02*
X123699978Y-185710460D01*
X122703756Y-175977640D02*
X123021405Y-179222250D01*
X122427188Y-172732120D02*
X122703756Y-175977640D01*
X122296846Y-171693080D02*
X122427188Y-172732120D01*
X122181967Y-170648460D02*
X122296846Y-171693080D01*
X121985571Y-168547010D02*
X122181967Y-170648460D01*
X121635007Y-164326630D02*
X121985571Y-168547010D01*
X121428715Y-162225650D02*
X121635007Y-164326630D01*
X121306415Y-161181390D02*
X121428715Y-162225650D01*
X121167002Y-160142770D02*
X121306415Y-161181390D01*
X121007218Y-159110930D02*
X121167002Y-160142770D01*
X120823805Y-158086970D02*
X121007218Y-159110930D01*
X120613507Y-157072030D02*
X120823805Y-158086970D01*
X120373064Y-156067220D02*
X120613507Y-157072030D01*
X120799795Y-155386210D02*
X120373064Y-156067220D01*
X121206874Y-154681110D02*
X120799795Y-155386210D01*
X121592617Y-153954730D02*
X121206874Y-154681110D01*
X121955342Y-153209900D02*
X121592617Y-153954730D01*
X122293366Y-152449430D02*
X121955342Y-153209900D01*
X122605005Y-151676150D02*
X122293366Y-152449430D01*
X122888578Y-150892880D02*
X122605005Y-151676150D01*
X123142402Y-150102430D02*
X122888578Y-150892880D01*
X123373537Y-149420350D02*
X123142402Y-150102430D01*
X123641226Y-148761830D02*
X123373537Y-149420350D01*
X123943078Y-148125590D02*
X123641226Y-148761830D01*
X124276701Y-147510360D02*
X123943078Y-148125590D01*
X124639706Y-146914870D02*
X124276701Y-147510360D01*
X125029702Y-146337850D02*
X124639706Y-146914870D01*
X125444297Y-145778010D02*
X125029702Y-146337850D01*
X125881101Y-145234080D02*
X125444297Y-145778010D01*
X126337723Y-144704800D02*
X125881101Y-145234080D01*
X126811773Y-144188880D02*
X126337723Y-144704800D01*
X127300860Y-143685050D02*
X126811773Y-144188880D01*
X127802592Y-143192040D02*
X127300860Y-143685050D01*
X128834433Y-142233380D02*
X127802592Y-143192040D01*
X129888168Y-141302700D02*
X128834433Y-142233380D01*
X130108860Y-140825550D02*
X129888168Y-141302700D01*
X130287140Y-140334590D02*
X130108860Y-140825550D01*
X130426952Y-139831400D02*
X130287140Y-140334590D01*
X130532243Y-139317530D02*
X130426952Y-139831400D01*
X130606963Y-138794570D02*
X130532243Y-139317530D01*
X130655053Y-138264080D02*
X130606963Y-138794570D01*
X130680463Y-137727630D02*
X130655053Y-138264080D01*
X130687163Y-137186800D02*
X130680463Y-137727630D01*
X130660083Y-136098270D02*
X130687163Y-137186800D01*
X130605413Y-135011040D02*
X130660083Y-136098270D01*
X130554713Y-133937690D02*
X130605413Y-135011040D01*
X130539563Y-132890780D02*
X130554713Y-133937690D01*
X130560103Y-132610450D02*
X130539563Y-132890780D01*
X130553503Y-132343820D02*
X130560103Y-132610450D01*
X130521603Y-132090010D02*
X130553503Y-132343820D01*
X130466193Y-131848150D02*
X130521603Y-132090010D01*
X130389083Y-131617360D02*
X130466193Y-131848150D01*
X130292073Y-131396760D02*
X130389083Y-131617360D01*
X130176975Y-131185480D02*
X130292073Y-131396760D01*
X130045596Y-130982660D02*
X130176975Y-131185480D01*
X129741221Y-130598850D02*
X130045596Y-130982660D01*
X129393406Y-130238340D02*
X129741221Y-130598850D01*
X129016608Y-129894130D02*
X129393406Y-130238340D01*
X128625284Y-129559230D02*
X129016608Y-129894130D01*
X128233893Y-129226640D02*
X128625284Y-129559230D01*
X127856891Y-128889360D02*
X128233893Y-129226640D01*
X127508736Y-128540410D02*
X127856891Y-128889360D01*
X127203886Y-128172780D02*
X127508736Y-128540410D01*
X127072218Y-127979770D02*
X127203886Y-128172780D01*
X126956797Y-127779480D02*
X127072218Y-127979770D01*
X126859427Y-127571010D02*
X126956797Y-127779480D01*
X126781927Y-127353510D02*
X126859427Y-127571010D01*
X126726097Y-127126090D02*
X126781927Y-127353510D01*
X126693737Y-126887880D02*
X126726097Y-127126090D01*
X126686637Y-126638000D02*
X126693737Y-126887880D01*
X126706657Y-126375590D02*
X126686637Y-126638000D01*
X126840995Y-126117750D02*
X126706657Y-126375590D01*
X126989033Y-125874050D02*
X126840995Y-126117750D01*
X127150072Y-125643810D02*
X126989033Y-125874050D01*
X127323413Y-125426320D02*
X127150072Y-125643810D01*
X127508359Y-125220900D02*
X127323413Y-125426320D01*
X127704210Y-125026850D02*
X127508359Y-125220900D01*
X128125834Y-124670090D02*
X127704210Y-125026850D01*
X128582697Y-124350480D02*
X128125834Y-124670090D01*
X129069211Y-124062480D02*
X128582697Y-124350480D01*
X129579788Y-123800530D02*
X129069211Y-124062480D01*
X130108838Y-123559080D02*
X129579788Y-123800530D01*
X131200009Y-123115490D02*
X130108838Y-123559080D01*
X132298017Y-122687300D02*
X131200009Y-123115490D01*
X132835614Y-122465100D02*
X132298017Y-122687300D01*
X133358154Y-122230100D02*
X132835614Y-122465100D01*
X133860050Y-121976740D02*
X133358154Y-122230100D01*
X134335714Y-121699470D02*
X133860050Y-121976740D01*
X135314680Y-121201050D02*
X134335714Y-121699470D01*
X136315190Y-120740160D02*
X135314680Y-121201050D01*
X137332720Y-120309080D02*
X136315190Y-120740160D01*
X138362780Y-119900070D02*
X137332720Y-120309080D01*
X140442390Y-119117356D02*
X138362780Y-119900070D01*
X142517950Y-118330184D02*
X140442390Y-119117356D01*
X143542930Y-117915600D02*
X142517950Y-118330184D01*
X144553370Y-117476709D02*
X143542930Y-117915600D01*
X145544740Y-117005783D02*
X144553370Y-117476709D01*
X146512550Y-116495090D02*
X145544740Y-117005783D01*
X146986200Y-116222416D02*
X146512550Y-116495090D01*
X147452280Y-115936901D02*
X146986200Y-116222416D01*
X147910200Y-115637580D02*
X147452280Y-115936901D01*
X148359410Y-115323485D02*
X147910200Y-115637580D01*
X148799350Y-114993652D02*
X148359410Y-115323485D01*
X149229450Y-114647113D02*
X148799350Y-114993652D01*
X149649140Y-114282902D02*
X149229450Y-114647113D01*
X150057870Y-113900053D02*
X149649140Y-114282902D01*
X150302470Y-113774341D02*
X150057870Y-113900053D01*
X150526560Y-113639416D02*
X150302470Y-113774341D01*
X150731000Y-113495664D02*
X150526560Y-113639416D01*
X150916660Y-113343472D02*
X150731000Y-113495664D01*
X151084390Y-113183227D02*
X150916660Y-113343472D01*
X151235050Y-113015316D02*
X151084390Y-113183227D01*
X151369510Y-112840126D02*
X151235050Y-113015316D01*
X151488620Y-112658043D02*
X151369510Y-112840126D01*
X151593250Y-112469454D02*
X151488620Y-112658043D01*
X151684250Y-112274746D02*
X151593250Y-112469454D01*
X151828830Y-111868522D02*
X151684250Y-112274746D01*
X151929240Y-111442464D02*
X151828830Y-111868522D01*
X151992340Y-110999667D02*
X151929240Y-111442464D01*
X152025040Y-110543226D02*
X151992340Y-110999667D01*
X152034040Y-110076236D02*
X152025040Y-110543226D01*
X152009440Y-109122987D02*
X152034040Y-110076236D01*
X151973340Y-108164678D02*
X152009440Y-109122987D01*
X151968340Y-107691362D02*
X151973340Y-108164678D01*
X151981040Y-107226065D02*
X151968340Y-107691362D01*
X151608980Y-105737230D02*
X151981040Y-107226065D01*
X151187810Y-104261980D02*
X151608980Y-105737230D01*
X150722090Y-102799194D02*
X151187810Y-104261980D01*
X150216380Y-101347749D02*
X150722090Y-102799194D01*
X149675240Y-99906526D02*
X150216380Y-101347749D01*
X149103240Y-98474403D02*
X149675240Y-99906526D01*
X148504950Y-97050259D02*
X149103240Y-98474403D01*
X147884920Y-95632973D02*
X148504950Y-97050259D01*
X146597900Y-92814488D02*
X147884920Y-95632973D01*
X145278700Y-90009979D02*
X146597900Y-92814488D01*
X143963830Y-87210476D02*
X145278700Y-90009979D01*
X143319420Y-85809799D02*
X143963830Y-87210476D01*
X142689780Y-84407010D02*
X143319420Y-85809799D01*
X142321170Y-83760508D02*
X142689780Y-84407010D01*
X141977630Y-83082014D02*
X142321170Y-83760508D01*
X141651770Y-82379652D02*
X141977630Y-83082014D01*
X141336210Y-81661543D02*
X141651770Y-82379652D01*
X140706440Y-80210581D02*
X141336210Y-81661543D01*
X140377470Y-79493972D02*
X140706440Y-80210581D01*
X140029260Y-78794110D02*
X140377470Y-79493972D01*
X139654430Y-78119116D02*
X140029260Y-78794110D01*
X139245590Y-77477113D02*
X139654430Y-78119116D01*
X139026110Y-77171022D02*
X139245590Y-77477113D01*
X138795370Y-76876225D02*
X139026110Y-77171022D01*
X138552420Y-76593737D02*
X138795370Y-76876225D01*
X138296370Y-76324574D02*
X138552420Y-76593737D01*
X138026270Y-76069752D02*
X138296370Y-76324574D01*
X137741210Y-75830284D02*
X138026270Y-76069752D01*
X137440270Y-75607187D02*
X137741210Y-75830284D01*
X137122510Y-75401477D02*
X137440270Y-75607187D01*
X136787030Y-75214168D02*
X137122510Y-75401477D01*
X136432890Y-75046275D02*
X136787030Y-75214168D01*
X136059180Y-74898815D02*
X136432890Y-75046275D01*
X135664960Y-74772803D02*
X136059180Y-74898815D01*
X135096440Y-74578870D02*
X135664960Y-74772803D01*
X134530496Y-74443287D02*
X135096440Y-74578870D01*
X133967752Y-74362787D02*
X134530496Y-74443287D01*
X133408826Y-74334087D02*
X133967752Y-74362787D01*
X132854339Y-74353927D02*
X133408826Y-74334087D01*
X132304910Y-74419027D02*
X132854339Y-74353927D01*
X131761160Y-74526122D02*
X132304910Y-74419027D01*
X131223709Y-74671938D02*
X131761160Y-74526122D01*
X130693176Y-74853205D02*
X131223709Y-74671938D01*
X130170182Y-75066650D02*
X130693176Y-74853205D01*
X129655346Y-75309002D02*
X130170182Y-75066650D01*
X129149290Y-75576989D02*
X129655346Y-75309002D01*
X128652632Y-75867341D02*
X129149290Y-75576989D01*
X128165994Y-76176785D02*
X128652632Y-75867341D01*
X127689994Y-76502051D02*
X128165994Y-76176785D01*
X127225254Y-76839866D02*
X127689994Y-76502051D01*
X127127454Y-76961468D02*
X127225254Y-76839866D01*
X127020182Y-77066554D02*
X127127454Y-76961468D01*
X126904540Y-77155644D02*
X127020182Y-77066554D01*
X126781631Y-77229264D02*
X126904540Y-77155644D01*
X126652555Y-77287944D02*
X126781631Y-77229264D01*
X126518415Y-77332194D02*
X126652555Y-77287944D01*
X126239352Y-77379534D02*
X126518415Y-77332194D01*
X125953256Y-77375434D02*
X126239352Y-77379534D01*
X125668943Y-77324154D02*
X125953256Y-77375434D01*
X125395229Y-77229844D02*
X125668943Y-77324154D01*
X125140929Y-77096703D02*
X125395229Y-77229844D01*
X124914859Y-76928916D02*
X125140929Y-77096703D01*
X124725835Y-76730672D02*
X124914859Y-76928916D01*
X124582671Y-76506163D02*
X124725835Y-76730672D01*
X124531041Y-76385368D02*
X124582671Y-76506163D01*
X124494181Y-76259577D02*
X124531041Y-76385368D01*
X124473201Y-76129314D02*
X124494181Y-76259577D01*
X124469201Y-75995103D02*
X124473201Y-76129314D01*
X124483271Y-75857468D02*
X124469201Y-75995103D01*
X124516521Y-75716933D02*
X124483271Y-75857468D01*
X124570051Y-75574020D02*
X124516521Y-75716933D01*
X124644961Y-75429254D02*
X124570051Y-75574020D01*
X124742361Y-75283158D02*
X124644961Y-75429254D01*
X124863343Y-75136257D02*
X124742361Y-75283158D01*
X124856343Y-74857930D02*
X124863343Y-75136257D01*
X124868583Y-74586580D02*
X124856343Y-74857930D01*
X124898773Y-74321750D02*
X124868583Y-74586580D01*
X124945623Y-74062983D02*
X124898773Y-74321750D01*
X125007863Y-73809822D02*
X124945623Y-74062983D01*
X125084213Y-73561809D02*
X125007863Y-73809822D01*
X125274137Y-73079402D02*
X125084213Y-73561809D01*
X125505163Y-72612104D02*
X125274137Y-73079402D01*
X125767065Y-72156259D02*
X125505163Y-72612104D01*
X126342597Y-71264297D02*
X125767065Y-72156259D01*
X126918926Y-70374261D02*
X126342597Y-71264297D01*
X127181825Y-69920822D02*
X126918926Y-70374261D01*
X127414245Y-69456894D02*
X127181825Y-69920822D01*
X127605962Y-68978819D02*
X127414245Y-69456894D01*
X127683362Y-68733333D02*
X127605962Y-68978819D01*
X127746752Y-68482940D02*
X127683362Y-68733333D01*
X127794852Y-68227181D02*
X127746752Y-68482940D01*
X127826382Y-67965600D02*
X127794852Y-68227181D01*
X127840072Y-67697740D02*
X127826382Y-67965600D01*
X127834672Y-67423143D02*
X127840072Y-67697740D01*
X127857202Y-67152354D02*
X127834672Y-67423143D01*
X127860902Y-66892615D02*
X127857202Y-67152354D01*
X127846472Y-66643537D02*
X127860902Y-66892615D01*
X127814742Y-66404732D02*
X127846472Y-66643537D01*
X127766502Y-66175811D02*
X127814742Y-66404732D01*
X127702542Y-65956387D02*
X127766502Y-66175811D01*
X127623652Y-65746072D02*
X127702542Y-65956387D01*
X127530622Y-65544476D02*
X127623652Y-65746072D01*
X127424239Y-65351212D02*
X127530622Y-65544476D01*
X127305292Y-65165891D02*
X127424239Y-65351212D01*
X127032867Y-64817526D02*
X127305292Y-65165891D01*
X126719660Y-64496275D02*
X127032867Y-64817526D01*
X126371986Y-64199032D02*
X126719660Y-64496275D01*
X125996157Y-63922691D02*
X126371986Y-64199032D01*
X125598489Y-63664145D02*
X125996157Y-63922691D01*
X125185295Y-63420289D02*
X125598489Y-63664145D01*
X124762888Y-63188015D02*
X125185295Y-63420289D01*
X123915694Y-62745793D02*
X124762888Y-63188015D01*
X123107418Y-62312628D02*
X123915694Y-62745793D01*
X123046558Y-60792088D02*
X123107418Y-62312628D01*
X123018888Y-59268041D02*
X123046558Y-60792088D01*
X122992788Y-56216402D02*
X123018888Y-59268041D01*
X122959188Y-54692299D02*
X122992788Y-56216402D01*
X122888438Y-53171664D02*
X122959188Y-54692299D01*
X122833638Y-52413193D02*
X122888438Y-53171664D01*
X122762958Y-51656242D02*
X122833638Y-52413193D01*
X122674188Y-50901031D02*
X122762958Y-51656242D01*
X122565145Y-50147777D02*
X122674188Y-50901031D01*
X121985699Y-48939754D02*
X122565145Y-50147777D01*
X121359851Y-47755966D02*
X121985699Y-48939754D01*
X120689793Y-46596525D02*
X121359851Y-47755966D01*
X119977722Y-45461540D02*
X120689793Y-46596525D01*
X119225830Y-44351121D02*
X119977722Y-45461540D01*
X118436313Y-43265379D02*
X119225830Y-44351121D01*
X117611365Y-42204425D02*
X118436313Y-43265379D01*
X116753181Y-41168367D02*
X117611365Y-42204425D01*
X115863954Y-40157317D02*
X116753181Y-41168367D01*
X114945880Y-39171385D02*
X115863954Y-40157317D01*
X114001153Y-38210681D02*
X114945880Y-39171385D01*
X113031967Y-37275316D02*
X114001153Y-38210681D01*
X112040517Y-36365399D02*
X113031967Y-37275316D01*
X111028997Y-35481041D02*
X112040517Y-36365399D01*
X109999602Y-34622352D02*
X111028997Y-35481041D01*
X108954526Y-33789443D02*
X109999602Y-34622352D01*
X81922344Y-33891320D02*
X108954526Y-33789443D01*
X81199018Y-33954530D02*
X81922344Y-33891320D01*
X80465686Y-33979270D02*
X81199018Y-33954530D01*
X79724672Y-33974470D02*
X80465686Y-33979270D01*
X78978298Y-33949060D02*
X79724672Y-33974470D01*
X77478762Y-33872140D02*
X78978298Y-33949060D01*
X76730245Y-33838500D02*
X77478762Y-33872140D01*
X75985660Y-33819990D02*
X76730245Y-33838500D01*
X75247329Y-33825490D02*
X75985660Y-33819990D01*
X74517576Y-33864030D02*
X75247329Y-33825490D01*
X73798722Y-33944500D02*
X74517576Y-33864030D01*
X73093091Y-34075835D02*
X73798722Y-33944500D01*
X72745961Y-34163365D02*
X73093091Y-34075835D01*
X72403006Y-34266963D02*
X72745961Y-34163365D01*
X72064519Y-34387743D02*
X72403006Y-34266963D01*
X71730790Y-34526823D02*
X72064519Y-34387743D01*
X71402108Y-34685319D02*
X71730790Y-34526823D01*
X71078765Y-34864348D02*
X71402108Y-34685319D01*
X70761050Y-35065026D02*
X71078765Y-34864348D01*
X70449254Y-35288470D02*
X70761050Y-35065026D01*
X69883397Y-35549000D02*
X70449254Y-35288470D01*
X69333556Y-35828619D02*
X69883397Y-35549000D01*
X68799260Y-36126622D02*
X69333556Y-35828619D01*
X68280036Y-36442300D02*
X68799260Y-36126622D01*
X67775413Y-36774946D02*
X68280036Y-36442300D01*
X67284920Y-37123853D02*
X67775413Y-36774946D01*
X66808085Y-37488314D02*
X67284920Y-37123853D01*
X66344437Y-37867620D02*
X66808085Y-37488314D01*
X65893503Y-38261065D02*
X66344437Y-37867620D01*
X65454813Y-38667942D02*
X65893503Y-38261065D01*
X65027895Y-39087542D02*
X65454813Y-38667942D01*
X64612277Y-39519159D02*
X65027895Y-39087542D01*
X64207487Y-39962085D02*
X64612277Y-39519159D01*
X63813055Y-40415614D02*
X64207487Y-39962085D01*
X63053376Y-41351646D02*
X63813055Y-40415614D01*
X62329466Y-42321598D02*
X63053376Y-41351646D01*
X61637554Y-43319811D02*
X62329466Y-42321598D01*
X60973866Y-44340625D02*
X61637554Y-43319811D01*
X60334631Y-45378382D02*
X60973866Y-44340625D01*
X59716076Y-46427423D02*
X60334631Y-45378382D01*
X59114428Y-47482089D02*
X59716076Y-46427423D01*
X57946764Y-49585661D02*
X59114428Y-47482089D01*
X57773702Y-50322582D02*
X57946764Y-49585661D01*
X57636244Y-51069222D02*
X57773702Y-50322582D01*
X57530400Y-51824491D02*
X57636244Y-51069222D01*
X57452180Y-52587300D02*
X57530400Y-51824491D01*
X57397580Y-53356558D02*
X57452180Y-52587300D01*
X57362620Y-54131176D02*
X57397580Y-53356558D01*
X57335640Y-55692134D02*
X57362620Y-54131176D01*
X57341640Y-58830417D02*
X57335640Y-55692134D01*
X57310750Y-60390307D02*
X57341640Y-58830417D01*
X57272860Y-61164125D02*
X57310750Y-60390307D01*
X57214680Y-61932405D02*
X57272860Y-61164125D01*
X57271970Y-62180041D02*
X57214680Y-61932405D01*
X57311280Y-62419925D02*
X57271970Y-62180041D01*
X57333470Y-62652468D02*
X57311280Y-62419925D01*
X57339370Y-62878082D02*
X57333470Y-62652468D01*
X57329870Y-63097176D02*
X57339370Y-62878082D01*
X57305830Y-63310164D02*
X57329870Y-63097176D01*
X57217510Y-63719461D02*
X57305830Y-63310164D01*
X57081236Y-64109261D02*
X57217510Y-63719461D01*
X56903849Y-64482855D02*
X57081236Y-64109261D01*
X56692191Y-64843530D02*
X56903849Y-64482855D01*
X56453104Y-65194577D02*
X56692191Y-64843530D01*
X56193430Y-65539283D02*
X56453104Y-65194577D01*
X55920012Y-65880938D02*
X56193430Y-65539283D01*
X55359312Y-66568252D02*
X55920012Y-65880938D01*
X55085714Y-66920489D02*
X55359312Y-66568252D01*
X54825740Y-67282831D02*
X55085714Y-66920489D01*
X54586233Y-67658567D02*
X54825740Y-67282831D01*
X54374035Y-68050987D02*
X54586233Y-67658567D01*
X54248661Y-68434753D02*
X54374035Y-68050987D01*
X54086529Y-68764675D02*
X54248661Y-68434753D01*
X53890952Y-69045441D02*
X54086529Y-68764675D01*
X53665244Y-69281741D02*
X53890952Y-69045441D01*
X53412719Y-69478262D02*
X53665244Y-69281741D01*
X53136690Y-69639693D02*
X53412719Y-69478262D01*
X52840471Y-69770723D02*
X53136690Y-69639693D01*
X52527376Y-69876041D02*
X52840471Y-69770723D01*
X52200719Y-69960331D02*
X52527376Y-69876041D01*
X51863813Y-70028291D02*
X52200719Y-69960331D01*
X51172509Y-70133956D02*
X51863813Y-70028291D01*
X50479975Y-70230546D02*
X51172509Y-70133956D01*
X50141531Y-70287156D02*
X50479975Y-70230546D01*
X49812721Y-70355566D02*
X50141531Y-70287156D01*
X49641102Y-70621636D02*
X49812721Y-70355566D01*
X49489168Y-70902974D02*
X49641102Y-70621636D01*
X49354784Y-71197837D02*
X49489168Y-70902974D01*
X49235817Y-71504485D02*
X49354784Y-71197837D01*
X49035591Y-72146168D02*
X49235817Y-71504485D01*
X48871411Y-72814090D02*
X49035591Y-72146168D01*
X48582882Y-74172918D02*
X48871411Y-72814090D01*
X48424377Y-74835958D02*
X48582882Y-74172918D01*
X48233607Y-75469507D02*
X48424377Y-74835958D01*
X48031237Y-75896523D02*
X48233607Y-75469507D01*
X47899809Y-76287067D02*
X48031237Y-75896523D01*
X47834519Y-76643811D02*
X47899809Y-76287067D01*
X47830619Y-76969429D02*
X47834519Y-76643811D01*
X47883219Y-77266593D02*
X47830619Y-76969429D01*
X47987571Y-77537976D02*
X47883219Y-77266593D01*
X48138871Y-77786250D02*
X47987571Y-77537976D01*
X48332319Y-78014090D02*
X48138871Y-77786250D01*
X48563117Y-78224166D02*
X48332319Y-78014090D01*
X48826465Y-78419152D02*
X48563117Y-78224166D01*
X49117566Y-78601722D02*
X48826465Y-78419152D01*
X49431619Y-78774547D02*
X49117566Y-78601722D01*
X50109389Y-79101654D02*
X49431619Y-78774547D01*
X50821384Y-79421858D02*
X50109389Y-79101654D01*
X51017382Y-79839705D02*
X50821384Y-79421858D01*
X51185417Y-80271113D02*
X51017382Y-79839705D01*
X51328584Y-80714519D02*
X51185417Y-80271113D01*
X51449981Y-81168362D02*
X51328584Y-80714519D01*
X51552702Y-81631077D02*
X51449981Y-81168362D01*
X51639842Y-82101103D02*
X51552702Y-81631077D01*
X51779767Y-83056834D02*
X51639842Y-82101103D01*
X52008868Y-84987262D02*
X51779767Y-83056834D01*
X52147576Y-85936955D02*
X52008868Y-84987262D01*
X52233806Y-86402451D02*
X52147576Y-85936955D01*
X52335411Y-86859631D02*
X52233806Y-86402451D01*
X50648752Y-88717588D02*
X52335411Y-86859631D01*
X48974832Y-90586856D02*
X50648752Y-88717588D01*
X47313462Y-92467184D02*
X48974832Y-90586856D01*
X45664451Y-94358317D02*
X47313462Y-92467184D01*
X44027611Y-96260004D02*
X45664451Y-94358317D01*
X42402750Y-98171991D02*
X44027611Y-96260004D01*
X40789680Y-100094027D02*
X42402750Y-98171991D01*
X39188211Y-102025857D02*
X40789680Y-100094027D01*
X39075218Y-102541859D02*
X39188211Y-102025857D01*
X38992391Y-103067097D02*
X39075218Y-102541859D01*
X38936489Y-103600521D02*
X38992391Y-103067097D01*
X38904269Y-104141083D02*
X38936489Y-103600521D01*
X38892489Y-104687734D02*
X38904269Y-104141083D01*
X38897909Y-105239427D02*
X38892489Y-104687734D01*
X38947376Y-106353742D02*
X38897909Y-105239427D01*
X39110057Y-108596736D02*
X38947376Y-106353742D01*
X39171402Y-109708640D02*
X39110057Y-108596736D01*
X39185729Y-110258524D02*
X39171402Y-109708640D01*
X39184837Y-110802965D02*
X39185729Y-110258524D01*
X42251436Y-112954236D02*
X39184837Y-110802965D01*
X45310263Y-115116647D02*
X42251436Y-112954236D01*
X48356363Y-117296860D02*
X45310263Y-115116647D01*
X51384779Y-119501540D02*
X48356363Y-117296860D01*
X51419039Y-119712560D02*
X51384779Y-119501540D01*
X51399779Y-119919340D02*
X51419039Y-119712560D01*
X51333189Y-120122130D02*
X51399779Y-119919340D01*
X51225455Y-120321220D02*
X51333189Y-120122130D01*
X51082764Y-120516860D02*
X51225455Y-120321220D01*
X50911302Y-120709330D02*
X51082764Y-120516860D01*
X50506817Y-121085790D02*
X50911302Y-120709330D01*
X49624852Y-121812300D02*
X50506817Y-121085790D01*
X49246372Y-122166610D02*
X49624852Y-121812300D01*
X49094414Y-122342460D02*
X49246372Y-122166610D01*
X48975560Y-122517800D02*
X49094414Y-122342460D01*
X48730506Y-122851190D02*
X48975560Y-122517800D01*
X48432470Y-123171230D02*
X48730506Y-122851190D01*
X48093047Y-123480810D02*
X48432470Y-123171230D01*
X47723835Y-123782840D02*
X48093047Y-123480810D01*
X46942419Y-124375860D02*
X47723835Y-123782840D01*
X46553408Y-124672640D02*
X46942419Y-124375860D01*
X46180989Y-124973470D02*
X46553408Y-124672640D01*
X45836756Y-125281260D02*
X46180989Y-124973470D01*
X45532307Y-125598900D02*
X45836756Y-125281260D01*
X45279236Y-125929280D02*
X45532307Y-125598900D01*
X45175591Y-126100170D02*
X45279236Y-125929280D01*
X45089141Y-126275330D02*
X45175591Y-126100170D01*
X45021331Y-126455120D02*
X45089141Y-126275330D01*
X44973612Y-126639920D02*
X45021331Y-126455120D01*
X44947435Y-126830090D02*
X44973612Y-126639920D01*
X44944245Y-127025970D02*
X44947435Y-126830090D01*
X44965499Y-127227950D02*
X44944245Y-127025970D01*
X45012642Y-127436380D02*
X44965499Y-127227950D01*
X45087122Y-127651620D02*
X45012642Y-127436380D01*
X45190393Y-127874040D02*
X45087122Y-127651620D01*
X45264763Y-128304720D02*
X45190393Y-127874040D01*
X45390911Y-128746790D02*
X45264763Y-128304720D01*
X45556662Y-129197580D02*
X45390911Y-128746790D01*
X45749844Y-129654410D02*
X45556662Y-129197580D01*
X46169807Y-130575460D02*
X45749844Y-129654410D01*
X46372242Y-131034330D02*
X46169807Y-130575460D01*
X46553414Y-131488510D02*
X46372242Y-131034330D01*
X46701151Y-131935340D02*
X46553414Y-131488510D01*
X46803279Y-132372120D02*
X46701151Y-131935340D01*
X46833439Y-132585920D02*
X46803279Y-132372120D01*
X46847629Y-132796190D02*
X46833439Y-132585920D01*
X46844329Y-133002620D02*
X46847629Y-132796190D01*
X46822019Y-133204870D02*
X46844329Y-133002620D01*
X46779179Y-133402590D02*
X46822019Y-133204870D01*
X46714279Y-133595460D02*
X46779179Y-133402590D01*
X46625809Y-133783140D02*
X46714279Y-133595460D01*
X46512241Y-133965300D02*
X46625809Y-133783140D01*
X46372055Y-134141600D02*
X46512241Y-133965300D01*
X46203728Y-134311710D02*
X46372055Y-134141600D01*
X46005739Y-134475290D02*
X46203728Y-134311710D01*
X45776566Y-134632000D02*
X46005739Y-134475290D01*
X45542441Y-134810420D02*
X45776566Y-134632000D01*
X45336704Y-134996350D02*
X45542441Y-134810420D01*
X45158059Y-135189370D02*
X45336704Y-134996350D01*
X45005208Y-135389100D02*
X45158059Y-135189370D01*
X44876853Y-135595120D02*
X45005208Y-135389100D01*
X44771696Y-135807030D02*
X44876853Y-135595120D01*
X44688440Y-136024430D02*
X44771696Y-135807030D01*
X44625787Y-136246920D02*
X44688440Y-136024430D01*
X44582440Y-136474090D02*
X44625787Y-136246920D01*
X44557101Y-136705540D02*
X44582440Y-136474090D01*
X44548471Y-136940860D02*
X44557101Y-136705540D01*
X44555251Y-137179650D02*
X44548471Y-136940860D01*
X44609867Y-137666050D02*
X44555251Y-137179650D01*
X44710563Y-138161500D02*
X44609867Y-137666050D01*
X44846957Y-138662780D02*
X44710563Y-138161500D01*
X45008668Y-139166660D02*
X44846957Y-138662780D01*
X45366520Y-140169310D02*
X45008668Y-139166660D01*
X45701070Y-141143670D02*
X45366520Y-140169310D01*
X45833655Y-141612170D02*
X45701070Y-141143670D01*
X45929275Y-142063920D02*
X45833655Y-141612170D01*
X46071423Y-142295170D02*
X45929275Y-142063920D01*
X46190915Y-142571240D02*
X46071423Y-142295170D01*
X46293090Y-142882930D02*
X46190915Y-142571240D01*
X46383290Y-143221030D02*
X46293090Y-142882930D01*
X46549138Y-143939640D02*
X46383290Y-143221030D01*
X46731187Y-144653420D02*
X46549138Y-143939640D01*
X46841642Y-144985480D02*
X46731187Y-144653420D01*
X46972171Y-145288720D02*
X46841642Y-144985480D01*
X47128117Y-145553920D02*
X46972171Y-145288720D01*
X47217287Y-145669390D02*
X47128117Y-145553920D01*
X47314817Y-145771890D02*
X47217287Y-145669390D01*
X47421372Y-145860290D02*
X47314817Y-145771890D01*
X47537620Y-145933390D02*
X47421372Y-145860290D01*
X47664229Y-145990090D02*
X47537620Y-145933390D01*
X47801865Y-146029190D02*
X47664229Y-145990090D01*
X47951197Y-146049590D02*
X47801865Y-146029190D01*
X48112892Y-146050160D02*
X47951197Y-146049590D01*
X48287618Y-146029760D02*
X48112892Y-146050160D01*
X48476043Y-145987160D02*
X48287618Y-146029760D01*
X48678907Y-145892560D02*
X48476043Y-145987160D01*
X48876747Y-145816460D02*
X48678907Y-145892560D01*
X49069615Y-145758260D02*
X48876747Y-145816460D01*
X49257565Y-145717260D02*
X49069615Y-145758260D01*
X49440649Y-145692760D02*
X49257565Y-145717260D01*
X49618918Y-145683760D02*
X49440649Y-145692760D01*
X49961223Y-145710960D02*
X49618918Y-145683760D01*
X50284901Y-145793160D02*
X49961223Y-145710960D01*
X50590369Y-145924900D02*
X50284901Y-145793160D01*
X50878047Y-146100640D02*
X50590369Y-145924900D01*
X51148354Y-146314900D02*
X50878047Y-146100640D01*
X51401709Y-146562190D02*
X51148354Y-146314900D01*
X51638530Y-146837010D02*
X51401709Y-146562190D01*
X51859237Y-147133880D02*
X51638530Y-146837010D01*
X52064248Y-147447300D02*
X51859237Y-147133880D01*
X52253983Y-147771790D02*
X52064248Y-147447300D01*
X52428860Y-148101850D02*
X52253983Y-147771790D01*
X52735718Y-148756730D02*
X52428860Y-148101850D01*
X52652428Y-149058610D02*
X52735718Y-148756730D01*
X52541467Y-149360300D02*
X52652428Y-149058610D01*
X52279669Y-149964980D02*
X52541467Y-149360300D01*
X52150399Y-150268890D02*
X52279669Y-149964980D01*
X52036594Y-150574470D02*
X52150399Y-150268890D01*
X51949034Y-150882170D02*
X52036594Y-150574470D01*
X51898504Y-151192450D02*
X51949034Y-150882170D01*
X51895804Y-151505780D02*
X51898504Y-151192450D01*
X51915744Y-151663740D02*
X51895804Y-151505780D01*
X51951684Y-151822620D02*
X51915744Y-151663740D01*
X52004964Y-151982510D02*
X51951684Y-151822620D01*
X52076944Y-152143440D02*
X52004964Y-151982510D01*
X52168964Y-152305480D02*
X52076944Y-152143440D01*
X52282371Y-152468680D02*
X52168964Y-152305480D01*
X52418515Y-152633110D02*
X52282371Y-152468680D01*
X52578744Y-152798820D02*
X52418515Y-152633110D01*
X52764405Y-152965870D02*
X52578744Y-152798820D01*
X52976847Y-153134310D02*
X52764405Y-152965870D01*
X53217417Y-153304210D02*
X52976847Y-153134310D01*
X53487464Y-153475620D02*
X53217417Y-153304210D01*
X54121377Y-153823210D02*
X53487464Y-153475620D01*
X54032647Y-156337130D02*
X54121377Y-153823210D01*
X53969117Y-158684720D02*
X54032647Y-156337130D01*
X53927187Y-160907280D02*
X53969117Y-158684720D01*
X53903247Y-163046100D02*
X53927187Y-160907280D01*
X53894947Y-167237700D02*
X53903247Y-163046100D01*
X53915327Y-171589850D02*
X53894947Y-167237700D01*
X53935587Y-176432920D02*
X53915327Y-171589850D01*
X53926887Y-182097240D02*
X53935587Y-176432920D01*
X53902657Y-185340600D02*
X53926887Y-182097240D01*
X53860367Y-188913160D02*
X53902657Y-185340600D01*
X53796417Y-192856210D02*
X53860367Y-188913160D01*
X53707207Y-197211040D02*
X53796417Y-192856210D01*
X52969089Y-197663430D02*
X53707207Y-197211040D01*
X52408510Y-198060190D02*
X52969089Y-197663430D01*
X52187753Y-198240830D02*
X52408510Y-198060190D01*
X52002925Y-198411310D02*
X52187753Y-198240830D01*
X51851209Y-198572860D02*
X52002925Y-198411310D01*
X51729787Y-198726740D02*
X51851209Y-198572860D01*
X51635837Y-198874200D02*
X51729787Y-198726740D01*
X51566547Y-199016480D02*
X51635837Y-198874200D01*
X51519097Y-199154820D02*
X51566547Y-199016480D01*
X51490667Y-199290470D02*
X51519097Y-199154820D01*
X51479597Y-199558710D02*
X51490667Y-199290470D01*
X51510797Y-199831150D02*
X51479597Y-199558710D01*
X51609797Y-200428550D02*
X51510797Y-199831150D01*
X51632517Y-200773450D02*
X51609797Y-200428550D01*
X51607317Y-201162440D02*
X51632517Y-200773450D01*
X51569707Y-201376590D02*
X51607317Y-201162440D01*
X51511657Y-201605500D02*
X51569707Y-201376590D01*
X51430357Y-201850430D02*
X51511657Y-201605500D01*
X51322986Y-202112600D02*
X51430357Y-201850430D01*
X51186725Y-202393290D02*
X51322986Y-202112600D01*
X51018758Y-202693720D02*
X51186725Y-202393290D01*
X50816266Y-203015140D02*
X51018758Y-202693720D01*
X50576430Y-203358810D02*
X50816266Y-203015140D01*
X50586500Y-203673710D02*
X50576430Y-203358810D01*
X50558320Y-203975850D02*
X50586500Y-203673710D01*
X50494980Y-204264820D02*
X50558320Y-203975850D01*
X50399580Y-204540170D02*
X50494980Y-204264820D01*
X50275215Y-204801470D02*
X50399580Y-204540170D01*
X50124980Y-205048310D02*
X50275215Y-204801470D01*
X49951971Y-205280250D02*
X50124980Y-205048310D01*
X49759284Y-205496850D02*
X49951971Y-205280250D01*
X49550015Y-205697700D02*
X49759284Y-205496850D01*
X49327259Y-205882350D02*
X49550015Y-205697700D01*
X49094112Y-206050380D02*
X49327259Y-205882350D01*
X48853671Y-206201370D02*
X49094112Y-206050380D01*
X48609031Y-206334870D02*
X48853671Y-206201370D01*
X48363287Y-206450470D02*
X48609031Y-206334870D01*
X48119536Y-206547770D02*
X48363287Y-206450470D01*
X47880873Y-206626270D02*
X48119536Y-206547770D01*
X47445838Y-206772120D02*
X47880873Y-206626270D01*
X47038116Y-206952780D02*
X47445838Y-206772120D01*
X46658464Y-207166140D02*
X47038116Y-206952780D01*
X46307636Y-207410050D02*
X46658464Y-207166140D01*
X45986388Y-207682390D02*
X46307636Y-207410050D01*
X45695476Y-207981030D02*
X45986388Y-207682390D01*
X45435655Y-208303840D02*
X45695476Y-207981030D01*
X45207679Y-208648680D02*
X45435655Y-208303840D01*
X45012306Y-209013430D02*
X45207679Y-208648680D01*
X44850289Y-209395950D02*
X45012306Y-209013430D01*
X44722384Y-209794120D02*
X44850289Y-209395950D01*
X44629347Y-210205800D02*
X44722384Y-209794120D01*
X44571933Y-210628860D02*
X44629347Y-210205800D01*
X44550898Y-211061180D02*
X44571933Y-210628860D01*
X44566996Y-211500620D02*
X44550898Y-211061180D01*
X44620984Y-211945050D02*
X44566996Y-211500620D01*
X44474629Y-212180100D02*
X44620984Y-211945050D01*
X44361689Y-212425930D02*
X44474629Y-212180100D01*
X44281283Y-212679760D02*
X44361689Y-212425930D01*
X44232531Y-212938850D02*
X44281283Y-212679760D01*
X44214552Y-213200410D02*
X44232531Y-212938850D01*
X44226465Y-213461680D02*
X44214552Y-213200410D01*
X44267389Y-213719900D02*
X44226465Y-213461680D01*
X44336444Y-213972280D02*
X44267389Y-213719900D01*
X44432749Y-214216080D02*
X44336444Y-213972280D01*
X44555424Y-214448510D02*
X44432749Y-214216080D01*
X44703587Y-214666820D02*
X44555424Y-214448510D01*
X44876359Y-214868230D02*
X44703587Y-214666820D01*
X45072859Y-215049970D02*
X44876359Y-214868230D01*
X45292205Y-215209290D02*
X45072859Y-215049970D01*
X45533517Y-215343400D02*
X45292205Y-215209290D01*
X45795915Y-215449550D02*
X45533517Y-215343400D01*
M02*
