M48
; DRILL file {KiCad 5.1.5-52549c5~84~ubuntu19.10.1} date Fri 20 Mar 2020 11:31:50 PM PDT
; FORMAT={-:-/ absolute / inch / decimal}
; #@! TF.CreationDate,2020-03-20T23:31:50-07:00
; #@! TF.GenerationSoftware,Kicad,Pcbnew,5.1.5-52549c5~84~ubuntu19.10.1
FMAT,2
INCH
T1C0.0100
T2C0.0276
T3C0.0390
T4C0.0394
T5C0.0935
T6C0.0295
T7C0.1661
T8C0.2087
%
G90
G05
T1
X1.8465Y-5.4744
X1.8504Y-5.4075
X1.8661Y-5.5492
X2.1201Y-4.1614
X2.1575Y-5.5413
X2.1673Y-4.1969
X2.1791Y-3.9409
X2.1969Y-7.9783
X2.2008Y-4.0177
X2.2047Y-5.9429
X2.2402Y-3.9705
X2.2441Y-2.939
X2.2441Y-3.0098
X2.252Y-3.0728
X2.252Y-4.065
X2.2579Y-4.2618
X2.2874Y-4.0177
X2.2933Y-4.0768
X2.3093Y-4.1181
X2.3228Y-4.3445
X2.4488Y-4.1358
X2.4528Y-4.0571
X2.4528Y-4.0906
X2.4587Y-4.4016
X2.5039Y-5.9508
X2.5118Y-2.2303
X2.5374Y-4.122
X2.5472Y-3.0728
X2.5512Y-5.1437
X2.563Y-4.2028
X2.5787Y-6.2697
X2.7795Y-3.3642
X2.7992Y-7.8425
X2.8031Y-1.935
X2.811Y-7.8681
X2.8195Y-7.6909
X2.8225Y-7.7192
X2.8268Y-8.0866
X2.8268Y-8.0433
X2.8297Y-7.6476
X2.8327Y-7.9862
X2.8406Y-7.9016
X2.8622Y-7.8839
X2.8642Y-1.935
X2.8661Y-7.6713
X2.8687Y-7.7526
X2.878Y-6.2736
X2.937Y-2.2303
X2.9724Y-6.3209
X2.9724Y-6.3563
X2.9724Y-6.3996
X2.9724Y-6.437
X2.9724Y-6.4783
X2.9803Y-4.2657
X2.9803Y-4.3071
X2.9823Y-4.1516
X2.9823Y-4.1909
X2.9823Y-4.2283
X3.0086Y-6.7656
X3.0162Y-7.9028
X3.0217Y-6.3169
X3.0217Y-6.3583
X3.0217Y-6.3996
X3.0217Y-6.437
X3.0217Y-6.4783
X3.0276Y-8.124
X3.0283Y-4.2669
X3.0283Y-4.3083
X3.0285Y-7.2376
X3.0303Y-4.1528
X3.0303Y-4.1921
X3.0394Y-6.9193
X3.0483Y-7.9906
X3.0493Y-6.7656
X3.0531Y-2.2303
X3.0532Y-7.2401
X3.0551Y-2.1535
X3.0567Y-7.9622
X3.065Y-7.9252
X3.0669Y-6.9193
X3.0689Y-6.435
X3.0709Y-6.4783
X3.0718Y-7.9984
X3.0731Y-8.0971
X3.0776Y-4.2669
X3.0776Y-4.3083
X3.0776Y-7.2359
X3.0795Y-4.1528
X3.0795Y-4.1921
X3.0866Y-3.3642
X3.0882Y-6.7656
X3.0906Y-2.2185
X3.0984Y-6.9193
X3.1024Y-7.2343
X3.1181Y-6.7657
X3.126Y-6.0335
X3.126Y-6.9193
X3.1384Y-3.836
X3.1398Y-7.2205
X3.1417Y-6.872
X3.1535Y-6.7657
X3.1772Y-5.0335
X3.1772Y-5.1122
X3.2087Y-5.0059
X3.2087Y-5.1122
X3.2303Y-7.9665
X3.2559Y-7.8858
X3.2736Y-2.0669
X3.2918Y-7.4346
X3.3195Y-7.4215
X3.3209Y-7.3967
X3.3346Y-6.876
X3.3386Y-7.0531
X3.3425Y-6.7028
X3.3483Y-7.3567
X3.3504Y-8.1535
X3.3524Y-6.6476
X3.3583Y-6.3957
X3.378Y-7.0571
X3.4134Y-7.5157
X3.4213Y-7.435
X3.4213Y-7.3502
X3.435Y-8.063
X3.4449Y-3.8406
X3.4449Y-6.0295
X3.4587Y-6.6476
X3.4665Y-8.1535
X3.4764Y-7.8681
X3.4882Y-4.1319
X3.4882Y-4.1752
X3.4882Y-4.2264
X3.4882Y-4.2776
X3.4882Y-4.3287
X3.4961Y-2.6201
X3.4961Y-7.1398
X3.5039Y-6.3169
X3.5039Y-6.3524
X3.5039Y-6.3957
X3.5039Y-6.4429
X3.5039Y-6.4862
X3.5039Y-7.5059
X3.5335Y-8.0059
X3.5335Y-8.1476
X3.5591Y-6.3169
X3.5591Y-6.3524
X3.5591Y-6.4429
X3.5591Y-6.4862
X3.563Y-4.1319
X3.563Y-4.1752
X3.563Y-4.2776
X3.563Y-4.3287
X3.563Y-8.063
X3.5669Y-7.5335
X3.5787Y-7.0295
X3.5965Y-7.9083
X3.6142Y-6.3169
X3.6142Y-6.3524
X3.6142Y-6.3957
X3.6142Y-6.4429
X3.6142Y-6.4862
X3.6299Y-4.1319
X3.6299Y-4.1752
X3.6299Y-4.2264
X3.6299Y-4.2776
X3.6299Y-4.3287
X3.6319Y-7.5965
X3.6331Y-6.8778
X3.6378Y-2.5374
X3.6378Y-2.5925
X3.6496Y-6.9783
X3.6535Y-8.0354
X3.6594Y-7.9083
X3.7047Y-3.5886
X3.7087Y-6.372
X3.7165Y-2.5177
X3.7165Y-2.5531
X3.7343Y-6.8012
X3.7402Y-7.8287
X3.752Y-6.9941
X3.7539Y-7.5886
X3.7953Y-7.5551
X3.8071Y-7.8642
X3.811Y-4.8504
X3.811Y-5.1398
X3.8345Y-7.8436
X3.8543Y-7.8839
X3.8583Y-2.5925
X3.8642Y-6.7047
X3.8898Y-6.9902
X3.9035Y-7.8346
X3.9094Y-6.372
X3.9112Y-7.0116
X3.9238Y-6.7126
X3.9291Y-6.9941
X3.9331Y-7.6161
X3.935Y-6.7697
X3.9429Y-7.8346
X3.9567Y-6.75
X3.9742Y-6.7301
X3.9764Y-7.7933
X4.0118Y-3.5886
X4.0177Y-7.6575
X4.0197Y-3.2067
X4.0197Y-4.1319
X4.0197Y-4.1752
X4.0197Y-4.2264
X4.0197Y-4.2815
X4.0197Y-4.3366
X4.0197Y-6.3209
X4.0197Y-6.3602
X4.0197Y-6.4035
X4.0197Y-6.4469
X4.0197Y-6.4902
X4.0236Y-7.9429
X4.0354Y-7.7028
X4.063Y-6.8091
X4.0666Y-7.8837
X4.0768Y-7.0472
X4.0866Y-6.3602
X4.0866Y-6.4469
X4.0866Y-6.4902
X4.0945Y-4.1319
X4.0945Y-4.1752
X4.0945Y-4.2264
X4.0945Y-4.2815
X4.0945Y-4.3366
X4.0984Y-8.2933
X4.1004Y-7.5728
X4.1063Y-7.2067
X4.107Y-7.3033
X4.1104Y-7.1822
X4.1292Y-7.3144
X4.1337Y-7.1005
X4.1457Y-7.8661
X4.1468Y-8.2824
X4.1535Y-6.3209
X4.1535Y-6.3602
X4.1535Y-6.4035
X4.1535Y-6.4469
X4.1535Y-6.4902
X4.1654Y-4.1319
X4.1654Y-4.1752
X4.1654Y-4.2264
X4.1654Y-4.2815
X4.1654Y-4.3366
X4.2008Y-7.3327
X4.2059Y-6.6136
X4.2083Y-7.9034
X4.226Y-8.1377
X4.2472Y-7.25
X4.2472Y-7.4272
X4.2472Y-7.5453
X4.248Y-5.6929
X4.2854Y-7.0551
X4.2876Y-7.1656
X4.2894Y-7.4862
X4.3051Y-7.939
X4.3051Y-7.9764
X4.3071Y-3.2067
X4.3136Y-5.6949
X4.3287Y-8.1614
X4.3425Y-7.3642
X4.3459Y-5.3445
X4.3543Y-2.9193
X4.3561Y-5.3715
X4.3622Y-5.6437
X4.3681Y-8.0039
X4.378Y-7.9035
X4.378Y-7.7224
X4.4075Y-7.248
X4.4252Y-7.2146
X4.4411Y-4.2717
X4.4941Y-4.2303
X4.5315Y-4.1811
X4.5591Y-4.0335
X4.563Y-4.2303
X4.5965Y-4.1319
X4.6102Y-4.2303
X4.622Y-4.0059
X4.6457Y-2.9193
X4.6496Y-7.2146
X4.6634Y-4.3189
X4.6969Y-7.2106
X4.7224Y-4.2303
X4.7239Y-5.9941
X4.7283Y-5.6437
X4.7421Y-5.7933
X4.7579Y-3.9449
X4.8821Y-4.0925
X5.5433Y-4.0846
T3
X2.9561Y-2.3803
X2.9961Y-2.0803
X3.0361Y-2.3803
T4
X3.3866Y-1.5846
X3.3866Y-1.6846
X3.4866Y-1.5846
X3.4866Y-1.6846
X3.5866Y-1.5846
X3.5866Y-1.6846
X3.9646Y-2.6319
X3.9646Y-2.7319
X3.9646Y-2.8319
X3.7933Y-2.7323
X3.7933Y-2.8323
X3.6161Y-2.7307
X3.6161Y-2.8307
T5
X2.8961Y-2.0803
X2.8961Y-2.3053
X3.0961Y-2.0803
X3.0961Y-2.3053
T6
X3.3705Y-8.2557
X3.598Y-8.2557
T7
X2.9016Y-1.5177
X4.5591Y-8.3327
X2.315Y-8.3327
X4.2047Y-1.502
T8
X2.626Y-1.7579
X4.4764Y-1.7697
T2
G00X3.3142Y-8.2132
M15
G01X3.3142Y-8.2565
M16
G05
G00X3.3142Y-8.3876
M15
G01X3.3142Y-8.4112
M16
G05
G00X3.6543Y-8.2132
M15
G01X3.6543Y-8.2565
M16
G05
G00X3.6543Y-8.3876
M15
G01X3.6543Y-8.4112
M16
G05
T0
M30
