G04 #@! TF.GenerationSoftware,KiCad,Pcbnew,5.1.5-52549c5~84~ubuntu19.10.1*
G04 #@! TF.CreationDate,2020-03-20T23:31:44-07:00*
G04 #@! TF.ProjectId,hw3-jason_bourne,6877332d-6a61-4736-9f6e-5f626f75726e,rev?*
G04 #@! TF.SameCoordinates,Original*
G04 #@! TF.FileFunction,Legend,Bot*
G04 #@! TF.FilePolarity,Positive*
%FSLAX46Y46*%
G04 Gerber Fmt 4.6, Leading zero omitted, Abs format (unit mm)*
G04 Created by KiCad (PCBNEW 5.1.5-52549c5~84~ubuntu19.10.1) date 2020-03-20 23:31:44*
%MOMM*%
%LPD*%
G04 APERTURE LIST*
%ADD10C,0.300000*%
%ADD11C,0.070000*%
%ADD12C,0.010000*%
%ADD13C,0.100000*%
%ADD14C,0.120000*%
%ADD15C,0.150000*%
G04 APERTURE END LIST*
D10*
X104471428Y-168392857D02*
X103328571Y-168392857D01*
X77371428Y-168192857D02*
X76228571Y-168192857D01*
X90971428Y-167092857D02*
X89828571Y-167092857D01*
X90400000Y-167854761D02*
X90400000Y-166330952D01*
X77471428Y-100892857D02*
X76328571Y-100892857D01*
X76900000Y-101654761D02*
X76900000Y-100130952D01*
X104571428Y-100892857D02*
X103428571Y-100892857D01*
X104000000Y-101654761D02*
X104000000Y-100130952D01*
X90971428Y-100792857D02*
X89828571Y-100792857D01*
D11*
X98669675Y-47346666D02*
X98193485Y-47346666D01*
X98800627Y-47632380D02*
X98342294Y-46632380D01*
X98133961Y-47632380D01*
X97800627Y-47632380D02*
X97675627Y-46632380D01*
X97229199Y-47632380D01*
X97104199Y-46632380D01*
X96753008Y-47632380D02*
X96628008Y-46632380D01*
X96389913Y-46632380D01*
X96253008Y-46680000D01*
X96169675Y-46775238D01*
X96133961Y-46870476D01*
X96110151Y-47060952D01*
X96128008Y-47203809D01*
X96199437Y-47394285D01*
X96258961Y-47489523D01*
X96366104Y-47584761D01*
X96514913Y-47632380D01*
X96753008Y-47632380D01*
X95741104Y-47537142D02*
X95699437Y-47584761D01*
X95753008Y-47632380D01*
X95794675Y-47584761D01*
X95741104Y-47537142D01*
X95753008Y-47632380D01*
X95705389Y-47251428D02*
X95681580Y-46680000D01*
X95628008Y-46632380D01*
X95586342Y-46680000D01*
X95705389Y-47251428D01*
X95628008Y-46632380D01*
X95247056Y-46632380D02*
X94705389Y-47632380D01*
X94580389Y-46632380D02*
X95372056Y-47632380D01*
X94008961Y-46632380D02*
X93818485Y-46632380D01*
X93729199Y-46680000D01*
X93645866Y-46775238D01*
X93622056Y-46965714D01*
X93663723Y-47299047D01*
X93735151Y-47489523D01*
X93842294Y-47584761D01*
X93943485Y-47632380D01*
X94133961Y-47632380D01*
X94223247Y-47584761D01*
X94306580Y-47489523D01*
X94330389Y-47299047D01*
X94288723Y-46965714D01*
X94217294Y-46775238D01*
X94110151Y-46680000D01*
X94008961Y-46632380D01*
X92705389Y-47632380D02*
X92979199Y-47156190D01*
X93276818Y-47632380D02*
X93151818Y-46632380D01*
X92770866Y-46632380D01*
X92681580Y-46680000D01*
X92639913Y-46727619D01*
X92604199Y-46822857D01*
X92622056Y-46965714D01*
X92681580Y-47060952D01*
X92735151Y-47108571D01*
X92836342Y-47156190D01*
X93217294Y-47156190D01*
X91514913Y-47632380D02*
X91389913Y-46632380D01*
X91151818Y-46632380D01*
X91014913Y-46680000D01*
X90931580Y-46775238D01*
X90895866Y-46870476D01*
X90872056Y-47060952D01*
X90889913Y-47203809D01*
X90961342Y-47394285D01*
X91020866Y-47489523D01*
X91128008Y-47584761D01*
X91276818Y-47632380D01*
X91514913Y-47632380D01*
X89931580Y-47537142D02*
X89985151Y-47584761D01*
X90133961Y-47632380D01*
X90229199Y-47632380D01*
X90366104Y-47584761D01*
X90449437Y-47489523D01*
X90485151Y-47394285D01*
X90508961Y-47203809D01*
X90491104Y-47060952D01*
X90419675Y-46870476D01*
X90360151Y-46775238D01*
X90253008Y-46680000D01*
X90104199Y-46632380D01*
X90008961Y-46632380D01*
X89872056Y-46680000D01*
X89830389Y-46727619D01*
X89449437Y-46727619D02*
X89395866Y-46680000D01*
X89294675Y-46632380D01*
X89056580Y-46632380D01*
X88967294Y-46680000D01*
X88925627Y-46727619D01*
X88889913Y-46822857D01*
X88901818Y-46918095D01*
X88967294Y-47060952D01*
X89610151Y-47632380D01*
X88991104Y-47632380D01*
X88348247Y-47060952D02*
X88437532Y-47013333D01*
X88479199Y-46965714D01*
X88514913Y-46870476D01*
X88508961Y-46822857D01*
X88449437Y-46727619D01*
X88395866Y-46680000D01*
X88294675Y-46632380D01*
X88104199Y-46632380D01*
X88014913Y-46680000D01*
X87973247Y-46727619D01*
X87937532Y-46822857D01*
X87943485Y-46870476D01*
X88003008Y-46965714D01*
X88056580Y-47013333D01*
X88157770Y-47060952D01*
X88348247Y-47060952D01*
X88449437Y-47108571D01*
X88503008Y-47156190D01*
X88562532Y-47251428D01*
X88586342Y-47441904D01*
X88550627Y-47537142D01*
X88508961Y-47584761D01*
X88419675Y-47632380D01*
X88229199Y-47632380D01*
X88128008Y-47584761D01*
X88074437Y-47537142D01*
X88014913Y-47441904D01*
X87991104Y-47251428D01*
X88026818Y-47156190D01*
X88068485Y-47108571D01*
X88157770Y-47060952D01*
X86848247Y-47632380D02*
X86723247Y-46632380D01*
X86342294Y-46632380D01*
X86253008Y-46680000D01*
X86211342Y-46727619D01*
X86175627Y-46822857D01*
X86193485Y-46965714D01*
X86253008Y-47060952D01*
X86306580Y-47108571D01*
X86407770Y-47156190D01*
X86788723Y-47156190D01*
X85848247Y-47632380D02*
X85764913Y-46965714D01*
X85788723Y-47156190D02*
X85729199Y-47060952D01*
X85675627Y-47013333D01*
X85574437Y-46965714D01*
X85479199Y-46965714D01*
X85086342Y-47632380D02*
X85175627Y-47584761D01*
X85217294Y-47537142D01*
X85253008Y-47441904D01*
X85217294Y-47156190D01*
X85157770Y-47060952D01*
X85104199Y-47013333D01*
X85003008Y-46965714D01*
X84860151Y-46965714D01*
X84770866Y-47013333D01*
X84729199Y-47060952D01*
X84693485Y-47156190D01*
X84729199Y-47441904D01*
X84788723Y-47537142D01*
X84842294Y-47584761D01*
X84943485Y-47632380D01*
X85086342Y-47632380D01*
X84383961Y-46965714D02*
X84003008Y-46965714D01*
X84199437Y-46632380D02*
X84306580Y-47489523D01*
X84270866Y-47584761D01*
X84181580Y-47632380D01*
X84086342Y-47632380D01*
X83610151Y-47632380D02*
X83699437Y-47584761D01*
X83741104Y-47537142D01*
X83776818Y-47441904D01*
X83741104Y-47156190D01*
X83681580Y-47060952D01*
X83628008Y-47013333D01*
X83526818Y-46965714D01*
X83383961Y-46965714D01*
X83294675Y-47013333D01*
X83253008Y-47060952D01*
X83217294Y-47156190D01*
X83253008Y-47441904D01*
X83312532Y-47537142D01*
X83366104Y-47584761D01*
X83467294Y-47632380D01*
X83610151Y-47632380D01*
X82907770Y-46965714D02*
X82526818Y-46965714D01*
X82723247Y-46632380D02*
X82830389Y-47489523D01*
X82794675Y-47584761D01*
X82705389Y-47632380D01*
X82610151Y-47632380D01*
X82288723Y-46965714D02*
X82133961Y-47632380D01*
X81812532Y-46965714D02*
X82133961Y-47632380D01*
X82258961Y-47870476D01*
X82312532Y-47918095D01*
X82413723Y-47965714D01*
X81431580Y-46965714D02*
X81556580Y-47965714D01*
X81437532Y-47013333D02*
X81336342Y-46965714D01*
X81145866Y-46965714D01*
X81056580Y-47013333D01*
X81014913Y-47060952D01*
X80979199Y-47156190D01*
X81014913Y-47441904D01*
X81074437Y-47537142D01*
X81128008Y-47584761D01*
X81229199Y-47632380D01*
X81419675Y-47632380D01*
X81508961Y-47584761D01*
X80223247Y-47584761D02*
X80324437Y-47632380D01*
X80514913Y-47632380D01*
X80604199Y-47584761D01*
X80639913Y-47489523D01*
X80592294Y-47108571D01*
X80532770Y-47013333D01*
X80431580Y-46965714D01*
X80241104Y-46965714D01*
X80151818Y-47013333D01*
X80116104Y-47108571D01*
X80128008Y-47203809D01*
X80616104Y-47299047D01*
X97038723Y-49202380D02*
X96913723Y-48202380D01*
X96973247Y-48678571D02*
X96401818Y-48678571D01*
X96467294Y-49202380D02*
X96342294Y-48202380D01*
X95961342Y-48202380D02*
X95848247Y-49202380D01*
X95568485Y-48488095D01*
X95467294Y-49202380D01*
X95104199Y-48202380D01*
X94818485Y-48202380D02*
X94199437Y-48202380D01*
X94580389Y-48583333D01*
X94437532Y-48583333D01*
X94348247Y-48630952D01*
X94306580Y-48678571D01*
X94270866Y-48773809D01*
X94300627Y-49011904D01*
X94360151Y-49107142D01*
X94413723Y-49154761D01*
X94514913Y-49202380D01*
X94800627Y-49202380D01*
X94889913Y-49154761D01*
X94931580Y-49107142D01*
X93056580Y-48202380D02*
X93080389Y-48392857D01*
X92675627Y-48202380D02*
X92699437Y-48392857D01*
X91961342Y-48202380D02*
X92050627Y-48916666D01*
X92116104Y-49059523D01*
X92223247Y-49154761D01*
X92372056Y-49202380D01*
X92467294Y-49202380D01*
X91181580Y-49202380D02*
X91116104Y-48678571D01*
X91151818Y-48583333D01*
X91241104Y-48535714D01*
X91431580Y-48535714D01*
X91532770Y-48583333D01*
X91175627Y-49154761D02*
X91276818Y-49202380D01*
X91514913Y-49202380D01*
X91604199Y-49154761D01*
X91639913Y-49059523D01*
X91628008Y-48964285D01*
X91568485Y-48869047D01*
X91467294Y-48821428D01*
X91229199Y-48821428D01*
X91128008Y-48773809D01*
X90747056Y-49154761D02*
X90657770Y-49202380D01*
X90467294Y-49202380D01*
X90366104Y-49154761D01*
X90306580Y-49059523D01*
X90300627Y-49011904D01*
X90336342Y-48916666D01*
X90425627Y-48869047D01*
X90568485Y-48869047D01*
X90657770Y-48821428D01*
X90693485Y-48726190D01*
X90687532Y-48678571D01*
X90628008Y-48583333D01*
X90526818Y-48535714D01*
X90383961Y-48535714D01*
X90294675Y-48583333D01*
X89753008Y-49202380D02*
X89842294Y-49154761D01*
X89883961Y-49107142D01*
X89919675Y-49011904D01*
X89883961Y-48726190D01*
X89824437Y-48630952D01*
X89770866Y-48583333D01*
X89669675Y-48535714D01*
X89526818Y-48535714D01*
X89437532Y-48583333D01*
X89395866Y-48630952D01*
X89360151Y-48726190D01*
X89395866Y-49011904D01*
X89455389Y-49107142D01*
X89508961Y-49154761D01*
X89610151Y-49202380D01*
X89753008Y-49202380D01*
X88907770Y-48535714D02*
X88991104Y-49202380D01*
X88919675Y-48630952D02*
X88866104Y-48583333D01*
X88764913Y-48535714D01*
X88622056Y-48535714D01*
X88532770Y-48583333D01*
X88497056Y-48678571D01*
X88562532Y-49202380D01*
X86925627Y-48678571D02*
X86788723Y-48726190D01*
X86747056Y-48773809D01*
X86711342Y-48869047D01*
X86729199Y-49011904D01*
X86788723Y-49107142D01*
X86842294Y-49154761D01*
X86943485Y-49202380D01*
X87324437Y-49202380D01*
X87199437Y-48202380D01*
X86866104Y-48202380D01*
X86776818Y-48250000D01*
X86735151Y-48297619D01*
X86699437Y-48392857D01*
X86711342Y-48488095D01*
X86770866Y-48583333D01*
X86824437Y-48630952D01*
X86925627Y-48678571D01*
X87258961Y-48678571D01*
X86181580Y-49202380D02*
X86270866Y-49154761D01*
X86312532Y-49107142D01*
X86348247Y-49011904D01*
X86312532Y-48726190D01*
X86253008Y-48630952D01*
X86199437Y-48583333D01*
X86098247Y-48535714D01*
X85955389Y-48535714D01*
X85866104Y-48583333D01*
X85824437Y-48630952D01*
X85788723Y-48726190D01*
X85824437Y-49011904D01*
X85883961Y-49107142D01*
X85937532Y-49154761D01*
X86038723Y-49202380D01*
X86181580Y-49202380D01*
X84907770Y-48535714D02*
X84991104Y-49202380D01*
X85336342Y-48535714D02*
X85401818Y-49059523D01*
X85366104Y-49154761D01*
X85276818Y-49202380D01*
X85133961Y-49202380D01*
X85032770Y-49154761D01*
X84979199Y-49107142D01*
X84514913Y-49202380D02*
X84431580Y-48535714D01*
X84455389Y-48726190D02*
X84395866Y-48630952D01*
X84342294Y-48583333D01*
X84241104Y-48535714D01*
X84145866Y-48535714D01*
X83812532Y-48535714D02*
X83895866Y-49202380D01*
X83824437Y-48630952D02*
X83770866Y-48583333D01*
X83669675Y-48535714D01*
X83526818Y-48535714D01*
X83437532Y-48583333D01*
X83401818Y-48678571D01*
X83467294Y-49202380D01*
X82604199Y-49154761D02*
X82705389Y-49202380D01*
X82895866Y-49202380D01*
X82985151Y-49154761D01*
X83020866Y-49059523D01*
X82973247Y-48678571D01*
X82913723Y-48583333D01*
X82812532Y-48535714D01*
X82622056Y-48535714D01*
X82532770Y-48583333D01*
X82497056Y-48678571D01*
X82508961Y-48773809D01*
X82997056Y-48869047D01*
X82056580Y-48202380D02*
X82080389Y-48392857D01*
X81675627Y-48202380D02*
X81699437Y-48392857D01*
X93556580Y-49772380D02*
X92937532Y-49772380D01*
X93318485Y-50153333D01*
X93175627Y-50153333D01*
X93086342Y-50200952D01*
X93044675Y-50248571D01*
X93008961Y-50343809D01*
X93038723Y-50581904D01*
X93098247Y-50677142D01*
X93151818Y-50724761D01*
X93253008Y-50772380D01*
X93538723Y-50772380D01*
X93628008Y-50724761D01*
X93669675Y-50677142D01*
X91788723Y-49724761D02*
X92806580Y-51010476D01*
X91520866Y-49867619D02*
X91467294Y-49820000D01*
X91366104Y-49772380D01*
X91128008Y-49772380D01*
X91038723Y-49820000D01*
X90997056Y-49867619D01*
X90961342Y-49962857D01*
X90973247Y-50058095D01*
X91038723Y-50200952D01*
X91681580Y-50772380D01*
X91062532Y-50772380D01*
X90318485Y-49772380D02*
X90223247Y-49772380D01*
X90133961Y-49820000D01*
X90092294Y-49867619D01*
X90056580Y-49962857D01*
X90032770Y-50153333D01*
X90062532Y-50391428D01*
X90133961Y-50581904D01*
X90193485Y-50677142D01*
X90247056Y-50724761D01*
X90348247Y-50772380D01*
X90443485Y-50772380D01*
X90532770Y-50724761D01*
X90574437Y-50677142D01*
X90610151Y-50581904D01*
X90633961Y-50391428D01*
X90604199Y-50153333D01*
X90532770Y-49962857D01*
X90473247Y-49867619D01*
X90419675Y-49820000D01*
X90318485Y-49772380D01*
X88836342Y-49724761D02*
X89854199Y-51010476D01*
X88568485Y-49867619D02*
X88514913Y-49820000D01*
X88413723Y-49772380D01*
X88175627Y-49772380D01*
X88086342Y-49820000D01*
X88044675Y-49867619D01*
X88008961Y-49962857D01*
X88020866Y-50058095D01*
X88086342Y-50200952D01*
X88729199Y-50772380D01*
X88110151Y-50772380D01*
X87366104Y-49772380D02*
X87270866Y-49772380D01*
X87181580Y-49820000D01*
X87139913Y-49867619D01*
X87104199Y-49962857D01*
X87080389Y-50153333D01*
X87110151Y-50391428D01*
X87181580Y-50581904D01*
X87241104Y-50677142D01*
X87294675Y-50724761D01*
X87395866Y-50772380D01*
X87491104Y-50772380D01*
X87580389Y-50724761D01*
X87622056Y-50677142D01*
X87657770Y-50581904D01*
X87681580Y-50391428D01*
X87651818Y-50153333D01*
X87580389Y-49962857D01*
X87520866Y-49867619D01*
X87467294Y-49820000D01*
X87366104Y-49772380D01*
X86663723Y-49867619D02*
X86610151Y-49820000D01*
X86508961Y-49772380D01*
X86270866Y-49772380D01*
X86181580Y-49820000D01*
X86139913Y-49867619D01*
X86104199Y-49962857D01*
X86116104Y-50058095D01*
X86181580Y-50200952D01*
X86824437Y-50772380D01*
X86205389Y-50772380D01*
X85461342Y-49772380D02*
X85366104Y-49772380D01*
X85276818Y-49820000D01*
X85235151Y-49867619D01*
X85199437Y-49962857D01*
X85175627Y-50153333D01*
X85205389Y-50391428D01*
X85276818Y-50581904D01*
X85336342Y-50677142D01*
X85389913Y-50724761D01*
X85491104Y-50772380D01*
X85586342Y-50772380D01*
X85675627Y-50724761D01*
X85717294Y-50677142D01*
X85753008Y-50581904D01*
X85776818Y-50391428D01*
X85747056Y-50153333D01*
X85675627Y-49962857D01*
X85616104Y-49867619D01*
X85562532Y-49820000D01*
X85461342Y-49772380D01*
D12*
G36*
X135159990Y-80431519D02*
G01*
X135161996Y-80500560D01*
X135148686Y-80668886D01*
X135122554Y-80910039D01*
X135091828Y-81154750D01*
X135043648Y-81614004D01*
X135005594Y-82172957D01*
X134977980Y-82804689D01*
X134961117Y-83482277D01*
X134955318Y-84178802D01*
X134960895Y-84867341D01*
X134978159Y-85520975D01*
X135007423Y-86112781D01*
X135030721Y-86425250D01*
X135230794Y-88246699D01*
X135514785Y-90083221D01*
X135877280Y-91911712D01*
X136312868Y-93709069D01*
X136816134Y-95452188D01*
X137381665Y-97117968D01*
X137773905Y-98133110D01*
X137900616Y-98442775D01*
X138013127Y-98713857D01*
X138101547Y-98922812D01*
X138155986Y-99046097D01*
X138165438Y-99065111D01*
X138181444Y-99034686D01*
X138195309Y-98896659D01*
X138205971Y-98670422D01*
X138212367Y-98375368D01*
X138213697Y-98184001D01*
X138222740Y-97672118D01*
X138252241Y-97252687D01*
X138309215Y-96891872D01*
X138400673Y-96555840D01*
X138533631Y-96210755D01*
X138694421Y-95864778D01*
X139052227Y-95277448D01*
X139514053Y-94762550D01*
X140079001Y-94320951D01*
X140598063Y-94024271D01*
X140986377Y-93848346D01*
X141402529Y-93687407D01*
X141785581Y-93564589D01*
X141863000Y-93544064D01*
X142184677Y-93471147D01*
X142525164Y-93407820D01*
X142871250Y-93354716D01*
X143209724Y-93312469D01*
X143527378Y-93281714D01*
X143811000Y-93263084D01*
X144047381Y-93257214D01*
X144223311Y-93264739D01*
X144325579Y-93286291D01*
X144340975Y-93322506D01*
X144256289Y-93374017D01*
X144069625Y-93438136D01*
X143556441Y-93645189D01*
X143040989Y-93954689D01*
X142549417Y-94345306D01*
X142107877Y-94795708D01*
X141742519Y-95284564D01*
X141679050Y-95388192D01*
X141434258Y-95866148D01*
X141205510Y-96431339D01*
X141007163Y-97044011D01*
X140853573Y-97664410D01*
X140849034Y-97686518D01*
X140805602Y-97934575D01*
X140761980Y-98244736D01*
X140720194Y-98593978D01*
X140682275Y-98959278D01*
X140650250Y-99317615D01*
X140626151Y-99645965D01*
X140612005Y-99921306D01*
X140609841Y-100120616D01*
X140621688Y-100220872D01*
X140625192Y-100226359D01*
X140697603Y-100254657D01*
X140869364Y-100305693D01*
X141116297Y-100372707D01*
X141414227Y-100448941D01*
X141477412Y-100464603D01*
X142299594Y-100719211D01*
X143072559Y-101061089D01*
X143785226Y-101480884D01*
X144426513Y-101969242D01*
X144985340Y-102516809D01*
X145450626Y-103114233D01*
X145811290Y-103752159D01*
X146021673Y-104300500D01*
X146074016Y-104529967D01*
X146119403Y-104831228D01*
X146149972Y-105149079D01*
X146154940Y-105236399D01*
X146178673Y-105557849D01*
X146217393Y-105887465D01*
X146263732Y-106165308D01*
X146275879Y-106220649D01*
X146364247Y-106738222D01*
X146368597Y-107176426D01*
X146290876Y-107530687D01*
X146133030Y-107796429D01*
X145897006Y-107969074D01*
X145584751Y-108044048D01*
X145498892Y-108047000D01*
X145301713Y-108042564D01*
X145206408Y-108022984D01*
X145187981Y-107978845D01*
X145203795Y-107935875D01*
X145258068Y-107683919D01*
X145221103Y-107379091D01*
X145098138Y-107051110D01*
X145024337Y-106917273D01*
X144891805Y-106717417D01*
X144758280Y-106573891D01*
X144583774Y-106451700D01*
X144348870Y-106326142D01*
X144043117Y-106193978D01*
X143668280Y-106063817D01*
X143261517Y-105945546D01*
X142859986Y-105849050D01*
X142500846Y-105784216D01*
X142224494Y-105760925D01*
X141867645Y-105787325D01*
X141495680Y-105872154D01*
X141076230Y-106024123D01*
X140807704Y-106142182D01*
X140080160Y-106539573D01*
X139452165Y-107015451D01*
X138922292Y-107571550D01*
X138489113Y-108209598D01*
X138151201Y-108931328D01*
X137934040Y-109626897D01*
X137839068Y-110091763D01*
X137765943Y-110620601D01*
X137717603Y-111173089D01*
X137696984Y-111708902D01*
X137707023Y-112187719D01*
X137729517Y-112435053D01*
X137896486Y-113276898D01*
X138175690Y-114063738D01*
X138569692Y-114800639D01*
X139081053Y-115492667D01*
X139508122Y-115951046D01*
X139698547Y-116143140D01*
X139849040Y-116303830D01*
X139940031Y-116411708D01*
X139958000Y-116443171D01*
X139915383Y-116479918D01*
X139781159Y-116481343D01*
X139545761Y-116446523D01*
X139199626Y-116374535D01*
X139164250Y-116366550D01*
X138158652Y-116078614D01*
X137227116Y-115687996D01*
X136370323Y-115195049D01*
X135588953Y-114600132D01*
X135319237Y-114354372D01*
X134733639Y-113739969D01*
X134215547Y-113075365D01*
X133754355Y-112343156D01*
X133339458Y-111525942D01*
X132960248Y-110606320D01*
X132850329Y-110303528D01*
X132762019Y-110056379D01*
X132689599Y-109859516D01*
X132643154Y-109740061D01*
X132632188Y-109717021D01*
X132566343Y-109719981D01*
X132406992Y-109743245D01*
X132185146Y-109782133D01*
X132121615Y-109794118D01*
X131788493Y-109839520D01*
X131364423Y-109869911D01*
X130884607Y-109884939D01*
X130384249Y-109884253D01*
X129898552Y-109867502D01*
X129462718Y-109834336D01*
X129351834Y-109821740D01*
X129047327Y-109777748D01*
X128682491Y-109715163D01*
X128277287Y-109638434D01*
X127851679Y-109552011D01*
X127425632Y-109460344D01*
X127019109Y-109367883D01*
X126652073Y-109279076D01*
X126344488Y-109198375D01*
X126116318Y-109130229D01*
X125987527Y-109079088D01*
X125971950Y-109068383D01*
X125997482Y-109012922D01*
X126104655Y-108898676D01*
X126274589Y-108744470D01*
X126410622Y-108631025D01*
X126605165Y-108465745D01*
X126740202Y-108335111D01*
X126800409Y-108255007D01*
X126790347Y-108237500D01*
X126696280Y-108243782D01*
X126497176Y-108261288D01*
X126214306Y-108288002D01*
X125868942Y-108321911D01*
X125482354Y-108361000D01*
X125437656Y-108365589D01*
X124191711Y-108493678D01*
X123676980Y-108296250D01*
X123213869Y-108114624D01*
X122821735Y-107952734D01*
X122510792Y-107815261D01*
X122291256Y-107706885D01*
X122173343Y-107632286D01*
X122158512Y-107600535D01*
X122224392Y-107576745D01*
X122398865Y-107527374D01*
X122683305Y-107452079D01*
X123079083Y-107350521D01*
X123587574Y-107222360D01*
X124210149Y-107067254D01*
X124948181Y-106884863D01*
X125803043Y-106674846D01*
X126776108Y-106436863D01*
X127868748Y-106170573D01*
X129082336Y-105875636D01*
X130297304Y-105581009D01*
X132606358Y-105021578D01*
X132935574Y-104391164D01*
X133005994Y-104258068D01*
X144149936Y-104258068D01*
X144194641Y-104576864D01*
X144323819Y-104808496D01*
X144467751Y-104917437D01*
X144604423Y-104963451D01*
X144772527Y-104991753D01*
X144927517Y-104998796D01*
X145024844Y-104981031D01*
X145038000Y-104962851D01*
X145003228Y-104899647D01*
X144909004Y-104756158D01*
X144770462Y-104554891D01*
X144632138Y-104359354D01*
X144440100Y-104098617D01*
X144306302Y-103942757D01*
X144220590Y-103889641D01*
X144172811Y-103937136D01*
X144152809Y-104083110D01*
X144149936Y-104258068D01*
X133005994Y-104258068D01*
X133085253Y-104108270D01*
X133229311Y-103842476D01*
X133348463Y-103629035D01*
X133407943Y-103527666D01*
X133551095Y-103294583D01*
X132764582Y-102318662D01*
X132464738Y-101937325D01*
X132142095Y-101511324D01*
X131825290Y-101079477D01*
X131542958Y-100680602D01*
X131390851Y-100456435D01*
X131159130Y-100088693D01*
X130902391Y-99650974D01*
X130635269Y-99171040D01*
X130372399Y-98676650D01*
X130128414Y-98195565D01*
X129917950Y-97755545D01*
X129755642Y-97384351D01*
X129709919Y-97267875D01*
X129651595Y-97102761D01*
X129642195Y-97023890D01*
X129683481Y-96999587D01*
X129724922Y-96998000D01*
X129851685Y-97016246D01*
X130043429Y-97062661D01*
X130153032Y-97094585D01*
X130415952Y-97162332D01*
X130753799Y-97230212D01*
X131124361Y-97291678D01*
X131485426Y-97340182D01*
X131794784Y-97369179D01*
X131957000Y-97374377D01*
X132242750Y-97370504D01*
X131988750Y-97289963D01*
X131409211Y-97040832D01*
X130853241Y-96670335D01*
X130324903Y-96182596D01*
X129828258Y-95581744D01*
X129367372Y-94871903D01*
X129079790Y-94335754D01*
X128813750Y-93800758D01*
X128818548Y-92494254D01*
X128823777Y-91968531D01*
X128836642Y-91537348D01*
X128859341Y-91168362D01*
X128894073Y-90829229D01*
X128943034Y-90487606D01*
X128963209Y-90365755D01*
X129016341Y-90059429D01*
X129062862Y-89802266D01*
X129098326Y-89618059D01*
X129118285Y-89530597D01*
X129120020Y-89526812D01*
X129174353Y-89555204D01*
X129307227Y-89645306D01*
X129496357Y-89781611D01*
X129642109Y-89890055D01*
X130318371Y-90361309D01*
X130988800Y-90755642D01*
X131632489Y-91061715D01*
X132133781Y-91241293D01*
X132460405Y-91338290D01*
X131937568Y-90691520D01*
X131375122Y-89947476D01*
X130916061Y-89230610D01*
X130547005Y-88518140D01*
X130287915Y-87881858D01*
X130165077Y-87524551D01*
X130092712Y-87248906D01*
X130073189Y-87019051D01*
X130108872Y-86799112D01*
X130202130Y-86553216D01*
X130355329Y-86245488D01*
X130401672Y-86157708D01*
X130753677Y-85534209D01*
X131168669Y-84865057D01*
X131618455Y-84193000D01*
X132074840Y-83560790D01*
X132340012Y-83218500D01*
X132570865Y-82940994D01*
X132843377Y-82631852D01*
X133145271Y-82303205D01*
X133464273Y-81967185D01*
X133788106Y-81635922D01*
X134104497Y-81321549D01*
X134401168Y-81036198D01*
X134665845Y-80792000D01*
X134886253Y-80601087D01*
X135050117Y-80475590D01*
X135145161Y-80427641D01*
X135159990Y-80431519D01*
G37*
X135159990Y-80431519D02*
X135161996Y-80500560D01*
X135148686Y-80668886D01*
X135122554Y-80910039D01*
X135091828Y-81154750D01*
X135043648Y-81614004D01*
X135005594Y-82172957D01*
X134977980Y-82804689D01*
X134961117Y-83482277D01*
X134955318Y-84178802D01*
X134960895Y-84867341D01*
X134978159Y-85520975D01*
X135007423Y-86112781D01*
X135030721Y-86425250D01*
X135230794Y-88246699D01*
X135514785Y-90083221D01*
X135877280Y-91911712D01*
X136312868Y-93709069D01*
X136816134Y-95452188D01*
X137381665Y-97117968D01*
X137773905Y-98133110D01*
X137900616Y-98442775D01*
X138013127Y-98713857D01*
X138101547Y-98922812D01*
X138155986Y-99046097D01*
X138165438Y-99065111D01*
X138181444Y-99034686D01*
X138195309Y-98896659D01*
X138205971Y-98670422D01*
X138212367Y-98375368D01*
X138213697Y-98184001D01*
X138222740Y-97672118D01*
X138252241Y-97252687D01*
X138309215Y-96891872D01*
X138400673Y-96555840D01*
X138533631Y-96210755D01*
X138694421Y-95864778D01*
X139052227Y-95277448D01*
X139514053Y-94762550D01*
X140079001Y-94320951D01*
X140598063Y-94024271D01*
X140986377Y-93848346D01*
X141402529Y-93687407D01*
X141785581Y-93564589D01*
X141863000Y-93544064D01*
X142184677Y-93471147D01*
X142525164Y-93407820D01*
X142871250Y-93354716D01*
X143209724Y-93312469D01*
X143527378Y-93281714D01*
X143811000Y-93263084D01*
X144047381Y-93257214D01*
X144223311Y-93264739D01*
X144325579Y-93286291D01*
X144340975Y-93322506D01*
X144256289Y-93374017D01*
X144069625Y-93438136D01*
X143556441Y-93645189D01*
X143040989Y-93954689D01*
X142549417Y-94345306D01*
X142107877Y-94795708D01*
X141742519Y-95284564D01*
X141679050Y-95388192D01*
X141434258Y-95866148D01*
X141205510Y-96431339D01*
X141007163Y-97044011D01*
X140853573Y-97664410D01*
X140849034Y-97686518D01*
X140805602Y-97934575D01*
X140761980Y-98244736D01*
X140720194Y-98593978D01*
X140682275Y-98959278D01*
X140650250Y-99317615D01*
X140626151Y-99645965D01*
X140612005Y-99921306D01*
X140609841Y-100120616D01*
X140621688Y-100220872D01*
X140625192Y-100226359D01*
X140697603Y-100254657D01*
X140869364Y-100305693D01*
X141116297Y-100372707D01*
X141414227Y-100448941D01*
X141477412Y-100464603D01*
X142299594Y-100719211D01*
X143072559Y-101061089D01*
X143785226Y-101480884D01*
X144426513Y-101969242D01*
X144985340Y-102516809D01*
X145450626Y-103114233D01*
X145811290Y-103752159D01*
X146021673Y-104300500D01*
X146074016Y-104529967D01*
X146119403Y-104831228D01*
X146149972Y-105149079D01*
X146154940Y-105236399D01*
X146178673Y-105557849D01*
X146217393Y-105887465D01*
X146263732Y-106165308D01*
X146275879Y-106220649D01*
X146364247Y-106738222D01*
X146368597Y-107176426D01*
X146290876Y-107530687D01*
X146133030Y-107796429D01*
X145897006Y-107969074D01*
X145584751Y-108044048D01*
X145498892Y-108047000D01*
X145301713Y-108042564D01*
X145206408Y-108022984D01*
X145187981Y-107978845D01*
X145203795Y-107935875D01*
X145258068Y-107683919D01*
X145221103Y-107379091D01*
X145098138Y-107051110D01*
X145024337Y-106917273D01*
X144891805Y-106717417D01*
X144758280Y-106573891D01*
X144583774Y-106451700D01*
X144348870Y-106326142D01*
X144043117Y-106193978D01*
X143668280Y-106063817D01*
X143261517Y-105945546D01*
X142859986Y-105849050D01*
X142500846Y-105784216D01*
X142224494Y-105760925D01*
X141867645Y-105787325D01*
X141495680Y-105872154D01*
X141076230Y-106024123D01*
X140807704Y-106142182D01*
X140080160Y-106539573D01*
X139452165Y-107015451D01*
X138922292Y-107571550D01*
X138489113Y-108209598D01*
X138151201Y-108931328D01*
X137934040Y-109626897D01*
X137839068Y-110091763D01*
X137765943Y-110620601D01*
X137717603Y-111173089D01*
X137696984Y-111708902D01*
X137707023Y-112187719D01*
X137729517Y-112435053D01*
X137896486Y-113276898D01*
X138175690Y-114063738D01*
X138569692Y-114800639D01*
X139081053Y-115492667D01*
X139508122Y-115951046D01*
X139698547Y-116143140D01*
X139849040Y-116303830D01*
X139940031Y-116411708D01*
X139958000Y-116443171D01*
X139915383Y-116479918D01*
X139781159Y-116481343D01*
X139545761Y-116446523D01*
X139199626Y-116374535D01*
X139164250Y-116366550D01*
X138158652Y-116078614D01*
X137227116Y-115687996D01*
X136370323Y-115195049D01*
X135588953Y-114600132D01*
X135319237Y-114354372D01*
X134733639Y-113739969D01*
X134215547Y-113075365D01*
X133754355Y-112343156D01*
X133339458Y-111525942D01*
X132960248Y-110606320D01*
X132850329Y-110303528D01*
X132762019Y-110056379D01*
X132689599Y-109859516D01*
X132643154Y-109740061D01*
X132632188Y-109717021D01*
X132566343Y-109719981D01*
X132406992Y-109743245D01*
X132185146Y-109782133D01*
X132121615Y-109794118D01*
X131788493Y-109839520D01*
X131364423Y-109869911D01*
X130884607Y-109884939D01*
X130384249Y-109884253D01*
X129898552Y-109867502D01*
X129462718Y-109834336D01*
X129351834Y-109821740D01*
X129047327Y-109777748D01*
X128682491Y-109715163D01*
X128277287Y-109638434D01*
X127851679Y-109552011D01*
X127425632Y-109460344D01*
X127019109Y-109367883D01*
X126652073Y-109279076D01*
X126344488Y-109198375D01*
X126116318Y-109130229D01*
X125987527Y-109079088D01*
X125971950Y-109068383D01*
X125997482Y-109012922D01*
X126104655Y-108898676D01*
X126274589Y-108744470D01*
X126410622Y-108631025D01*
X126605165Y-108465745D01*
X126740202Y-108335111D01*
X126800409Y-108255007D01*
X126790347Y-108237500D01*
X126696280Y-108243782D01*
X126497176Y-108261288D01*
X126214306Y-108288002D01*
X125868942Y-108321911D01*
X125482354Y-108361000D01*
X125437656Y-108365589D01*
X124191711Y-108493678D01*
X123676980Y-108296250D01*
X123213869Y-108114624D01*
X122821735Y-107952734D01*
X122510792Y-107815261D01*
X122291256Y-107706885D01*
X122173343Y-107632286D01*
X122158512Y-107600535D01*
X122224392Y-107576745D01*
X122398865Y-107527374D01*
X122683305Y-107452079D01*
X123079083Y-107350521D01*
X123587574Y-107222360D01*
X124210149Y-107067254D01*
X124948181Y-106884863D01*
X125803043Y-106674846D01*
X126776108Y-106436863D01*
X127868748Y-106170573D01*
X129082336Y-105875636D01*
X130297304Y-105581009D01*
X132606358Y-105021578D01*
X132935574Y-104391164D01*
X133005994Y-104258068D01*
X144149936Y-104258068D01*
X144194641Y-104576864D01*
X144323819Y-104808496D01*
X144467751Y-104917437D01*
X144604423Y-104963451D01*
X144772527Y-104991753D01*
X144927517Y-104998796D01*
X145024844Y-104981031D01*
X145038000Y-104962851D01*
X145003228Y-104899647D01*
X144909004Y-104756158D01*
X144770462Y-104554891D01*
X144632138Y-104359354D01*
X144440100Y-104098617D01*
X144306302Y-103942757D01*
X144220590Y-103889641D01*
X144172811Y-103937136D01*
X144152809Y-104083110D01*
X144149936Y-104258068D01*
X133005994Y-104258068D01*
X133085253Y-104108270D01*
X133229311Y-103842476D01*
X133348463Y-103629035D01*
X133407943Y-103527666D01*
X133551095Y-103294583D01*
X132764582Y-102318662D01*
X132464738Y-101937325D01*
X132142095Y-101511324D01*
X131825290Y-101079477D01*
X131542958Y-100680602D01*
X131390851Y-100456435D01*
X131159130Y-100088693D01*
X130902391Y-99650974D01*
X130635269Y-99171040D01*
X130372399Y-98676650D01*
X130128414Y-98195565D01*
X129917950Y-97755545D01*
X129755642Y-97384351D01*
X129709919Y-97267875D01*
X129651595Y-97102761D01*
X129642195Y-97023890D01*
X129683481Y-96999587D01*
X129724922Y-96998000D01*
X129851685Y-97016246D01*
X130043429Y-97062661D01*
X130153032Y-97094585D01*
X130415952Y-97162332D01*
X130753799Y-97230212D01*
X131124361Y-97291678D01*
X131485426Y-97340182D01*
X131794784Y-97369179D01*
X131957000Y-97374377D01*
X132242750Y-97370504D01*
X131988750Y-97289963D01*
X131409211Y-97040832D01*
X130853241Y-96670335D01*
X130324903Y-96182596D01*
X129828258Y-95581744D01*
X129367372Y-94871903D01*
X129079790Y-94335754D01*
X128813750Y-93800758D01*
X128818548Y-92494254D01*
X128823777Y-91968531D01*
X128836642Y-91537348D01*
X128859341Y-91168362D01*
X128894073Y-90829229D01*
X128943034Y-90487606D01*
X128963209Y-90365755D01*
X129016341Y-90059429D01*
X129062862Y-89802266D01*
X129098326Y-89618059D01*
X129118285Y-89530597D01*
X129120020Y-89526812D01*
X129174353Y-89555204D01*
X129307227Y-89645306D01*
X129496357Y-89781611D01*
X129642109Y-89890055D01*
X130318371Y-90361309D01*
X130988800Y-90755642D01*
X131632489Y-91061715D01*
X132133781Y-91241293D01*
X132460405Y-91338290D01*
X131937568Y-90691520D01*
X131375122Y-89947476D01*
X130916061Y-89230610D01*
X130547005Y-88518140D01*
X130287915Y-87881858D01*
X130165077Y-87524551D01*
X130092712Y-87248906D01*
X130073189Y-87019051D01*
X130108872Y-86799112D01*
X130202130Y-86553216D01*
X130355329Y-86245488D01*
X130401672Y-86157708D01*
X130753677Y-85534209D01*
X131168669Y-84865057D01*
X131618455Y-84193000D01*
X132074840Y-83560790D01*
X132340012Y-83218500D01*
X132570865Y-82940994D01*
X132843377Y-82631852D01*
X133145271Y-82303205D01*
X133464273Y-81967185D01*
X133788106Y-81635922D01*
X134104497Y-81321549D01*
X134401168Y-81036198D01*
X134665845Y-80792000D01*
X134886253Y-80601087D01*
X135050117Y-80475590D01*
X135145161Y-80427641D01*
X135159990Y-80431519D01*
G36*
X104890711Y-193910059D02*
G01*
X104883042Y-193950875D01*
X104810838Y-194079122D01*
X104718934Y-194114164D01*
X104621415Y-194155576D01*
X104627972Y-194212695D01*
X104726351Y-194250275D01*
X104767030Y-194252500D01*
X104870255Y-194304340D01*
X104906158Y-194417342D01*
X104935609Y-194521658D01*
X104973875Y-194533758D01*
X105014933Y-194434405D01*
X105021500Y-194368916D01*
X105071429Y-194270354D01*
X105144753Y-194252500D01*
X105266314Y-194223341D01*
X105307250Y-194189000D01*
X105284769Y-194141913D01*
X105183998Y-194125500D01*
X105061264Y-194100650D01*
X105022480Y-194001756D01*
X105021500Y-193966750D01*
X104995632Y-193837479D01*
X104940699Y-193817283D01*
X104890711Y-193910059D01*
G37*
X104890711Y-193910059D02*
X104883042Y-193950875D01*
X104810838Y-194079122D01*
X104718934Y-194114164D01*
X104621415Y-194155576D01*
X104627972Y-194212695D01*
X104726351Y-194250275D01*
X104767030Y-194252500D01*
X104870255Y-194304340D01*
X104906158Y-194417342D01*
X104935609Y-194521658D01*
X104973875Y-194533758D01*
X105014933Y-194434405D01*
X105021500Y-194368916D01*
X105071429Y-194270354D01*
X105144753Y-194252500D01*
X105266314Y-194223341D01*
X105307250Y-194189000D01*
X105284769Y-194141913D01*
X105183998Y-194125500D01*
X105061264Y-194100650D01*
X105022480Y-194001756D01*
X105021500Y-193966750D01*
X104995632Y-193837479D01*
X104940699Y-193817283D01*
X104890711Y-193910059D01*
G36*
X119125076Y-193155915D02*
G01*
X118796121Y-193205517D01*
X118570653Y-193320523D01*
X118452389Y-193498950D01*
X118447359Y-193517138D01*
X118451893Y-193729635D01*
X118572384Y-193911520D01*
X118799750Y-194054406D01*
X119124907Y-194149903D01*
X119134375Y-194151640D01*
X119287962Y-194188690D01*
X119355477Y-194253404D01*
X119372147Y-194389308D01*
X119372500Y-194445877D01*
X119387171Y-194603860D01*
X119423775Y-194691025D01*
X119437955Y-194697000D01*
X119467211Y-194634749D01*
X119484350Y-194451907D01*
X119489012Y-194154334D01*
X119485580Y-193919125D01*
X119479493Y-193653529D01*
X119372500Y-193653529D01*
X119368643Y-193877002D01*
X119352255Y-193998658D01*
X119316115Y-194043567D01*
X119261375Y-194039269D01*
X119121173Y-194004725D01*
X118941724Y-193965972D01*
X118745172Y-193883631D01*
X118617210Y-193747067D01*
X118579708Y-193586862D01*
X118606735Y-193497536D01*
X118715635Y-193397096D01*
X118903717Y-193308133D01*
X119123380Y-193249603D01*
X119261375Y-193236854D01*
X119321890Y-193254563D01*
X119355774Y-193326051D01*
X119370177Y-193478130D01*
X119372500Y-193653529D01*
X119479493Y-193653529D01*
X119467750Y-193141250D01*
X119125076Y-193155915D01*
G37*
X119125076Y-193155915D02*
X118796121Y-193205517D01*
X118570653Y-193320523D01*
X118452389Y-193498950D01*
X118447359Y-193517138D01*
X118451893Y-193729635D01*
X118572384Y-193911520D01*
X118799750Y-194054406D01*
X119124907Y-194149903D01*
X119134375Y-194151640D01*
X119287962Y-194188690D01*
X119355477Y-194253404D01*
X119372147Y-194389308D01*
X119372500Y-194445877D01*
X119387171Y-194603860D01*
X119423775Y-194691025D01*
X119437955Y-194697000D01*
X119467211Y-194634749D01*
X119484350Y-194451907D01*
X119489012Y-194154334D01*
X119485580Y-193919125D01*
X119479493Y-193653529D01*
X119372500Y-193653529D01*
X119368643Y-193877002D01*
X119352255Y-193998658D01*
X119316115Y-194043567D01*
X119261375Y-194039269D01*
X119121173Y-194004725D01*
X118941724Y-193965972D01*
X118745172Y-193883631D01*
X118617210Y-193747067D01*
X118579708Y-193586862D01*
X118606735Y-193497536D01*
X118715635Y-193397096D01*
X118903717Y-193308133D01*
X119123380Y-193249603D01*
X119261375Y-193236854D01*
X119321890Y-193254563D01*
X119355774Y-193326051D01*
X119370177Y-193478130D01*
X119372500Y-193653529D01*
X119479493Y-193653529D01*
X119467750Y-193141250D01*
X119125076Y-193155915D01*
G36*
X104271652Y-193227483D02*
G01*
X104215966Y-193363647D01*
X104142331Y-193596852D01*
X104074290Y-193834069D01*
X104002412Y-194075689D01*
X103939038Y-194262451D01*
X103893896Y-194366781D01*
X103881870Y-194379500D01*
X103848210Y-194322773D01*
X103789123Y-194169897D01*
X103714097Y-193946830D01*
X103660558Y-193774095D01*
X103573602Y-193508751D01*
X103494590Y-193311826D01*
X103432719Y-193204580D01*
X103408715Y-193191704D01*
X103362939Y-193259356D01*
X103297630Y-193422071D01*
X103223378Y-193651535D01*
X103182250Y-193797108D01*
X103111378Y-194047797D01*
X103049131Y-194244362D01*
X103004350Y-194360029D01*
X102989953Y-194379500D01*
X102955291Y-194323587D01*
X102890376Y-194172803D01*
X102805653Y-193952575D01*
X102742102Y-193776250D01*
X102647906Y-193523084D01*
X102563269Y-193322227D01*
X102499530Y-193199192D01*
X102474024Y-193173000D01*
X102418654Y-193219222D01*
X102418000Y-193227529D01*
X102439950Y-193316014D01*
X102498319Y-193491402D01*
X102581889Y-193724218D01*
X102679442Y-193984983D01*
X102779758Y-194244221D01*
X102871619Y-194472454D01*
X102943806Y-194640204D01*
X102985101Y-194717995D01*
X102985349Y-194718248D01*
X103030880Y-194694423D01*
X103090720Y-194572471D01*
X103136385Y-194433473D01*
X103212322Y-194164557D01*
X103292230Y-193880931D01*
X103321665Y-193776250D01*
X103410856Y-193458750D01*
X103626432Y-194109625D01*
X103735041Y-194425886D01*
X103816209Y-194629910D01*
X103876323Y-194731868D01*
X103921768Y-194741936D01*
X103958933Y-194670286D01*
X103965270Y-194649375D01*
X103996217Y-194544805D01*
X104054889Y-194349360D01*
X104132068Y-194093671D01*
X104196379Y-193881371D01*
X104273961Y-193610782D01*
X104329772Y-193386586D01*
X104357727Y-193235360D01*
X104355877Y-193184710D01*
X104316064Y-193172968D01*
X104271652Y-193227483D01*
G37*
X104271652Y-193227483D02*
X104215966Y-193363647D01*
X104142331Y-193596852D01*
X104074290Y-193834069D01*
X104002412Y-194075689D01*
X103939038Y-194262451D01*
X103893896Y-194366781D01*
X103881870Y-194379500D01*
X103848210Y-194322773D01*
X103789123Y-194169897D01*
X103714097Y-193946830D01*
X103660558Y-193774095D01*
X103573602Y-193508751D01*
X103494590Y-193311826D01*
X103432719Y-193204580D01*
X103408715Y-193191704D01*
X103362939Y-193259356D01*
X103297630Y-193422071D01*
X103223378Y-193651535D01*
X103182250Y-193797108D01*
X103111378Y-194047797D01*
X103049131Y-194244362D01*
X103004350Y-194360029D01*
X102989953Y-194379500D01*
X102955291Y-194323587D01*
X102890376Y-194172803D01*
X102805653Y-193952575D01*
X102742102Y-193776250D01*
X102647906Y-193523084D01*
X102563269Y-193322227D01*
X102499530Y-193199192D01*
X102474024Y-193173000D01*
X102418654Y-193219222D01*
X102418000Y-193227529D01*
X102439950Y-193316014D01*
X102498319Y-193491402D01*
X102581889Y-193724218D01*
X102679442Y-193984983D01*
X102779758Y-194244221D01*
X102871619Y-194472454D01*
X102943806Y-194640204D01*
X102985101Y-194717995D01*
X102985349Y-194718248D01*
X103030880Y-194694423D01*
X103090720Y-194572471D01*
X103136385Y-194433473D01*
X103212322Y-194164557D01*
X103292230Y-193880931D01*
X103321665Y-193776250D01*
X103410856Y-193458750D01*
X103626432Y-194109625D01*
X103735041Y-194425886D01*
X103816209Y-194629910D01*
X103876323Y-194731868D01*
X103921768Y-194741936D01*
X103958933Y-194670286D01*
X103965270Y-194649375D01*
X103996217Y-194544805D01*
X104054889Y-194349360D01*
X104132068Y-194093671D01*
X104196379Y-193881371D01*
X104273961Y-193610782D01*
X104329772Y-193386586D01*
X104357727Y-193235360D01*
X104355877Y-193184710D01*
X104316064Y-193172968D01*
X104271652Y-193227483D01*
G36*
X106984442Y-193185436D02*
G01*
X106937476Y-193252006D01*
X106864961Y-193413729D01*
X106777918Y-193644136D01*
X106711179Y-193841602D01*
X106506975Y-194474750D01*
X106324769Y-193966750D01*
X106234104Y-193713878D01*
X106154690Y-193492222D01*
X106100405Y-193340523D01*
X106091604Y-193315875D01*
X106036407Y-193203794D01*
X105981893Y-193191905D01*
X105923533Y-193286920D01*
X105856801Y-193495546D01*
X105791679Y-193760375D01*
X105706832Y-194134646D01*
X105648897Y-194402733D01*
X105615282Y-194581975D01*
X105603396Y-194689712D01*
X105610646Y-194743284D01*
X105634440Y-194760033D01*
X105642189Y-194760500D01*
X105684950Y-194703025D01*
X105740525Y-194550452D01*
X105798585Y-194332553D01*
X105812920Y-194268375D01*
X105885870Y-193931367D01*
X105940560Y-193714155D01*
X105987270Y-193612781D01*
X106036279Y-193623290D01*
X106097866Y-193741725D01*
X106182310Y-193964129D01*
X106233871Y-194106348D01*
X106332314Y-194362102D01*
X106421022Y-194564764D01*
X106488624Y-194689890D01*
X106518528Y-194718168D01*
X106561200Y-194656814D01*
X106628409Y-194500298D01*
X106709362Y-194275442D01*
X106761273Y-194114918D01*
X106846744Y-193847660D01*
X106910803Y-193686631D01*
X106962264Y-193635321D01*
X107009942Y-193697218D01*
X107062652Y-193875809D01*
X107129206Y-194174584D01*
X107149022Y-194268375D01*
X107204397Y-194498493D01*
X107259089Y-194671068D01*
X107303246Y-194756315D01*
X107311832Y-194760500D01*
X107370051Y-194738587D01*
X107371000Y-194733830D01*
X107358358Y-194664954D01*
X107323953Y-194497320D01*
X107273070Y-194256257D01*
X107212250Y-193972908D01*
X107150242Y-193683062D01*
X107099576Y-193440431D01*
X107065561Y-193270854D01*
X107053500Y-193200536D01*
X107007516Y-193179946D01*
X106984442Y-193185436D01*
G37*
X106984442Y-193185436D02*
X106937476Y-193252006D01*
X106864961Y-193413729D01*
X106777918Y-193644136D01*
X106711179Y-193841602D01*
X106506975Y-194474750D01*
X106324769Y-193966750D01*
X106234104Y-193713878D01*
X106154690Y-193492222D01*
X106100405Y-193340523D01*
X106091604Y-193315875D01*
X106036407Y-193203794D01*
X105981893Y-193191905D01*
X105923533Y-193286920D01*
X105856801Y-193495546D01*
X105791679Y-193760375D01*
X105706832Y-194134646D01*
X105648897Y-194402733D01*
X105615282Y-194581975D01*
X105603396Y-194689712D01*
X105610646Y-194743284D01*
X105634440Y-194760033D01*
X105642189Y-194760500D01*
X105684950Y-194703025D01*
X105740525Y-194550452D01*
X105798585Y-194332553D01*
X105812920Y-194268375D01*
X105885870Y-193931367D01*
X105940560Y-193714155D01*
X105987270Y-193612781D01*
X106036279Y-193623290D01*
X106097866Y-193741725D01*
X106182310Y-193964129D01*
X106233871Y-194106348D01*
X106332314Y-194362102D01*
X106421022Y-194564764D01*
X106488624Y-194689890D01*
X106518528Y-194718168D01*
X106561200Y-194656814D01*
X106628409Y-194500298D01*
X106709362Y-194275442D01*
X106761273Y-194114918D01*
X106846744Y-193847660D01*
X106910803Y-193686631D01*
X106962264Y-193635321D01*
X107009942Y-193697218D01*
X107062652Y-193875809D01*
X107129206Y-194174584D01*
X107149022Y-194268375D01*
X107204397Y-194498493D01*
X107259089Y-194671068D01*
X107303246Y-194756315D01*
X107311832Y-194760500D01*
X107370051Y-194738587D01*
X107371000Y-194733830D01*
X107358358Y-194664954D01*
X107323953Y-194497320D01*
X107273070Y-194256257D01*
X107212250Y-193972908D01*
X107150242Y-193683062D01*
X107099576Y-193440431D01*
X107065561Y-193270854D01*
X107053500Y-193200536D01*
X107007516Y-193179946D01*
X106984442Y-193185436D01*
G36*
X107498000Y-193209712D02*
G01*
X107528208Y-193271994D01*
X107609391Y-193417569D01*
X107727389Y-193622524D01*
X107868042Y-193862946D01*
X108017187Y-194114923D01*
X108160667Y-194354542D01*
X108284318Y-194557890D01*
X108373982Y-194701055D01*
X108415498Y-194760123D01*
X108416338Y-194760500D01*
X108464708Y-194724990D01*
X108470826Y-194719008D01*
X108467171Y-194644304D01*
X108406961Y-194509375D01*
X108380784Y-194464691D01*
X108249251Y-194251866D01*
X108540376Y-193747141D01*
X108686882Y-193490957D01*
X108776667Y-193324827D01*
X108817506Y-193229403D01*
X108817175Y-193185337D01*
X108783449Y-193173280D01*
X108771108Y-193173000D01*
X108713121Y-193224555D01*
X108615551Y-193360708D01*
X108498000Y-193553686D01*
X108480209Y-193585184D01*
X108361359Y-193789611D01*
X108261153Y-193947429D01*
X108199184Y-194028000D01*
X108195054Y-194031143D01*
X108140044Y-193996388D01*
X108041497Y-193874310D01*
X107917715Y-193688516D01*
X107875466Y-193618959D01*
X107719911Y-193373510D01*
X107600457Y-193218793D01*
X107524145Y-193162442D01*
X107498000Y-193209712D01*
G37*
X107498000Y-193209712D02*
X107528208Y-193271994D01*
X107609391Y-193417569D01*
X107727389Y-193622524D01*
X107868042Y-193862946D01*
X108017187Y-194114923D01*
X108160667Y-194354542D01*
X108284318Y-194557890D01*
X108373982Y-194701055D01*
X108415498Y-194760123D01*
X108416338Y-194760500D01*
X108464708Y-194724990D01*
X108470826Y-194719008D01*
X108467171Y-194644304D01*
X108406961Y-194509375D01*
X108380784Y-194464691D01*
X108249251Y-194251866D01*
X108540376Y-193747141D01*
X108686882Y-193490957D01*
X108776667Y-193324827D01*
X108817506Y-193229403D01*
X108817175Y-193185337D01*
X108783449Y-193173280D01*
X108771108Y-193173000D01*
X108713121Y-193224555D01*
X108615551Y-193360708D01*
X108498000Y-193553686D01*
X108480209Y-193585184D01*
X108361359Y-193789611D01*
X108261153Y-193947429D01*
X108199184Y-194028000D01*
X108195054Y-194031143D01*
X108140044Y-193996388D01*
X108041497Y-193874310D01*
X107917715Y-193688516D01*
X107875466Y-193618959D01*
X107719911Y-193373510D01*
X107600457Y-193218793D01*
X107524145Y-193162442D01*
X107498000Y-193209712D01*
G36*
X109305067Y-193193354D02*
G01*
X109156767Y-193262464D01*
X109116898Y-193300389D01*
X109040414Y-193420414D01*
X109060903Y-193473987D01*
X109156590Y-193439686D01*
X109212931Y-193394860D01*
X109382257Y-193300709D01*
X109570231Y-193280694D01*
X109742166Y-193325459D01*
X109863377Y-193425651D01*
X109899177Y-193571915D01*
X109898190Y-193579671D01*
X109842428Y-193679829D01*
X109693083Y-193772180D01*
X109540973Y-193833069D01*
X109274366Y-193966238D01*
X109102795Y-194130014D01*
X109031894Y-194306878D01*
X109067294Y-194479310D01*
X109214630Y-194629793D01*
X109273767Y-194664095D01*
X109546861Y-194750761D01*
X109809206Y-194714937D01*
X109919346Y-194664624D01*
X110055891Y-194559586D01*
X110138909Y-194438689D01*
X110143935Y-194340350D01*
X110134075Y-194327407D01*
X110072407Y-194343392D01*
X109975978Y-194426785D01*
X109788790Y-194564762D01*
X109582951Y-194621387D01*
X109392656Y-194596728D01*
X109252102Y-194490857D01*
X109217255Y-194425225D01*
X109199773Y-194242098D01*
X109301769Y-194098610D01*
X109513638Y-193996508D01*
X109788706Y-193890918D01*
X109954697Y-193777017D01*
X110029365Y-193639926D01*
X110038000Y-193557071D01*
X109996070Y-193354599D01*
X109864240Y-193229989D01*
X109633451Y-193176322D01*
X109535306Y-193173000D01*
X109305067Y-193193354D01*
G37*
X109305067Y-193193354D02*
X109156767Y-193262464D01*
X109116898Y-193300389D01*
X109040414Y-193420414D01*
X109060903Y-193473987D01*
X109156590Y-193439686D01*
X109212931Y-193394860D01*
X109382257Y-193300709D01*
X109570231Y-193280694D01*
X109742166Y-193325459D01*
X109863377Y-193425651D01*
X109899177Y-193571915D01*
X109898190Y-193579671D01*
X109842428Y-193679829D01*
X109693083Y-193772180D01*
X109540973Y-193833069D01*
X109274366Y-193966238D01*
X109102795Y-194130014D01*
X109031894Y-194306878D01*
X109067294Y-194479310D01*
X109214630Y-194629793D01*
X109273767Y-194664095D01*
X109546861Y-194750761D01*
X109809206Y-194714937D01*
X109919346Y-194664624D01*
X110055891Y-194559586D01*
X110138909Y-194438689D01*
X110143935Y-194340350D01*
X110134075Y-194327407D01*
X110072407Y-194343392D01*
X109975978Y-194426785D01*
X109788790Y-194564762D01*
X109582951Y-194621387D01*
X109392656Y-194596728D01*
X109252102Y-194490857D01*
X109217255Y-194425225D01*
X109199773Y-194242098D01*
X109301769Y-194098610D01*
X109513638Y-193996508D01*
X109788706Y-193890918D01*
X109954697Y-193777017D01*
X110029365Y-193639926D01*
X110038000Y-193557071D01*
X109996070Y-193354599D01*
X109864240Y-193229989D01*
X109633451Y-193176322D01*
X109535306Y-193173000D01*
X109305067Y-193193354D01*
G36*
X121003553Y-193214292D02*
G01*
X120975602Y-193391266D01*
X120953930Y-193676377D01*
X120949960Y-193765874D01*
X120936554Y-194039044D01*
X120915981Y-194217372D01*
X120879245Y-194333001D01*
X120817355Y-194418074D01*
X120750083Y-194480249D01*
X120599714Y-194582879D01*
X120465838Y-194632624D01*
X120452000Y-194633500D01*
X120325554Y-194593813D01*
X120173648Y-194496630D01*
X120153918Y-194480249D01*
X120067626Y-194397093D01*
X120013143Y-194307164D01*
X119981477Y-194178321D01*
X119963633Y-193978417D01*
X119954041Y-193765874D01*
X119935127Y-193463351D01*
X119908517Y-193258497D01*
X119878833Y-193156675D01*
X119850699Y-193163251D01*
X119828736Y-193283587D01*
X119817566Y-193523048D01*
X119817000Y-193606839D01*
X119836912Y-193984914D01*
X119893392Y-194291643D01*
X119981560Y-194507620D01*
X120066590Y-194599023D01*
X120273373Y-194680744D01*
X120509638Y-194712346D01*
X120641787Y-194699156D01*
X120779461Y-194621931D01*
X120918610Y-194481117D01*
X120943412Y-194446789D01*
X121014506Y-194323061D01*
X121057800Y-194186896D01*
X121079748Y-194002875D01*
X121086805Y-193735579D01*
X121087000Y-193658909D01*
X121079506Y-193367763D01*
X121060062Y-193198983D01*
X121033225Y-193149012D01*
X121003553Y-193214292D01*
G37*
X121003553Y-193214292D02*
X120975602Y-193391266D01*
X120953930Y-193676377D01*
X120949960Y-193765874D01*
X120936554Y-194039044D01*
X120915981Y-194217372D01*
X120879245Y-194333001D01*
X120817355Y-194418074D01*
X120750083Y-194480249D01*
X120599714Y-194582879D01*
X120465838Y-194632624D01*
X120452000Y-194633500D01*
X120325554Y-194593813D01*
X120173648Y-194496630D01*
X120153918Y-194480249D01*
X120067626Y-194397093D01*
X120013143Y-194307164D01*
X119981477Y-194178321D01*
X119963633Y-193978417D01*
X119954041Y-193765874D01*
X119935127Y-193463351D01*
X119908517Y-193258497D01*
X119878833Y-193156675D01*
X119850699Y-193163251D01*
X119828736Y-193283587D01*
X119817566Y-193523048D01*
X119817000Y-193606839D01*
X119836912Y-193984914D01*
X119893392Y-194291643D01*
X119981560Y-194507620D01*
X120066590Y-194599023D01*
X120273373Y-194680744D01*
X120509638Y-194712346D01*
X120641787Y-194699156D01*
X120779461Y-194621931D01*
X120918610Y-194481117D01*
X120943412Y-194446789D01*
X121014506Y-194323061D01*
X121057800Y-194186896D01*
X121079748Y-194002875D01*
X121086805Y-193735579D01*
X121087000Y-193658909D01*
X121079506Y-193367763D01*
X121060062Y-193198983D01*
X121033225Y-193149012D01*
X121003553Y-193214292D01*
G36*
X104910914Y-196148231D02*
G01*
X104894500Y-196249002D01*
X104869651Y-196371736D01*
X104770757Y-196410520D01*
X104735750Y-196411500D01*
X104616414Y-196433236D01*
X104577000Y-196475000D01*
X104631343Y-196522734D01*
X104735750Y-196538500D01*
X104856592Y-196564727D01*
X104893830Y-196667994D01*
X104894500Y-196697250D01*
X104916237Y-196816586D01*
X104958000Y-196856000D01*
X105005735Y-196801657D01*
X105021500Y-196697250D01*
X105047728Y-196576408D01*
X105150995Y-196539170D01*
X105180250Y-196538500D01*
X105299587Y-196516763D01*
X105339000Y-196475000D01*
X105284658Y-196427265D01*
X105180250Y-196411500D01*
X105055029Y-196381036D01*
X105021500Y-196288247D01*
X104992342Y-196166686D01*
X104958000Y-196125750D01*
X104910914Y-196148231D01*
G37*
X104910914Y-196148231D02*
X104894500Y-196249002D01*
X104869651Y-196371736D01*
X104770757Y-196410520D01*
X104735750Y-196411500D01*
X104616414Y-196433236D01*
X104577000Y-196475000D01*
X104631343Y-196522734D01*
X104735750Y-196538500D01*
X104856592Y-196564727D01*
X104893830Y-196667994D01*
X104894500Y-196697250D01*
X104916237Y-196816586D01*
X104958000Y-196856000D01*
X105005735Y-196801657D01*
X105021500Y-196697250D01*
X105047728Y-196576408D01*
X105150995Y-196539170D01*
X105180250Y-196538500D01*
X105299587Y-196516763D01*
X105339000Y-196475000D01*
X105284658Y-196427265D01*
X105180250Y-196411500D01*
X105055029Y-196381036D01*
X105021500Y-196288247D01*
X104992342Y-196166686D01*
X104958000Y-196125750D01*
X104910914Y-196148231D01*
G36*
X103403967Y-195511298D02*
G01*
X103321130Y-195557850D01*
X103215550Y-195662797D01*
X103180000Y-195748350D01*
X103196686Y-195828156D01*
X103258157Y-195813734D01*
X103370500Y-195713000D01*
X103548189Y-195609891D01*
X103752273Y-195595856D01*
X103931428Y-195671686D01*
X103965440Y-195703816D01*
X104036374Y-195818719D01*
X104017587Y-195924132D01*
X103898978Y-196033811D01*
X103670448Y-196161510D01*
X103606762Y-196192276D01*
X103396470Y-196297091D01*
X103275768Y-196379113D01*
X103217588Y-196465750D01*
X103194863Y-196584410D01*
X103192402Y-196611841D01*
X103198884Y-196792306D01*
X103270349Y-196907867D01*
X103317656Y-196945216D01*
X103523886Y-197028448D01*
X103769045Y-197043527D01*
X103998046Y-196992387D01*
X104120527Y-196917026D01*
X104222511Y-196798352D01*
X104262502Y-196703450D01*
X104227750Y-196665500D01*
X104164729Y-196705454D01*
X104069000Y-196792500D01*
X103900687Y-196888363D01*
X103690240Y-196917456D01*
X103493961Y-196877463D01*
X103406786Y-196819714D01*
X103312338Y-196686950D01*
X103318297Y-196565114D01*
X103431869Y-196442134D01*
X103660257Y-196305936D01*
X103735625Y-196268654D01*
X103965509Y-196150250D01*
X104100964Y-196056166D01*
X104166433Y-195966016D01*
X104183632Y-195894992D01*
X104148589Y-195719765D01*
X104020980Y-195581226D01*
X103832927Y-195491932D01*
X103616549Y-195464437D01*
X103403967Y-195511298D01*
G37*
X103403967Y-195511298D02*
X103321130Y-195557850D01*
X103215550Y-195662797D01*
X103180000Y-195748350D01*
X103196686Y-195828156D01*
X103258157Y-195813734D01*
X103370500Y-195713000D01*
X103548189Y-195609891D01*
X103752273Y-195595856D01*
X103931428Y-195671686D01*
X103965440Y-195703816D01*
X104036374Y-195818719D01*
X104017587Y-195924132D01*
X103898978Y-196033811D01*
X103670448Y-196161510D01*
X103606762Y-196192276D01*
X103396470Y-196297091D01*
X103275768Y-196379113D01*
X103217588Y-196465750D01*
X103194863Y-196584410D01*
X103192402Y-196611841D01*
X103198884Y-196792306D01*
X103270349Y-196907867D01*
X103317656Y-196945216D01*
X103523886Y-197028448D01*
X103769045Y-197043527D01*
X103998046Y-196992387D01*
X104120527Y-196917026D01*
X104222511Y-196798352D01*
X104262502Y-196703450D01*
X104227750Y-196665500D01*
X104164729Y-196705454D01*
X104069000Y-196792500D01*
X103900687Y-196888363D01*
X103690240Y-196917456D01*
X103493961Y-196877463D01*
X103406786Y-196819714D01*
X103312338Y-196686950D01*
X103318297Y-196565114D01*
X103431869Y-196442134D01*
X103660257Y-196305936D01*
X103735625Y-196268654D01*
X103965509Y-196150250D01*
X104100964Y-196056166D01*
X104166433Y-195966016D01*
X104183632Y-195894992D01*
X104148589Y-195719765D01*
X104020980Y-195581226D01*
X103832927Y-195491932D01*
X103616549Y-195464437D01*
X103403967Y-195511298D01*
G36*
X105945406Y-195516926D02*
G01*
X105896159Y-195673535D01*
X105836410Y-195903074D01*
X105788681Y-196109875D01*
X105725573Y-196396657D01*
X105669626Y-196649382D01*
X105628320Y-196834347D01*
X105612550Y-196903625D01*
X105610477Y-197013242D01*
X105644404Y-197046500D01*
X105685310Y-196988737D01*
X105742593Y-196833286D01*
X105807267Y-196606900D01*
X105847000Y-196443250D01*
X105907345Y-196186801D01*
X105958603Y-195984532D01*
X105993819Y-195863061D01*
X106004583Y-195840000D01*
X106032709Y-195895796D01*
X106092499Y-196046287D01*
X106174165Y-196266122D01*
X106237496Y-196443130D01*
X106332696Y-196696191D01*
X106419449Y-196896776D01*
X106486065Y-197019405D01*
X106513750Y-197045267D01*
X106558107Y-196988155D01*
X106627386Y-196834825D01*
X106710875Y-196610958D01*
X106771964Y-196426262D01*
X106966678Y-195808250D01*
X107077985Y-196316250D01*
X107147027Y-196627500D01*
X107196474Y-196835230D01*
X107232965Y-196960179D01*
X107263140Y-197023089D01*
X107293640Y-197044699D01*
X107311780Y-197046500D01*
X107370053Y-197027419D01*
X107371000Y-197023283D01*
X107356296Y-196923352D01*
X107317183Y-196737371D01*
X107261166Y-196495403D01*
X107195749Y-196227516D01*
X107128435Y-195963775D01*
X107066728Y-195734245D01*
X107018130Y-195568993D01*
X106990419Y-195498345D01*
X106949945Y-195530881D01*
X106884225Y-195665993D01*
X106801841Y-195883850D01*
X106733649Y-196091648D01*
X106648005Y-196349713D01*
X106571298Y-196548923D01*
X106512858Y-196666927D01*
X106485007Y-196687302D01*
X106444763Y-196607499D01*
X106374778Y-196436510D01*
X106286564Y-196203266D01*
X106229993Y-196046375D01*
X106137379Y-195797066D01*
X106056093Y-195600286D01*
X105997253Y-195481818D01*
X105976710Y-195459000D01*
X105945406Y-195516926D01*
G37*
X105945406Y-195516926D02*
X105896159Y-195673535D01*
X105836410Y-195903074D01*
X105788681Y-196109875D01*
X105725573Y-196396657D01*
X105669626Y-196649382D01*
X105628320Y-196834347D01*
X105612550Y-196903625D01*
X105610477Y-197013242D01*
X105644404Y-197046500D01*
X105685310Y-196988737D01*
X105742593Y-196833286D01*
X105807267Y-196606900D01*
X105847000Y-196443250D01*
X105907345Y-196186801D01*
X105958603Y-195984532D01*
X105993819Y-195863061D01*
X106004583Y-195840000D01*
X106032709Y-195895796D01*
X106092499Y-196046287D01*
X106174165Y-196266122D01*
X106237496Y-196443130D01*
X106332696Y-196696191D01*
X106419449Y-196896776D01*
X106486065Y-197019405D01*
X106513750Y-197045267D01*
X106558107Y-196988155D01*
X106627386Y-196834825D01*
X106710875Y-196610958D01*
X106771964Y-196426262D01*
X106966678Y-195808250D01*
X107077985Y-196316250D01*
X107147027Y-196627500D01*
X107196474Y-196835230D01*
X107232965Y-196960179D01*
X107263140Y-197023089D01*
X107293640Y-197044699D01*
X107311780Y-197046500D01*
X107370053Y-197027419D01*
X107371000Y-197023283D01*
X107356296Y-196923352D01*
X107317183Y-196737371D01*
X107261166Y-196495403D01*
X107195749Y-196227516D01*
X107128435Y-195963775D01*
X107066728Y-195734245D01*
X107018130Y-195568993D01*
X106990419Y-195498345D01*
X106949945Y-195530881D01*
X106884225Y-195665993D01*
X106801841Y-195883850D01*
X106733649Y-196091648D01*
X106648005Y-196349713D01*
X106571298Y-196548923D01*
X106512858Y-196666927D01*
X106485007Y-196687302D01*
X106444763Y-196607499D01*
X106374778Y-196436510D01*
X106286564Y-196203266D01*
X106229993Y-196046375D01*
X106137379Y-195797066D01*
X106056093Y-195600286D01*
X105997253Y-195481818D01*
X105976710Y-195459000D01*
X105945406Y-195516926D01*
G36*
X108738728Y-195509095D02*
G01*
X108620400Y-195673001D01*
X108460822Y-195936028D01*
X108334899Y-196149587D01*
X108234060Y-196313459D01*
X108173975Y-196402480D01*
X108164750Y-196411500D01*
X108125946Y-196360517D01*
X108039951Y-196224347D01*
X107922436Y-196028153D01*
X107868679Y-195936028D01*
X107703116Y-195663726D01*
X107587412Y-195505273D01*
X107519673Y-195458542D01*
X107498000Y-195519465D01*
X107530584Y-195606007D01*
X107617930Y-195771048D01*
X107744435Y-195989625D01*
X107894495Y-196236775D01*
X108052504Y-196487534D01*
X108202859Y-196716940D01*
X108329955Y-196900031D01*
X108418187Y-197011842D01*
X108444745Y-197033998D01*
X108477629Y-197009750D01*
X108431117Y-196888021D01*
X108390192Y-196811754D01*
X108249065Y-196560653D01*
X108540283Y-196068079D01*
X108669607Y-195843239D01*
X108769442Y-195658063D01*
X108824943Y-195540627D01*
X108831500Y-195517253D01*
X108808570Y-195457772D01*
X108738728Y-195509095D01*
G37*
X108738728Y-195509095D02*
X108620400Y-195673001D01*
X108460822Y-195936028D01*
X108334899Y-196149587D01*
X108234060Y-196313459D01*
X108173975Y-196402480D01*
X108164750Y-196411500D01*
X108125946Y-196360517D01*
X108039951Y-196224347D01*
X107922436Y-196028153D01*
X107868679Y-195936028D01*
X107703116Y-195663726D01*
X107587412Y-195505273D01*
X107519673Y-195458542D01*
X107498000Y-195519465D01*
X107530584Y-195606007D01*
X107617930Y-195771048D01*
X107744435Y-195989625D01*
X107894495Y-196236775D01*
X108052504Y-196487534D01*
X108202859Y-196716940D01*
X108329955Y-196900031D01*
X108418187Y-197011842D01*
X108444745Y-197033998D01*
X108477629Y-197009750D01*
X108431117Y-196888021D01*
X108390192Y-196811754D01*
X108249065Y-196560653D01*
X108540283Y-196068079D01*
X108669607Y-195843239D01*
X108769442Y-195658063D01*
X108824943Y-195540627D01*
X108831500Y-195517253D01*
X108808570Y-195457772D01*
X108738728Y-195509095D01*
G36*
X109315093Y-195500368D02*
G01*
X109141517Y-195585335D01*
X109081127Y-195657671D01*
X109035373Y-195783144D01*
X109070081Y-195816801D01*
X109171565Y-195752062D01*
X109207209Y-195718291D01*
X109368078Y-195620158D01*
X109556196Y-195591027D01*
X109734224Y-195624401D01*
X109864827Y-195713781D01*
X109911000Y-195840770D01*
X109851653Y-195975470D01*
X109689648Y-196099787D01*
X109466500Y-196189936D01*
X109283891Y-196276840D01*
X109126493Y-196408630D01*
X109032961Y-196549256D01*
X109022000Y-196604505D01*
X109059458Y-196726959D01*
X109149947Y-196874489D01*
X109153609Y-196879186D01*
X109330844Y-197010416D01*
X109562153Y-197055696D01*
X109807524Y-197014381D01*
X110018585Y-196893152D01*
X110122134Y-196782860D01*
X110154500Y-196702569D01*
X110148875Y-196691818D01*
X110075486Y-196696823D01*
X109962413Y-196774167D01*
X109954282Y-196781666D01*
X109767008Y-196891584D01*
X109553669Y-196922234D01*
X109359277Y-196873750D01*
X109248691Y-196779570D01*
X109195412Y-196619161D01*
X109264704Y-196473237D01*
X109452401Y-196348115D01*
X109562087Y-196304476D01*
X109750953Y-196223261D01*
X109902789Y-196131658D01*
X109922665Y-196115194D01*
X110009406Y-195973829D01*
X110035186Y-195797948D01*
X109995964Y-195645274D01*
X109958625Y-195601546D01*
X109766144Y-195505756D01*
X109537468Y-195472936D01*
X109315093Y-195500368D01*
G37*
X109315093Y-195500368D02*
X109141517Y-195585335D01*
X109081127Y-195657671D01*
X109035373Y-195783144D01*
X109070081Y-195816801D01*
X109171565Y-195752062D01*
X109207209Y-195718291D01*
X109368078Y-195620158D01*
X109556196Y-195591027D01*
X109734224Y-195624401D01*
X109864827Y-195713781D01*
X109911000Y-195840770D01*
X109851653Y-195975470D01*
X109689648Y-196099787D01*
X109466500Y-196189936D01*
X109283891Y-196276840D01*
X109126493Y-196408630D01*
X109032961Y-196549256D01*
X109022000Y-196604505D01*
X109059458Y-196726959D01*
X109149947Y-196874489D01*
X109153609Y-196879186D01*
X109330844Y-197010416D01*
X109562153Y-197055696D01*
X109807524Y-197014381D01*
X110018585Y-196893152D01*
X110122134Y-196782860D01*
X110154500Y-196702569D01*
X110148875Y-196691818D01*
X110075486Y-196696823D01*
X109962413Y-196774167D01*
X109954282Y-196781666D01*
X109767008Y-196891584D01*
X109553669Y-196922234D01*
X109359277Y-196873750D01*
X109248691Y-196779570D01*
X109195412Y-196619161D01*
X109264704Y-196473237D01*
X109452401Y-196348115D01*
X109562087Y-196304476D01*
X109750953Y-196223261D01*
X109902789Y-196131658D01*
X109922665Y-196115194D01*
X110009406Y-195973829D01*
X110035186Y-195797948D01*
X109995964Y-195645274D01*
X109958625Y-195601546D01*
X109766144Y-195505756D01*
X109537468Y-195472936D01*
X109315093Y-195500368D01*
G36*
X114963492Y-195520133D02*
G01*
X114943035Y-195694350D01*
X114930732Y-195967871D01*
X114927500Y-196252750D01*
X114931067Y-196553123D01*
X114940806Y-196800925D01*
X114955277Y-196972225D01*
X114973039Y-197043091D01*
X114975125Y-197043728D01*
X115027227Y-196993232D01*
X115134709Y-196857498D01*
X115282250Y-196656791D01*
X115454531Y-196411372D01*
X115467250Y-196392853D01*
X115911750Y-195744750D01*
X115929847Y-196395625D01*
X115943653Y-196683036D01*
X115965719Y-196900085D01*
X115993315Y-197024931D01*
X116011176Y-197046500D01*
X116038234Y-196985143D01*
X116054707Y-196808873D01*
X116059899Y-196529394D01*
X116056580Y-196284278D01*
X116044125Y-195966656D01*
X116024343Y-195718834D01*
X115999340Y-195560805D01*
X115975250Y-195511959D01*
X115916683Y-195557375D01*
X115804222Y-195688489D01*
X115654062Y-195885094D01*
X115483125Y-196125929D01*
X115054500Y-196749995D01*
X115054500Y-196104497D01*
X115048555Y-195806108D01*
X115031896Y-195589926D01*
X115006285Y-195473878D01*
X114991000Y-195459000D01*
X114963492Y-195520133D01*
G37*
X114963492Y-195520133D02*
X114943035Y-195694350D01*
X114930732Y-195967871D01*
X114927500Y-196252750D01*
X114931067Y-196553123D01*
X114940806Y-196800925D01*
X114955277Y-196972225D01*
X114973039Y-197043091D01*
X114975125Y-197043728D01*
X115027227Y-196993232D01*
X115134709Y-196857498D01*
X115282250Y-196656791D01*
X115454531Y-196411372D01*
X115467250Y-196392853D01*
X115911750Y-195744750D01*
X115929847Y-196395625D01*
X115943653Y-196683036D01*
X115965719Y-196900085D01*
X115993315Y-197024931D01*
X116011176Y-197046500D01*
X116038234Y-196985143D01*
X116054707Y-196808873D01*
X116059899Y-196529394D01*
X116056580Y-196284278D01*
X116044125Y-195966656D01*
X116024343Y-195718834D01*
X115999340Y-195560805D01*
X115975250Y-195511959D01*
X115916683Y-195557375D01*
X115804222Y-195688489D01*
X115654062Y-195885094D01*
X115483125Y-196125929D01*
X115054500Y-196749995D01*
X115054500Y-196104497D01*
X115048555Y-195806108D01*
X115031896Y-195589926D01*
X115006285Y-195473878D01*
X114991000Y-195459000D01*
X114963492Y-195520133D01*
G36*
X118128767Y-195515824D02*
G01*
X118059472Y-195669633D01*
X117975420Y-195895431D01*
X117904856Y-196109875D01*
X117701757Y-196760750D01*
X117504608Y-196130826D01*
X117416759Y-195867383D01*
X117335249Y-195653517D01*
X117270824Y-195515818D01*
X117241039Y-195478762D01*
X117190475Y-195522028D01*
X117130109Y-195656876D01*
X117089763Y-195791186D01*
X117018397Y-196061298D01*
X116938889Y-196346422D01*
X116910675Y-196443250D01*
X116816443Y-196760750D01*
X116598278Y-196157500D01*
X116470733Y-195820541D01*
X116371493Y-195592064D01*
X116302587Y-195475866D01*
X116266046Y-195475745D01*
X116260484Y-195525675D01*
X116281113Y-195627050D01*
X116336687Y-195808703D01*
X116416856Y-196043086D01*
X116511274Y-196302648D01*
X116609594Y-196559844D01*
X116701468Y-196787123D01*
X116776549Y-196956938D01*
X116824488Y-197041740D01*
X116831724Y-197046500D01*
X116867455Y-196989231D01*
X116925992Y-196834328D01*
X116998471Y-196607143D01*
X117058440Y-196398048D01*
X117236283Y-195749596D01*
X117452433Y-196398048D01*
X117544482Y-196661816D01*
X117626356Y-196873924D01*
X117687989Y-197009611D01*
X117716021Y-197046500D01*
X117752062Y-196989506D01*
X117813857Y-196834827D01*
X117892362Y-196606919D01*
X117968486Y-196363875D01*
X118054286Y-196077890D01*
X118128704Y-195829265D01*
X118182810Y-195647860D01*
X118205786Y-195570125D01*
X118203801Y-195478079D01*
X118173006Y-195459000D01*
X118128767Y-195515824D01*
G37*
X118128767Y-195515824D02*
X118059472Y-195669633D01*
X117975420Y-195895431D01*
X117904856Y-196109875D01*
X117701757Y-196760750D01*
X117504608Y-196130826D01*
X117416759Y-195867383D01*
X117335249Y-195653517D01*
X117270824Y-195515818D01*
X117241039Y-195478762D01*
X117190475Y-195522028D01*
X117130109Y-195656876D01*
X117089763Y-195791186D01*
X117018397Y-196061298D01*
X116938889Y-196346422D01*
X116910675Y-196443250D01*
X116816443Y-196760750D01*
X116598278Y-196157500D01*
X116470733Y-195820541D01*
X116371493Y-195592064D01*
X116302587Y-195475866D01*
X116266046Y-195475745D01*
X116260484Y-195525675D01*
X116281113Y-195627050D01*
X116336687Y-195808703D01*
X116416856Y-196043086D01*
X116511274Y-196302648D01*
X116609594Y-196559844D01*
X116701468Y-196787123D01*
X116776549Y-196956938D01*
X116824488Y-197041740D01*
X116831724Y-197046500D01*
X116867455Y-196989231D01*
X116925992Y-196834328D01*
X116998471Y-196607143D01*
X117058440Y-196398048D01*
X117236283Y-195749596D01*
X117452433Y-196398048D01*
X117544482Y-196661816D01*
X117626356Y-196873924D01*
X117687989Y-197009611D01*
X117716021Y-197046500D01*
X117752062Y-196989506D01*
X117813857Y-196834827D01*
X117892362Y-196606919D01*
X117968486Y-196363875D01*
X118054286Y-196077890D01*
X118128704Y-195829265D01*
X118182810Y-195647860D01*
X118205786Y-195570125D01*
X118203801Y-195478079D01*
X118173006Y-195459000D01*
X118128767Y-195515824D01*
G36*
X118829212Y-195493911D02*
G01*
X118606832Y-195643402D01*
X118605616Y-195644615D01*
X118489379Y-195783097D01*
X118434462Y-195929104D01*
X118420034Y-196140003D01*
X118420000Y-196155768D01*
X118460037Y-196483811D01*
X118569152Y-196747220D01*
X118730852Y-196934605D01*
X118928643Y-197034574D01*
X119146031Y-197035735D01*
X119366525Y-196926696D01*
X119440885Y-196860884D01*
X119584876Y-196633869D01*
X119639619Y-196362472D01*
X119533082Y-196362472D01*
X119485255Y-196596402D01*
X119373452Y-196776412D01*
X119216348Y-196887444D01*
X119032615Y-196914441D01*
X118840927Y-196842348D01*
X118711395Y-196724127D01*
X118596875Y-196546370D01*
X118550959Y-196340557D01*
X118547000Y-196224691D01*
X118590336Y-195931930D01*
X118704571Y-195727051D01*
X118866046Y-195613411D01*
X119051101Y-195594370D01*
X119236077Y-195673285D01*
X119397315Y-195853514D01*
X119498261Y-196089676D01*
X119533082Y-196362472D01*
X119639619Y-196362472D01*
X119640988Y-196355689D01*
X119613295Y-196062780D01*
X119505871Y-195791579D01*
X119322789Y-195578521D01*
X119295234Y-195558104D01*
X119064740Y-195464719D01*
X118829212Y-195493911D01*
G37*
X118829212Y-195493911D02*
X118606832Y-195643402D01*
X118605616Y-195644615D01*
X118489379Y-195783097D01*
X118434462Y-195929104D01*
X118420034Y-196140003D01*
X118420000Y-196155768D01*
X118460037Y-196483811D01*
X118569152Y-196747220D01*
X118730852Y-196934605D01*
X118928643Y-197034574D01*
X119146031Y-197035735D01*
X119366525Y-196926696D01*
X119440885Y-196860884D01*
X119584876Y-196633869D01*
X119639619Y-196362472D01*
X119533082Y-196362472D01*
X119485255Y-196596402D01*
X119373452Y-196776412D01*
X119216348Y-196887444D01*
X119032615Y-196914441D01*
X118840927Y-196842348D01*
X118711395Y-196724127D01*
X118596875Y-196546370D01*
X118550959Y-196340557D01*
X118547000Y-196224691D01*
X118590336Y-195931930D01*
X118704571Y-195727051D01*
X118866046Y-195613411D01*
X119051101Y-195594370D01*
X119236077Y-195673285D01*
X119397315Y-195853514D01*
X119498261Y-196089676D01*
X119533082Y-196362472D01*
X119639619Y-196362472D01*
X119640988Y-196355689D01*
X119613295Y-196062780D01*
X119505871Y-195791579D01*
X119322789Y-195578521D01*
X119295234Y-195558104D01*
X119064740Y-195464719D01*
X118829212Y-195493911D01*
G36*
X120944125Y-195459354D02*
G01*
X120608998Y-195510754D01*
X120327308Y-195649975D01*
X120113281Y-195857208D01*
X119981143Y-196112639D01*
X119945120Y-196396459D01*
X120019438Y-196688854D01*
X120036396Y-196723479D01*
X120198880Y-196912699D01*
X120437691Y-197045975D01*
X120708720Y-197107662D01*
X120967856Y-197082117D01*
X121007625Y-197067945D01*
X121043964Y-197011377D01*
X121068469Y-196867476D01*
X121082395Y-196623295D01*
X121086993Y-196265883D01*
X121087000Y-196247458D01*
X121086987Y-196242166D01*
X120960000Y-196242166D01*
X120956135Y-196519173D01*
X120945701Y-196747098D01*
X120930442Y-196897175D01*
X120917667Y-196940666D01*
X120794710Y-196980897D01*
X120595785Y-196953142D01*
X120429150Y-196895560D01*
X120222391Y-196752066D01*
X120107829Y-196551307D01*
X120081888Y-196319426D01*
X120140992Y-196082566D01*
X120281566Y-195866869D01*
X120500033Y-195698477D01*
X120599009Y-195653729D01*
X120754028Y-195599729D01*
X120856785Y-195589381D01*
X120918020Y-195640193D01*
X120948474Y-195769670D01*
X120958885Y-195995319D01*
X120960000Y-196242166D01*
X121086987Y-196242166D01*
X121086176Y-195919882D01*
X121081189Y-195698516D01*
X121068271Y-195562570D01*
X121043653Y-195491254D01*
X121003565Y-195463778D01*
X120944240Y-195459353D01*
X120944125Y-195459354D01*
G37*
X120944125Y-195459354D02*
X120608998Y-195510754D01*
X120327308Y-195649975D01*
X120113281Y-195857208D01*
X119981143Y-196112639D01*
X119945120Y-196396459D01*
X120019438Y-196688854D01*
X120036396Y-196723479D01*
X120198880Y-196912699D01*
X120437691Y-197045975D01*
X120708720Y-197107662D01*
X120967856Y-197082117D01*
X121007625Y-197067945D01*
X121043964Y-197011377D01*
X121068469Y-196867476D01*
X121082395Y-196623295D01*
X121086993Y-196265883D01*
X121087000Y-196247458D01*
X121086987Y-196242166D01*
X120960000Y-196242166D01*
X120956135Y-196519173D01*
X120945701Y-196747098D01*
X120930442Y-196897175D01*
X120917667Y-196940666D01*
X120794710Y-196980897D01*
X120595785Y-196953142D01*
X120429150Y-196895560D01*
X120222391Y-196752066D01*
X120107829Y-196551307D01*
X120081888Y-196319426D01*
X120140992Y-196082566D01*
X120281566Y-195866869D01*
X120500033Y-195698477D01*
X120599009Y-195653729D01*
X120754028Y-195599729D01*
X120856785Y-195589381D01*
X120918020Y-195640193D01*
X120948474Y-195769670D01*
X120958885Y-195995319D01*
X120960000Y-196242166D01*
X121086987Y-196242166D01*
X121086176Y-195919882D01*
X121081189Y-195698516D01*
X121068271Y-195562570D01*
X121043653Y-195491254D01*
X121003565Y-195463778D01*
X120944240Y-195459353D01*
X120944125Y-195459354D01*
G36*
X104910266Y-198624842D02*
G01*
X104894500Y-198729250D01*
X104868273Y-198850091D01*
X104765006Y-198887329D01*
X104735750Y-198888000D01*
X104616414Y-198909736D01*
X104577000Y-198951500D01*
X104631343Y-198999234D01*
X104735750Y-199015000D01*
X104856592Y-199041227D01*
X104893830Y-199144494D01*
X104894500Y-199173750D01*
X104916237Y-199293086D01*
X104958000Y-199332500D01*
X105005735Y-199278157D01*
X105021500Y-199173750D01*
X105047728Y-199052908D01*
X105150995Y-199015670D01*
X105180250Y-199015000D01*
X105299587Y-198993263D01*
X105339000Y-198951500D01*
X105284658Y-198903765D01*
X105180250Y-198888000D01*
X105059409Y-198861772D01*
X105022171Y-198758505D01*
X105021500Y-198729250D01*
X104999764Y-198609913D01*
X104958000Y-198570500D01*
X104910266Y-198624842D01*
G37*
X104910266Y-198624842D02*
X104894500Y-198729250D01*
X104868273Y-198850091D01*
X104765006Y-198887329D01*
X104735750Y-198888000D01*
X104616414Y-198909736D01*
X104577000Y-198951500D01*
X104631343Y-198999234D01*
X104735750Y-199015000D01*
X104856592Y-199041227D01*
X104893830Y-199144494D01*
X104894500Y-199173750D01*
X104916237Y-199293086D01*
X104958000Y-199332500D01*
X105005735Y-199278157D01*
X105021500Y-199173750D01*
X105047728Y-199052908D01*
X105150995Y-199015670D01*
X105180250Y-199015000D01*
X105299587Y-198993263D01*
X105339000Y-198951500D01*
X105284658Y-198903765D01*
X105180250Y-198888000D01*
X105059409Y-198861772D01*
X105022171Y-198758505D01*
X105021500Y-198729250D01*
X104999764Y-198609913D01*
X104958000Y-198570500D01*
X104910266Y-198624842D01*
G36*
X103613510Y-198020761D02*
G01*
X103541108Y-198177490D01*
X103451549Y-198397258D01*
X103355521Y-198651077D01*
X103263709Y-198909960D01*
X103186800Y-199144919D01*
X103135479Y-199326965D01*
X103120009Y-199415622D01*
X103136309Y-199499894D01*
X103183932Y-199482295D01*
X103248071Y-199379277D01*
X103313922Y-199207297D01*
X103317209Y-199196466D01*
X103372396Y-199035594D01*
X103434626Y-198968031D01*
X103544195Y-198964516D01*
X103620585Y-198976183D01*
X103791602Y-199001525D01*
X103910920Y-199014047D01*
X103919231Y-199014301D01*
X103985136Y-199068401D01*
X104064684Y-199203495D01*
X104093342Y-199269000D01*
X104169577Y-199418992D01*
X104243626Y-199508377D01*
X104295148Y-199525234D01*
X104303805Y-199457639D01*
X104282920Y-199380125D01*
X104245308Y-199202140D01*
X104239917Y-199098492D01*
X104213346Y-198975665D01*
X104168018Y-198929982D01*
X104141351Y-198897597D01*
X103939753Y-198897597D01*
X103734502Y-198853630D01*
X103587180Y-198817366D01*
X103506577Y-198788662D01*
X103504613Y-198787153D01*
X103505779Y-198718541D01*
X103536417Y-198569290D01*
X103562191Y-198470998D01*
X103613041Y-198313379D01*
X103658771Y-198253036D01*
X103710575Y-198296479D01*
X103779644Y-198450219D01*
X103847866Y-198637161D01*
X103939753Y-198897597D01*
X104141351Y-198897597D01*
X104110540Y-198860180D01*
X104026661Y-198701174D01*
X103932031Y-198483595D01*
X103906182Y-198417509D01*
X103813970Y-198197349D01*
X103730465Y-198035457D01*
X103669995Y-197958481D01*
X103658071Y-197956059D01*
X103613510Y-198020761D01*
G37*
X103613510Y-198020761D02*
X103541108Y-198177490D01*
X103451549Y-198397258D01*
X103355521Y-198651077D01*
X103263709Y-198909960D01*
X103186800Y-199144919D01*
X103135479Y-199326965D01*
X103120009Y-199415622D01*
X103136309Y-199499894D01*
X103183932Y-199482295D01*
X103248071Y-199379277D01*
X103313922Y-199207297D01*
X103317209Y-199196466D01*
X103372396Y-199035594D01*
X103434626Y-198968031D01*
X103544195Y-198964516D01*
X103620585Y-198976183D01*
X103791602Y-199001525D01*
X103910920Y-199014047D01*
X103919231Y-199014301D01*
X103985136Y-199068401D01*
X104064684Y-199203495D01*
X104093342Y-199269000D01*
X104169577Y-199418992D01*
X104243626Y-199508377D01*
X104295148Y-199525234D01*
X104303805Y-199457639D01*
X104282920Y-199380125D01*
X104245308Y-199202140D01*
X104239917Y-199098492D01*
X104213346Y-198975665D01*
X104168018Y-198929982D01*
X104141351Y-198897597D01*
X103939753Y-198897597D01*
X103734502Y-198853630D01*
X103587180Y-198817366D01*
X103506577Y-198788662D01*
X103504613Y-198787153D01*
X103505779Y-198718541D01*
X103536417Y-198569290D01*
X103562191Y-198470998D01*
X103613041Y-198313379D01*
X103658771Y-198253036D01*
X103710575Y-198296479D01*
X103779644Y-198450219D01*
X103847866Y-198637161D01*
X103939753Y-198897597D01*
X104141351Y-198897597D01*
X104110540Y-198860180D01*
X104026661Y-198701174D01*
X103932031Y-198483595D01*
X103906182Y-198417509D01*
X103813970Y-198197349D01*
X103730465Y-198035457D01*
X103669995Y-197958481D01*
X103658071Y-197956059D01*
X103613510Y-198020761D01*
G36*
X106953269Y-197992286D02*
G01*
X106886305Y-198145865D01*
X106804159Y-198371070D01*
X106737013Y-198577164D01*
X106653379Y-198836663D01*
X106581833Y-199040697D01*
X106531076Y-199165538D01*
X106511393Y-199192559D01*
X106480007Y-199125331D01*
X106416550Y-198965305D01*
X106331461Y-198739355D01*
X106269346Y-198569447D01*
X106172459Y-198315346D01*
X106084964Y-198110749D01*
X106018815Y-197982349D01*
X105992984Y-197952411D01*
X105955821Y-198001812D01*
X105902567Y-198151183D01*
X105841054Y-198375766D01*
X105792914Y-198584733D01*
X105730836Y-198872052D01*
X105674941Y-199125227D01*
X105632734Y-199310543D01*
X105615808Y-199380125D01*
X105616289Y-199495218D01*
X105670476Y-199519061D01*
X105733484Y-199440456D01*
X105743075Y-199411875D01*
X105771073Y-199298921D01*
X105816511Y-199100648D01*
X105870510Y-198855975D01*
X105881495Y-198805181D01*
X105935255Y-198580568D01*
X105984250Y-198419341D01*
X106020015Y-198348088D01*
X106026986Y-198348318D01*
X106064072Y-198421842D01*
X106130908Y-198586260D01*
X106215898Y-198812383D01*
X106259804Y-198934456D01*
X106352318Y-199177948D01*
X106437358Y-199371140D01*
X106501915Y-199485736D01*
X106521957Y-199504568D01*
X106567609Y-199457484D01*
X106635678Y-199311256D01*
X106716185Y-199089538D01*
X106771164Y-198913763D01*
X106855437Y-198636677D01*
X106918516Y-198469884D01*
X106969314Y-198416123D01*
X107016744Y-198478136D01*
X107069718Y-198658660D01*
X107137149Y-198960435D01*
X107152154Y-199030875D01*
X107207722Y-199260940D01*
X107262104Y-199433500D01*
X107305520Y-199518791D01*
X107313875Y-199523000D01*
X107370215Y-199478023D01*
X107371000Y-199469118D01*
X107357987Y-199388974D01*
X107322630Y-199211792D01*
X107270458Y-198964440D01*
X107212250Y-198697500D01*
X107149749Y-198413122D01*
X107098832Y-198178031D01*
X107064949Y-198017624D01*
X107053500Y-197957631D01*
X107004899Y-197935822D01*
X106994931Y-197935500D01*
X106953269Y-197992286D01*
G37*
X106953269Y-197992286D02*
X106886305Y-198145865D01*
X106804159Y-198371070D01*
X106737013Y-198577164D01*
X106653379Y-198836663D01*
X106581833Y-199040697D01*
X106531076Y-199165538D01*
X106511393Y-199192559D01*
X106480007Y-199125331D01*
X106416550Y-198965305D01*
X106331461Y-198739355D01*
X106269346Y-198569447D01*
X106172459Y-198315346D01*
X106084964Y-198110749D01*
X106018815Y-197982349D01*
X105992984Y-197952411D01*
X105955821Y-198001812D01*
X105902567Y-198151183D01*
X105841054Y-198375766D01*
X105792914Y-198584733D01*
X105730836Y-198872052D01*
X105674941Y-199125227D01*
X105632734Y-199310543D01*
X105615808Y-199380125D01*
X105616289Y-199495218D01*
X105670476Y-199519061D01*
X105733484Y-199440456D01*
X105743075Y-199411875D01*
X105771073Y-199298921D01*
X105816511Y-199100648D01*
X105870510Y-198855975D01*
X105881495Y-198805181D01*
X105935255Y-198580568D01*
X105984250Y-198419341D01*
X106020015Y-198348088D01*
X106026986Y-198348318D01*
X106064072Y-198421842D01*
X106130908Y-198586260D01*
X106215898Y-198812383D01*
X106259804Y-198934456D01*
X106352318Y-199177948D01*
X106437358Y-199371140D01*
X106501915Y-199485736D01*
X106521957Y-199504568D01*
X106567609Y-199457484D01*
X106635678Y-199311256D01*
X106716185Y-199089538D01*
X106771164Y-198913763D01*
X106855437Y-198636677D01*
X106918516Y-198469884D01*
X106969314Y-198416123D01*
X107016744Y-198478136D01*
X107069718Y-198658660D01*
X107137149Y-198960435D01*
X107152154Y-199030875D01*
X107207722Y-199260940D01*
X107262104Y-199433500D01*
X107305520Y-199518791D01*
X107313875Y-199523000D01*
X107370215Y-199478023D01*
X107371000Y-199469118D01*
X107357987Y-199388974D01*
X107322630Y-199211792D01*
X107270458Y-198964440D01*
X107212250Y-198697500D01*
X107149749Y-198413122D01*
X107098832Y-198178031D01*
X107064949Y-198017624D01*
X107053500Y-197957631D01*
X107004899Y-197935822D01*
X106994931Y-197935500D01*
X106953269Y-197992286D01*
G36*
X107498172Y-197962851D02*
G01*
X107498000Y-197970479D01*
X107529406Y-198046913D01*
X107613832Y-198202950D01*
X107736592Y-198414766D01*
X107883002Y-198658537D01*
X108038374Y-198910439D01*
X108188025Y-199146648D01*
X108317267Y-199343339D01*
X108411415Y-199476688D01*
X108455003Y-199523000D01*
X108513071Y-199499849D01*
X108514000Y-199494879D01*
X108484749Y-199427556D01*
X108411829Y-199294229D01*
X108384401Y-199247104D01*
X108254802Y-199027450D01*
X108543151Y-198539728D01*
X108671788Y-198315991D01*
X108770854Y-198131968D01*
X108825427Y-198015910D01*
X108831500Y-197993753D01*
X108808699Y-197933939D01*
X108739339Y-197985596D01*
X108621984Y-198150375D01*
X108460047Y-198421415D01*
X108183843Y-198905982D01*
X107897883Y-198420741D01*
X107735598Y-198160903D01*
X107610754Y-197993324D01*
X107529546Y-197924981D01*
X107498172Y-197962851D01*
G37*
X107498172Y-197962851D02*
X107498000Y-197970479D01*
X107529406Y-198046913D01*
X107613832Y-198202950D01*
X107736592Y-198414766D01*
X107883002Y-198658537D01*
X108038374Y-198910439D01*
X108188025Y-199146648D01*
X108317267Y-199343339D01*
X108411415Y-199476688D01*
X108455003Y-199523000D01*
X108513071Y-199499849D01*
X108514000Y-199494879D01*
X108484749Y-199427556D01*
X108411829Y-199294229D01*
X108384401Y-199247104D01*
X108254802Y-199027450D01*
X108543151Y-198539728D01*
X108671788Y-198315991D01*
X108770854Y-198131968D01*
X108825427Y-198015910D01*
X108831500Y-197993753D01*
X108808699Y-197933939D01*
X108739339Y-197985596D01*
X108621984Y-198150375D01*
X108460047Y-198421415D01*
X108183843Y-198905982D01*
X107897883Y-198420741D01*
X107735598Y-198160903D01*
X107610754Y-197993324D01*
X107529546Y-197924981D01*
X107498172Y-197962851D01*
G36*
X109342829Y-197965339D02*
G01*
X109178089Y-198040621D01*
X109069898Y-198139993D01*
X109049486Y-198242103D01*
X109058136Y-198260096D01*
X109125510Y-198270001D01*
X109224929Y-198190788D01*
X109370558Y-198096166D01*
X109541697Y-198068817D01*
X109708200Y-198097998D01*
X109839921Y-198172968D01*
X109906715Y-198282984D01*
X109878437Y-198417304D01*
X109875228Y-198422515D01*
X109774688Y-198509725D01*
X109607862Y-198594812D01*
X109558053Y-198613256D01*
X109347105Y-198717272D01*
X109166222Y-198862993D01*
X109048715Y-199019137D01*
X109022000Y-199116677D01*
X109064075Y-199223231D01*
X109166508Y-199355529D01*
X109177864Y-199367136D01*
X109388515Y-199495230D01*
X109638965Y-199525606D01*
X109887443Y-199457889D01*
X110012885Y-199374650D01*
X110115622Y-199259725D01*
X110146554Y-199167725D01*
X110142212Y-199156500D01*
X110071116Y-199144065D01*
X109946490Y-199239288D01*
X109944423Y-199241350D01*
X109768369Y-199355955D01*
X109573263Y-199393377D01*
X109392999Y-199359722D01*
X109261467Y-199261096D01*
X109212500Y-199109479D01*
X109273535Y-198945481D01*
X109449449Y-198809106D01*
X109657000Y-198728563D01*
X109827438Y-198648379D01*
X109983008Y-198526083D01*
X110083824Y-198397055D01*
X110101500Y-198334294D01*
X110044466Y-198185499D01*
X109898321Y-198052272D01*
X109700504Y-197960870D01*
X109532887Y-197935500D01*
X109342829Y-197965339D01*
G37*
X109342829Y-197965339D02*
X109178089Y-198040621D01*
X109069898Y-198139993D01*
X109049486Y-198242103D01*
X109058136Y-198260096D01*
X109125510Y-198270001D01*
X109224929Y-198190788D01*
X109370558Y-198096166D01*
X109541697Y-198068817D01*
X109708200Y-198097998D01*
X109839921Y-198172968D01*
X109906715Y-198282984D01*
X109878437Y-198417304D01*
X109875228Y-198422515D01*
X109774688Y-198509725D01*
X109607862Y-198594812D01*
X109558053Y-198613256D01*
X109347105Y-198717272D01*
X109166222Y-198862993D01*
X109048715Y-199019137D01*
X109022000Y-199116677D01*
X109064075Y-199223231D01*
X109166508Y-199355529D01*
X109177864Y-199367136D01*
X109388515Y-199495230D01*
X109638965Y-199525606D01*
X109887443Y-199457889D01*
X110012885Y-199374650D01*
X110115622Y-199259725D01*
X110146554Y-199167725D01*
X110142212Y-199156500D01*
X110071116Y-199144065D01*
X109946490Y-199239288D01*
X109944423Y-199241350D01*
X109768369Y-199355955D01*
X109573263Y-199393377D01*
X109392999Y-199359722D01*
X109261467Y-199261096D01*
X109212500Y-199109479D01*
X109273535Y-198945481D01*
X109449449Y-198809106D01*
X109657000Y-198728563D01*
X109827438Y-198648379D01*
X109983008Y-198526083D01*
X110083824Y-198397055D01*
X110101500Y-198334294D01*
X110044466Y-198185499D01*
X109898321Y-198052272D01*
X109700504Y-197960870D01*
X109532887Y-197935500D01*
X109342829Y-197965339D01*
G36*
X116967250Y-197938946D02*
G01*
X116627843Y-197948970D01*
X116394288Y-197965098D01*
X116275095Y-197986858D01*
X116261000Y-197999000D01*
X116317335Y-198038763D01*
X116458064Y-198060880D01*
X116515000Y-198062500D01*
X116769000Y-198062500D01*
X116769000Y-198792750D01*
X116774294Y-199117678D01*
X116789284Y-199356798D01*
X116812637Y-199494774D01*
X116832500Y-199523000D01*
X116860800Y-199462146D01*
X116881613Y-199289875D01*
X116893590Y-199021619D01*
X116896000Y-198796401D01*
X116896000Y-198069802D01*
X117165875Y-198050276D01*
X117366502Y-198043315D01*
X117636598Y-198043615D01*
X117918847Y-198051085D01*
X117927875Y-198051460D01*
X118420000Y-198072170D01*
X118420000Y-198634000D01*
X118039000Y-198634000D01*
X117836058Y-198643639D01*
X117698470Y-198668822D01*
X117658000Y-198697500D01*
X117715840Y-198731323D01*
X117866937Y-198754255D01*
X118039000Y-198761000D01*
X118420000Y-198761000D01*
X118420000Y-199106502D01*
X118430804Y-199305368D01*
X118458582Y-199447975D01*
X118483500Y-199491250D01*
X118512447Y-199449184D01*
X118532917Y-199285717D01*
X118544464Y-199006191D01*
X118547000Y-198732997D01*
X118547000Y-197935500D01*
X117404000Y-197935500D01*
X116967250Y-197938946D01*
G37*
X116967250Y-197938946D02*
X116627843Y-197948970D01*
X116394288Y-197965098D01*
X116275095Y-197986858D01*
X116261000Y-197999000D01*
X116317335Y-198038763D01*
X116458064Y-198060880D01*
X116515000Y-198062500D01*
X116769000Y-198062500D01*
X116769000Y-198792750D01*
X116774294Y-199117678D01*
X116789284Y-199356798D01*
X116812637Y-199494774D01*
X116832500Y-199523000D01*
X116860800Y-199462146D01*
X116881613Y-199289875D01*
X116893590Y-199021619D01*
X116896000Y-198796401D01*
X116896000Y-198069802D01*
X117165875Y-198050276D01*
X117366502Y-198043315D01*
X117636598Y-198043615D01*
X117918847Y-198051085D01*
X117927875Y-198051460D01*
X118420000Y-198072170D01*
X118420000Y-198634000D01*
X118039000Y-198634000D01*
X117836058Y-198643639D01*
X117698470Y-198668822D01*
X117658000Y-198697500D01*
X117715840Y-198731323D01*
X117866937Y-198754255D01*
X118039000Y-198761000D01*
X118420000Y-198761000D01*
X118420000Y-199106502D01*
X118430804Y-199305368D01*
X118458582Y-199447975D01*
X118483500Y-199491250D01*
X118512447Y-199449184D01*
X118532917Y-199285717D01*
X118544464Y-199006191D01*
X118547000Y-198732997D01*
X118547000Y-197935500D01*
X117404000Y-197935500D01*
X116967250Y-197938946D01*
G36*
X119162161Y-197942160D02*
G01*
X118966823Y-197960597D01*
X118870831Y-197988495D01*
X118864500Y-197999000D01*
X118923913Y-198030446D01*
X119086115Y-198052545D01*
X119327056Y-198062288D01*
X119372500Y-198062500D01*
X119880500Y-198062500D01*
X119880500Y-198634000D01*
X119436000Y-198634000D01*
X119207983Y-198642390D01*
X119050425Y-198664878D01*
X118991501Y-198697438D01*
X118991500Y-198697500D01*
X119050233Y-198730073D01*
X119207647Y-198752582D01*
X119435569Y-198760999D01*
X119436000Y-198761000D01*
X119880500Y-198761000D01*
X119880500Y-199396000D01*
X119372500Y-199396000D01*
X119120926Y-199403426D01*
X118944140Y-199423701D01*
X118866194Y-199453819D01*
X118864500Y-199459500D01*
X118924445Y-199489926D01*
X119090382Y-199511630D01*
X119341463Y-199522296D01*
X119436000Y-199523000D01*
X120007500Y-199523000D01*
X120007500Y-197935500D01*
X119436000Y-197935500D01*
X119162161Y-197942160D01*
G37*
X119162161Y-197942160D02*
X118966823Y-197960597D01*
X118870831Y-197988495D01*
X118864500Y-197999000D01*
X118923913Y-198030446D01*
X119086115Y-198052545D01*
X119327056Y-198062288D01*
X119372500Y-198062500D01*
X119880500Y-198062500D01*
X119880500Y-198634000D01*
X119436000Y-198634000D01*
X119207983Y-198642390D01*
X119050425Y-198664878D01*
X118991501Y-198697438D01*
X118991500Y-198697500D01*
X119050233Y-198730073D01*
X119207647Y-198752582D01*
X119435569Y-198760999D01*
X119436000Y-198761000D01*
X119880500Y-198761000D01*
X119880500Y-199396000D01*
X119372500Y-199396000D01*
X119120926Y-199403426D01*
X118944140Y-199423701D01*
X118866194Y-199453819D01*
X118864500Y-199459500D01*
X118924445Y-199489926D01*
X119090382Y-199511630D01*
X119341463Y-199522296D01*
X119436000Y-199523000D01*
X120007500Y-199523000D01*
X120007500Y-197935500D01*
X119436000Y-197935500D01*
X119162161Y-197942160D01*
G36*
X121034399Y-198021475D02*
G01*
X121005734Y-198172357D01*
X120983324Y-198446265D01*
X120973854Y-198691039D01*
X120955957Y-199383590D01*
X120576979Y-199349225D01*
X120342225Y-199341152D01*
X120218330Y-199361835D01*
X120209158Y-199400040D01*
X120318570Y-199444531D01*
X120531375Y-199481853D01*
X120800853Y-199510997D01*
X120970538Y-199518431D01*
X121066072Y-199502322D01*
X121113099Y-199460836D01*
X121123011Y-199439544D01*
X121134486Y-199344767D01*
X121140682Y-199153039D01*
X121141067Y-198894318D01*
X121136893Y-198661669D01*
X121120565Y-198313716D01*
X121095550Y-198091482D01*
X121065582Y-197994293D01*
X121034399Y-198021475D01*
G37*
X121034399Y-198021475D02*
X121005734Y-198172357D01*
X120983324Y-198446265D01*
X120973854Y-198691039D01*
X120955957Y-199383590D01*
X120576979Y-199349225D01*
X120342225Y-199341152D01*
X120218330Y-199361835D01*
X120209158Y-199400040D01*
X120318570Y-199444531D01*
X120531375Y-199481853D01*
X120800853Y-199510997D01*
X120970538Y-199518431D01*
X121066072Y-199502322D01*
X121113099Y-199460836D01*
X121123011Y-199439544D01*
X121134486Y-199344767D01*
X121140682Y-199153039D01*
X121141067Y-198894318D01*
X121136893Y-198661669D01*
X121120565Y-198313716D01*
X121095550Y-198091482D01*
X121065582Y-197994293D01*
X121034399Y-198021475D01*
G36*
X104906408Y-201100184D02*
G01*
X104894500Y-201174000D01*
X104857294Y-201273588D01*
X104735750Y-201301000D01*
X104616414Y-201322736D01*
X104577000Y-201364500D01*
X104631343Y-201412234D01*
X104735750Y-201428000D01*
X104856592Y-201454227D01*
X104893830Y-201557494D01*
X104894500Y-201586750D01*
X104916237Y-201706086D01*
X104958000Y-201745500D01*
X105005735Y-201691157D01*
X105021500Y-201586750D01*
X105047728Y-201465908D01*
X105150995Y-201428670D01*
X105180250Y-201428000D01*
X105299587Y-201406263D01*
X105339000Y-201364500D01*
X105284658Y-201316765D01*
X105180250Y-201301000D01*
X105055765Y-201271234D01*
X105021500Y-201174000D01*
X104994908Y-201070814D01*
X104958000Y-201047000D01*
X104906408Y-201100184D01*
G37*
X104906408Y-201100184D02*
X104894500Y-201174000D01*
X104857294Y-201273588D01*
X104735750Y-201301000D01*
X104616414Y-201322736D01*
X104577000Y-201364500D01*
X104631343Y-201412234D01*
X104735750Y-201428000D01*
X104856592Y-201454227D01*
X104893830Y-201557494D01*
X104894500Y-201586750D01*
X104916237Y-201706086D01*
X104958000Y-201745500D01*
X105005735Y-201691157D01*
X105021500Y-201586750D01*
X105047728Y-201465908D01*
X105150995Y-201428670D01*
X105180250Y-201428000D01*
X105299587Y-201406263D01*
X105339000Y-201364500D01*
X105284658Y-201316765D01*
X105180250Y-201301000D01*
X105055765Y-201271234D01*
X105021500Y-201174000D01*
X104994908Y-201070814D01*
X104958000Y-201047000D01*
X104906408Y-201100184D01*
G36*
X105969780Y-200437719D02*
G01*
X105920008Y-200590927D01*
X105859081Y-200811076D01*
X105793864Y-201069369D01*
X105731224Y-201337006D01*
X105678028Y-201585190D01*
X105641141Y-201785122D01*
X105627429Y-201908004D01*
X105631609Y-201931766D01*
X105685404Y-201930013D01*
X105745176Y-201816488D01*
X105812889Y-201586079D01*
X105880193Y-201284580D01*
X105933946Y-201043827D01*
X105982699Y-200864022D01*
X106019065Y-200770782D01*
X106030182Y-200764514D01*
X106066350Y-200836691D01*
X106133008Y-200999813D01*
X106218602Y-201224984D01*
X106263883Y-201349014D01*
X106357952Y-201592636D01*
X106444523Y-201786156D01*
X106510397Y-201901337D01*
X106531123Y-201920624D01*
X106579415Y-201874245D01*
X106649452Y-201727344D01*
X106731358Y-201502395D01*
X106772866Y-201370378D01*
X106851188Y-201126322D01*
X106920769Y-200939943D01*
X106971703Y-200836314D01*
X106988734Y-200823967D01*
X107020626Y-200894364D01*
X107068356Y-201059233D01*
X107123567Y-201288373D01*
X107146346Y-201393508D01*
X107203174Y-201636227D01*
X107258087Y-201822862D01*
X107302241Y-201925067D01*
X107315596Y-201936000D01*
X107369350Y-201887355D01*
X107371000Y-201871827D01*
X107358081Y-201787192D01*
X107323107Y-201605888D01*
X107271757Y-201355181D01*
X107209709Y-201062338D01*
X107142642Y-200754624D01*
X107082975Y-200488777D01*
X107043615Y-200388299D01*
X106992168Y-200392653D01*
X106925122Y-200507157D01*
X106838965Y-200737126D01*
X106765504Y-200969316D01*
X106686268Y-201219819D01*
X106615460Y-201423524D01*
X106563972Y-201549930D01*
X106549645Y-201573857D01*
X106510179Y-201539531D01*
X106441085Y-201407189D01*
X106352984Y-201199265D01*
X106279086Y-201002357D01*
X106182194Y-200745167D01*
X106095357Y-200539765D01*
X106029750Y-200411196D01*
X106001530Y-200380250D01*
X105969780Y-200437719D01*
G37*
X105969780Y-200437719D02*
X105920008Y-200590927D01*
X105859081Y-200811076D01*
X105793864Y-201069369D01*
X105731224Y-201337006D01*
X105678028Y-201585190D01*
X105641141Y-201785122D01*
X105627429Y-201908004D01*
X105631609Y-201931766D01*
X105685404Y-201930013D01*
X105745176Y-201816488D01*
X105812889Y-201586079D01*
X105880193Y-201284580D01*
X105933946Y-201043827D01*
X105982699Y-200864022D01*
X106019065Y-200770782D01*
X106030182Y-200764514D01*
X106066350Y-200836691D01*
X106133008Y-200999813D01*
X106218602Y-201224984D01*
X106263883Y-201349014D01*
X106357952Y-201592636D01*
X106444523Y-201786156D01*
X106510397Y-201901337D01*
X106531123Y-201920624D01*
X106579415Y-201874245D01*
X106649452Y-201727344D01*
X106731358Y-201502395D01*
X106772866Y-201370378D01*
X106851188Y-201126322D01*
X106920769Y-200939943D01*
X106971703Y-200836314D01*
X106988734Y-200823967D01*
X107020626Y-200894364D01*
X107068356Y-201059233D01*
X107123567Y-201288373D01*
X107146346Y-201393508D01*
X107203174Y-201636227D01*
X107258087Y-201822862D01*
X107302241Y-201925067D01*
X107315596Y-201936000D01*
X107369350Y-201887355D01*
X107371000Y-201871827D01*
X107358081Y-201787192D01*
X107323107Y-201605888D01*
X107271757Y-201355181D01*
X107209709Y-201062338D01*
X107142642Y-200754624D01*
X107082975Y-200488777D01*
X107043615Y-200388299D01*
X106992168Y-200392653D01*
X106925122Y-200507157D01*
X106838965Y-200737126D01*
X106765504Y-200969316D01*
X106686268Y-201219819D01*
X106615460Y-201423524D01*
X106563972Y-201549930D01*
X106549645Y-201573857D01*
X106510179Y-201539531D01*
X106441085Y-201407189D01*
X106352984Y-201199265D01*
X106279086Y-201002357D01*
X106182194Y-200745167D01*
X106095357Y-200539765D01*
X106029750Y-200411196D01*
X106001530Y-200380250D01*
X105969780Y-200437719D01*
G36*
X107534398Y-200462959D02*
G01*
X107579584Y-200560755D01*
X107647076Y-200670184D01*
X107761379Y-200860517D01*
X107905298Y-201102966D01*
X108031239Y-201316875D01*
X108180965Y-201563629D01*
X108311847Y-201763696D01*
X108408777Y-201894960D01*
X108454205Y-201936000D01*
X108512956Y-201913110D01*
X108514000Y-201907879D01*
X108485169Y-201840079D01*
X108413720Y-201707382D01*
X108392144Y-201669754D01*
X108270288Y-201459750D01*
X108556335Y-200968071D01*
X108680989Y-200740521D01*
X108771647Y-200549165D01*
X108814941Y-200423480D01*
X108815537Y-200396571D01*
X108775218Y-200411504D01*
X108689553Y-200518136D01*
X108573545Y-200696423D01*
X108508472Y-200806836D01*
X108380677Y-201024656D01*
X108275706Y-201193038D01*
X108209473Y-201286918D01*
X108196500Y-201298182D01*
X108152648Y-201247678D01*
X108062693Y-201111719D01*
X107942931Y-200915463D01*
X107889187Y-200823739D01*
X107759215Y-200614682D01*
X107646906Y-200461719D01*
X107569930Y-200387819D01*
X107552361Y-200385898D01*
X107534398Y-200462959D01*
G37*
X107534398Y-200462959D02*
X107579584Y-200560755D01*
X107647076Y-200670184D01*
X107761379Y-200860517D01*
X107905298Y-201102966D01*
X108031239Y-201316875D01*
X108180965Y-201563629D01*
X108311847Y-201763696D01*
X108408777Y-201894960D01*
X108454205Y-201936000D01*
X108512956Y-201913110D01*
X108514000Y-201907879D01*
X108485169Y-201840079D01*
X108413720Y-201707382D01*
X108392144Y-201669754D01*
X108270288Y-201459750D01*
X108556335Y-200968071D01*
X108680989Y-200740521D01*
X108771647Y-200549165D01*
X108814941Y-200423480D01*
X108815537Y-200396571D01*
X108775218Y-200411504D01*
X108689553Y-200518136D01*
X108573545Y-200696423D01*
X108508472Y-200806836D01*
X108380677Y-201024656D01*
X108275706Y-201193038D01*
X108209473Y-201286918D01*
X108196500Y-201298182D01*
X108152648Y-201247678D01*
X108062693Y-201111719D01*
X107942931Y-200915463D01*
X107889187Y-200823739D01*
X107759215Y-200614682D01*
X107646906Y-200461719D01*
X107569930Y-200387819D01*
X107552361Y-200385898D01*
X107534398Y-200462959D01*
G36*
X114590161Y-200355160D02*
G01*
X114394823Y-200373597D01*
X114298831Y-200401495D01*
X114292500Y-200412000D01*
X114348835Y-200451763D01*
X114489564Y-200473880D01*
X114546500Y-200475500D01*
X114800500Y-200475500D01*
X114800500Y-201205750D01*
X114805794Y-201530678D01*
X114820784Y-201769798D01*
X114844137Y-201907774D01*
X114864000Y-201936000D01*
X114892255Y-201875129D01*
X114913048Y-201702743D01*
X114925046Y-201434175D01*
X114927500Y-201205750D01*
X114927500Y-200475500D01*
X115181500Y-200475500D01*
X115340556Y-200461416D01*
X115429024Y-200426234D01*
X115435500Y-200412000D01*
X115375556Y-200381573D01*
X115209619Y-200359869D01*
X114958538Y-200349203D01*
X114864000Y-200348500D01*
X114590161Y-200355160D01*
G37*
X114590161Y-200355160D02*
X114394823Y-200373597D01*
X114298831Y-200401495D01*
X114292500Y-200412000D01*
X114348835Y-200451763D01*
X114489564Y-200473880D01*
X114546500Y-200475500D01*
X114800500Y-200475500D01*
X114800500Y-201205750D01*
X114805794Y-201530678D01*
X114820784Y-201769798D01*
X114844137Y-201907774D01*
X114864000Y-201936000D01*
X114892255Y-201875129D01*
X114913048Y-201702743D01*
X114925046Y-201434175D01*
X114927500Y-201205750D01*
X114927500Y-200475500D01*
X115181500Y-200475500D01*
X115340556Y-200461416D01*
X115429024Y-200426234D01*
X115435500Y-200412000D01*
X115375556Y-200381573D01*
X115209619Y-200359869D01*
X114958538Y-200349203D01*
X114864000Y-200348500D01*
X114590161Y-200355160D01*
G36*
X115661992Y-200409633D02*
G01*
X115641535Y-200583850D01*
X115629232Y-200857371D01*
X115626000Y-201142250D01*
X115630891Y-201486105D01*
X115644829Y-201741817D01*
X115666710Y-201895605D01*
X115689500Y-201936000D01*
X115722949Y-201877874D01*
X115745757Y-201724752D01*
X115753000Y-201536611D01*
X115753000Y-201137222D01*
X116261000Y-201196388D01*
X116769000Y-201255553D01*
X116769000Y-201560279D01*
X116784367Y-201754157D01*
X116823180Y-201882799D01*
X116874515Y-201926152D01*
X116927444Y-201864167D01*
X116930467Y-201856568D01*
X116947857Y-201746675D01*
X116955151Y-201556220D01*
X116953706Y-201315102D01*
X116944875Y-201053218D01*
X116930013Y-200800463D01*
X116910475Y-200586737D01*
X116887617Y-200441934D01*
X116864250Y-200395394D01*
X116826468Y-200461687D01*
X116795313Y-200616992D01*
X116781532Y-200766366D01*
X116762314Y-201122193D01*
X116368782Y-201080027D01*
X116086552Y-201047859D01*
X115907210Y-201013963D01*
X115807431Y-200962494D01*
X115763889Y-200877606D01*
X115753260Y-200743456D01*
X115753000Y-200661720D01*
X115741431Y-200482013D01*
X115711890Y-200368719D01*
X115689500Y-200348500D01*
X115661992Y-200409633D01*
G37*
X115661992Y-200409633D02*
X115641535Y-200583850D01*
X115629232Y-200857371D01*
X115626000Y-201142250D01*
X115630891Y-201486105D01*
X115644829Y-201741817D01*
X115666710Y-201895605D01*
X115689500Y-201936000D01*
X115722949Y-201877874D01*
X115745757Y-201724752D01*
X115753000Y-201536611D01*
X115753000Y-201137222D01*
X116261000Y-201196388D01*
X116769000Y-201255553D01*
X116769000Y-201560279D01*
X116784367Y-201754157D01*
X116823180Y-201882799D01*
X116874515Y-201926152D01*
X116927444Y-201864167D01*
X116930467Y-201856568D01*
X116947857Y-201746675D01*
X116955151Y-201556220D01*
X116953706Y-201315102D01*
X116944875Y-201053218D01*
X116930013Y-200800463D01*
X116910475Y-200586737D01*
X116887617Y-200441934D01*
X116864250Y-200395394D01*
X116826468Y-200461687D01*
X116795313Y-200616992D01*
X116781532Y-200766366D01*
X116762314Y-201122193D01*
X116368782Y-201080027D01*
X116086552Y-201047859D01*
X115907210Y-201013963D01*
X115807431Y-200962494D01*
X115763889Y-200877606D01*
X115753260Y-200743456D01*
X115753000Y-200661720D01*
X115741431Y-200482013D01*
X115711890Y-200368719D01*
X115689500Y-200348500D01*
X115661992Y-200409633D01*
G36*
X117769442Y-200381266D02*
G01*
X117535873Y-200512894D01*
X117411211Y-200638535D01*
X117344184Y-200746486D01*
X117340500Y-200766894D01*
X117350486Y-200838700D01*
X117393836Y-200838565D01*
X117490640Y-200758188D01*
X117584731Y-200666000D01*
X117808450Y-200508711D01*
X118035098Y-200477979D01*
X118259583Y-200573836D01*
X118361385Y-200661115D01*
X118506340Y-200886856D01*
X118559407Y-201154860D01*
X118519290Y-201422702D01*
X118391283Y-201640977D01*
X118184739Y-201780531D01*
X117948969Y-201810675D01*
X117720195Y-201730834D01*
X117623364Y-201653136D01*
X117495732Y-201502124D01*
X117478316Y-201413558D01*
X117571432Y-201386234D01*
X117689750Y-201400439D01*
X117848536Y-201413751D01*
X117911726Y-201380504D01*
X117912000Y-201376612D01*
X117856143Y-201314736D01*
X117718476Y-201271001D01*
X117543858Y-201254367D01*
X117385804Y-201271522D01*
X117224307Y-201312055D01*
X117352973Y-201530128D01*
X117472308Y-201698606D01*
X117598040Y-201828741D01*
X117615699Y-201842100D01*
X117814880Y-201917019D01*
X118064886Y-201925140D01*
X118308665Y-201866690D01*
X118366778Y-201839112D01*
X118513550Y-201702548D01*
X118636719Y-201482360D01*
X118645280Y-201460654D01*
X118708171Y-201277936D01*
X118721613Y-201144902D01*
X118685412Y-200996477D01*
X118643573Y-200882874D01*
X118487711Y-200613346D01*
X118274376Y-200434661D01*
X118027106Y-200354680D01*
X117769442Y-200381266D01*
G37*
X117769442Y-200381266D02*
X117535873Y-200512894D01*
X117411211Y-200638535D01*
X117344184Y-200746486D01*
X117340500Y-200766894D01*
X117350486Y-200838700D01*
X117393836Y-200838565D01*
X117490640Y-200758188D01*
X117584731Y-200666000D01*
X117808450Y-200508711D01*
X118035098Y-200477979D01*
X118259583Y-200573836D01*
X118361385Y-200661115D01*
X118506340Y-200886856D01*
X118559407Y-201154860D01*
X118519290Y-201422702D01*
X118391283Y-201640977D01*
X118184739Y-201780531D01*
X117948969Y-201810675D01*
X117720195Y-201730834D01*
X117623364Y-201653136D01*
X117495732Y-201502124D01*
X117478316Y-201413558D01*
X117571432Y-201386234D01*
X117689750Y-201400439D01*
X117848536Y-201413751D01*
X117911726Y-201380504D01*
X117912000Y-201376612D01*
X117856143Y-201314736D01*
X117718476Y-201271001D01*
X117543858Y-201254367D01*
X117385804Y-201271522D01*
X117224307Y-201312055D01*
X117352973Y-201530128D01*
X117472308Y-201698606D01*
X117598040Y-201828741D01*
X117615699Y-201842100D01*
X117814880Y-201917019D01*
X118064886Y-201925140D01*
X118308665Y-201866690D01*
X118366778Y-201839112D01*
X118513550Y-201702548D01*
X118636719Y-201482360D01*
X118645280Y-201460654D01*
X118708171Y-201277936D01*
X118721613Y-201144902D01*
X118685412Y-200996477D01*
X118643573Y-200882874D01*
X118487711Y-200613346D01*
X118274376Y-200434661D01*
X118027106Y-200354680D01*
X117769442Y-200381266D01*
G36*
X119146913Y-200359045D02*
G01*
X119021423Y-200386223D01*
X118991500Y-200412000D01*
X119045843Y-200459734D01*
X119150250Y-200475500D01*
X119309000Y-200475500D01*
X119309000Y-201142250D01*
X119307297Y-201439989D01*
X119299430Y-201633130D01*
X119281260Y-201744054D01*
X119248650Y-201795147D01*
X119197461Y-201808793D01*
X119185748Y-201809000D01*
X119064187Y-201838158D01*
X119023250Y-201872500D01*
X119057167Y-201909471D01*
X119204385Y-201931168D01*
X119372500Y-201936000D01*
X119592961Y-201926721D01*
X119709474Y-201900466D01*
X119721750Y-201872500D01*
X119632186Y-201819155D01*
X119559253Y-201809000D01*
X119504214Y-201799787D01*
X119468511Y-201757226D01*
X119448006Y-201658933D01*
X119438561Y-201482524D01*
X119436039Y-201205614D01*
X119436000Y-201142250D01*
X119436000Y-200475500D01*
X119598498Y-200475500D01*
X119706536Y-200455342D01*
X119721750Y-200412000D01*
X119641136Y-200376677D01*
X119475751Y-200353622D01*
X119337003Y-200348500D01*
X119146913Y-200359045D01*
G37*
X119146913Y-200359045D02*
X119021423Y-200386223D01*
X118991500Y-200412000D01*
X119045843Y-200459734D01*
X119150250Y-200475500D01*
X119309000Y-200475500D01*
X119309000Y-201142250D01*
X119307297Y-201439989D01*
X119299430Y-201633130D01*
X119281260Y-201744054D01*
X119248650Y-201795147D01*
X119197461Y-201808793D01*
X119185748Y-201809000D01*
X119064187Y-201838158D01*
X119023250Y-201872500D01*
X119057167Y-201909471D01*
X119204385Y-201931168D01*
X119372500Y-201936000D01*
X119592961Y-201926721D01*
X119709474Y-201900466D01*
X119721750Y-201872500D01*
X119632186Y-201819155D01*
X119559253Y-201809000D01*
X119504214Y-201799787D01*
X119468511Y-201757226D01*
X119448006Y-201658933D01*
X119438561Y-201482524D01*
X119436039Y-201205614D01*
X119436000Y-201142250D01*
X119436000Y-200475500D01*
X119598498Y-200475500D01*
X119706536Y-200455342D01*
X119721750Y-200412000D01*
X119641136Y-200376677D01*
X119475751Y-200353622D01*
X119337003Y-200348500D01*
X119146913Y-200359045D01*
G36*
X120514297Y-200382877D02*
G01*
X120272781Y-200479775D01*
X120124631Y-200629846D01*
X120095611Y-200703587D01*
X120092371Y-200900582D01*
X120162656Y-201083261D01*
X120284868Y-201203369D01*
X120326530Y-201219500D01*
X120415075Y-201249568D01*
X120438928Y-201294063D01*
X120391198Y-201377468D01*
X120264995Y-201524262D01*
X120229750Y-201563361D01*
X120080631Y-201746163D01*
X120009481Y-201874134D01*
X120023305Y-201933493D01*
X120040319Y-201936000D01*
X120097833Y-201893712D01*
X120215376Y-201783416D01*
X120351554Y-201645427D01*
X120525244Y-201478234D01*
X120656140Y-201393831D01*
X120777031Y-201372954D01*
X120810861Y-201375552D01*
X120926375Y-201402162D01*
X120983336Y-201472227D01*
X121007993Y-201623805D01*
X121011277Y-201666125D01*
X121035762Y-201831025D01*
X121074239Y-201926489D01*
X121090652Y-201936000D01*
X121114441Y-201876008D01*
X121133398Y-201709984D01*
X121145944Y-201458854D01*
X121148900Y-201254221D01*
X121023500Y-201254221D01*
X120767081Y-201219828D01*
X120557995Y-201171262D01*
X120376615Y-201096492D01*
X120354331Y-201083004D01*
X120231331Y-200943366D01*
X120201919Y-200774857D01*
X120271657Y-200622971D01*
X120295357Y-200600751D01*
X120413809Y-200547248D01*
X120603685Y-200503340D01*
X120708107Y-200489647D01*
X121023500Y-200459341D01*
X121023500Y-201254221D01*
X121148900Y-201254221D01*
X121150500Y-201143543D01*
X121150500Y-200348500D01*
X120829847Y-200348500D01*
X120514297Y-200382877D01*
G37*
X120514297Y-200382877D02*
X120272781Y-200479775D01*
X120124631Y-200629846D01*
X120095611Y-200703587D01*
X120092371Y-200900582D01*
X120162656Y-201083261D01*
X120284868Y-201203369D01*
X120326530Y-201219500D01*
X120415075Y-201249568D01*
X120438928Y-201294063D01*
X120391198Y-201377468D01*
X120264995Y-201524262D01*
X120229750Y-201563361D01*
X120080631Y-201746163D01*
X120009481Y-201874134D01*
X120023305Y-201933493D01*
X120040319Y-201936000D01*
X120097833Y-201893712D01*
X120215376Y-201783416D01*
X120351554Y-201645427D01*
X120525244Y-201478234D01*
X120656140Y-201393831D01*
X120777031Y-201372954D01*
X120810861Y-201375552D01*
X120926375Y-201402162D01*
X120983336Y-201472227D01*
X121007993Y-201623805D01*
X121011277Y-201666125D01*
X121035762Y-201831025D01*
X121074239Y-201926489D01*
X121090652Y-201936000D01*
X121114441Y-201876008D01*
X121133398Y-201709984D01*
X121145944Y-201458854D01*
X121148900Y-201254221D01*
X121023500Y-201254221D01*
X120767081Y-201219828D01*
X120557995Y-201171262D01*
X120376615Y-201096492D01*
X120354331Y-201083004D01*
X120231331Y-200943366D01*
X120201919Y-200774857D01*
X120271657Y-200622971D01*
X120295357Y-200600751D01*
X120413809Y-200547248D01*
X120603685Y-200503340D01*
X120708107Y-200489647D01*
X121023500Y-200459341D01*
X121023500Y-201254221D01*
X121148900Y-201254221D01*
X121150500Y-201143543D01*
X121150500Y-200348500D01*
X120829847Y-200348500D01*
X120514297Y-200382877D01*
G36*
X103926571Y-200400621D02*
G01*
X103900838Y-200406972D01*
X103590311Y-200507727D01*
X103379320Y-200638411D01*
X103240889Y-200817834D01*
X103206447Y-200891149D01*
X103125273Y-201217494D01*
X103158535Y-201506552D01*
X103295519Y-201742645D01*
X103525513Y-201910095D01*
X103837804Y-201993226D01*
X103963803Y-201999500D01*
X104169750Y-201981049D01*
X104272407Y-201921769D01*
X104284457Y-201899056D01*
X104289012Y-201872500D01*
X104132500Y-201872500D01*
X103887064Y-201872500D01*
X103631413Y-201826657D01*
X103476675Y-201742748D01*
X103321898Y-201545401D01*
X103264735Y-201291251D01*
X103311139Y-201011400D01*
X103328233Y-200967126D01*
X103454931Y-200762395D01*
X103649513Y-200624371D01*
X103924632Y-200535756D01*
X104132500Y-200488874D01*
X104132500Y-201872500D01*
X104289012Y-201872500D01*
X104304799Y-201780471D01*
X104317044Y-201575225D01*
X104321638Y-201317237D01*
X104319027Y-201040424D01*
X104309658Y-200778706D01*
X104293976Y-200566003D01*
X104272428Y-200436232D01*
X104264991Y-200418709D01*
X104209315Y-200369804D01*
X104108371Y-200364157D01*
X103926571Y-200400621D01*
G37*
X103926571Y-200400621D02*
X103900838Y-200406972D01*
X103590311Y-200507727D01*
X103379320Y-200638411D01*
X103240889Y-200817834D01*
X103206447Y-200891149D01*
X103125273Y-201217494D01*
X103158535Y-201506552D01*
X103295519Y-201742645D01*
X103525513Y-201910095D01*
X103837804Y-201993226D01*
X103963803Y-201999500D01*
X104169750Y-201981049D01*
X104272407Y-201921769D01*
X104284457Y-201899056D01*
X104289012Y-201872500D01*
X104132500Y-201872500D01*
X103887064Y-201872500D01*
X103631413Y-201826657D01*
X103476675Y-201742748D01*
X103321898Y-201545401D01*
X103264735Y-201291251D01*
X103311139Y-201011400D01*
X103328233Y-200967126D01*
X103454931Y-200762395D01*
X103649513Y-200624371D01*
X103924632Y-200535756D01*
X104132500Y-200488874D01*
X104132500Y-201872500D01*
X104289012Y-201872500D01*
X104304799Y-201780471D01*
X104317044Y-201575225D01*
X104321638Y-201317237D01*
X104319027Y-201040424D01*
X104309658Y-200778706D01*
X104293976Y-200566003D01*
X104272428Y-200436232D01*
X104264991Y-200418709D01*
X104209315Y-200369804D01*
X104108371Y-200364157D01*
X103926571Y-200400621D01*
G36*
X109261994Y-200422391D02*
G01*
X109128664Y-200531409D01*
X109107779Y-200572535D01*
X109090360Y-200682634D01*
X109146216Y-200699572D01*
X109258542Y-200619713D01*
X109270709Y-200607791D01*
X109437826Y-200503553D01*
X109618122Y-200482431D01*
X109777516Y-200534316D01*
X109881926Y-200649095D01*
X109901156Y-200794832D01*
X109856103Y-200902855D01*
X109737884Y-200990924D01*
X109563119Y-201065414D01*
X109321086Y-201163520D01*
X109177160Y-201251957D01*
X109106917Y-201354459D01*
X109085935Y-201494760D01*
X109085500Y-201529561D01*
X109140745Y-201733696D01*
X109289796Y-201879623D01*
X109507627Y-201953946D01*
X109769214Y-201943268D01*
X109830160Y-201928179D01*
X109994115Y-201849278D01*
X110104111Y-201740587D01*
X110105180Y-201738625D01*
X110144158Y-201614846D01*
X110115742Y-201558979D01*
X110041798Y-201595988D01*
X110011759Y-201631978D01*
X109853373Y-201772006D01*
X109665168Y-201832717D01*
X109479996Y-201818778D01*
X109330707Y-201734855D01*
X109250151Y-201585615D01*
X109244250Y-201522955D01*
X109256521Y-201411239D01*
X109312232Y-201332418D01*
X109439733Y-201259972D01*
X109593500Y-201196240D01*
X109880516Y-201052394D01*
X110041823Y-200896063D01*
X110078202Y-200726117D01*
X110018829Y-200581034D01*
X109874567Y-200452898D01*
X109674182Y-200383502D01*
X109456912Y-200373211D01*
X109261994Y-200422391D01*
G37*
X109261994Y-200422391D02*
X109128664Y-200531409D01*
X109107779Y-200572535D01*
X109090360Y-200682634D01*
X109146216Y-200699572D01*
X109258542Y-200619713D01*
X109270709Y-200607791D01*
X109437826Y-200503553D01*
X109618122Y-200482431D01*
X109777516Y-200534316D01*
X109881926Y-200649095D01*
X109901156Y-200794832D01*
X109856103Y-200902855D01*
X109737884Y-200990924D01*
X109563119Y-201065414D01*
X109321086Y-201163520D01*
X109177160Y-201251957D01*
X109106917Y-201354459D01*
X109085935Y-201494760D01*
X109085500Y-201529561D01*
X109140745Y-201733696D01*
X109289796Y-201879623D01*
X109507627Y-201953946D01*
X109769214Y-201943268D01*
X109830160Y-201928179D01*
X109994115Y-201849278D01*
X110104111Y-201740587D01*
X110105180Y-201738625D01*
X110144158Y-201614846D01*
X110115742Y-201558979D01*
X110041798Y-201595988D01*
X110011759Y-201631978D01*
X109853373Y-201772006D01*
X109665168Y-201832717D01*
X109479996Y-201818778D01*
X109330707Y-201734855D01*
X109250151Y-201585615D01*
X109244250Y-201522955D01*
X109256521Y-201411239D01*
X109312232Y-201332418D01*
X109439733Y-201259972D01*
X109593500Y-201196240D01*
X109880516Y-201052394D01*
X110041823Y-200896063D01*
X110078202Y-200726117D01*
X110018829Y-200581034D01*
X109874567Y-200452898D01*
X109674182Y-200383502D01*
X109456912Y-200373211D01*
X109261994Y-200422391D01*
G36*
X113531610Y-202831668D02*
G01*
X113325808Y-202849505D01*
X113201939Y-202875256D01*
X113181250Y-202888500D01*
X113211372Y-202928850D01*
X113349506Y-202949968D01*
X113431503Y-202952000D01*
X113721000Y-202952000D01*
X113721000Y-203682250D01*
X113726294Y-204007178D01*
X113741284Y-204246298D01*
X113764637Y-204384274D01*
X113784500Y-204412500D01*
X113812755Y-204351629D01*
X113833548Y-204179243D01*
X113845546Y-203910675D01*
X113848000Y-203682250D01*
X113848000Y-202952000D01*
X114102000Y-202952000D01*
X114261056Y-202937916D01*
X114349524Y-202902734D01*
X114356000Y-202888500D01*
X114296084Y-202858015D01*
X114130345Y-202836288D01*
X113879798Y-202825669D01*
X113788248Y-202825000D01*
X113531610Y-202831668D01*
G37*
X113531610Y-202831668D02*
X113325808Y-202849505D01*
X113201939Y-202875256D01*
X113181250Y-202888500D01*
X113211372Y-202928850D01*
X113349506Y-202949968D01*
X113431503Y-202952000D01*
X113721000Y-202952000D01*
X113721000Y-203682250D01*
X113726294Y-204007178D01*
X113741284Y-204246298D01*
X113764637Y-204384274D01*
X113784500Y-204412500D01*
X113812755Y-204351629D01*
X113833548Y-204179243D01*
X113845546Y-203910675D01*
X113848000Y-203682250D01*
X113848000Y-202952000D01*
X114102000Y-202952000D01*
X114261056Y-202937916D01*
X114349524Y-202902734D01*
X114356000Y-202888500D01*
X114296084Y-202858015D01*
X114130345Y-202836288D01*
X113879798Y-202825669D01*
X113788248Y-202825000D01*
X113531610Y-202831668D01*
G36*
X114858242Y-202857722D02*
G01*
X114689342Y-202902284D01*
X114618124Y-202972330D01*
X114610000Y-203026373D01*
X114629327Y-203118705D01*
X114657625Y-203129879D01*
X114744061Y-203087029D01*
X114879875Y-203019144D01*
X115049060Y-202965210D01*
X115207034Y-203001125D01*
X115210664Y-203002767D01*
X115344331Y-203113440D01*
X115477028Y-203299347D01*
X115580307Y-203511732D01*
X115625719Y-203701836D01*
X115626000Y-203714623D01*
X115590278Y-203892180D01*
X115502315Y-204075854D01*
X115390920Y-204212596D01*
X115337406Y-204246054D01*
X115151216Y-204283285D01*
X114949344Y-204275635D01*
X114786961Y-204228231D01*
X114737000Y-204190250D01*
X114620582Y-204110184D01*
X114554600Y-204097006D01*
X114510281Y-204120086D01*
X114563044Y-204194153D01*
X114629416Y-204255756D01*
X114843216Y-204373416D01*
X115097447Y-204413646D01*
X115341600Y-204373808D01*
X115475693Y-204299963D01*
X115670511Y-204074060D01*
X115746279Y-203807218D01*
X115703283Y-203497423D01*
X115619497Y-203287816D01*
X115439365Y-203024891D01*
X115209493Y-202878664D01*
X114928796Y-202848522D01*
X114858242Y-202857722D01*
G37*
X114858242Y-202857722D02*
X114689342Y-202902284D01*
X114618124Y-202972330D01*
X114610000Y-203026373D01*
X114629327Y-203118705D01*
X114657625Y-203129879D01*
X114744061Y-203087029D01*
X114879875Y-203019144D01*
X115049060Y-202965210D01*
X115207034Y-203001125D01*
X115210664Y-203002767D01*
X115344331Y-203113440D01*
X115477028Y-203299347D01*
X115580307Y-203511732D01*
X115625719Y-203701836D01*
X115626000Y-203714623D01*
X115590278Y-203892180D01*
X115502315Y-204075854D01*
X115390920Y-204212596D01*
X115337406Y-204246054D01*
X115151216Y-204283285D01*
X114949344Y-204275635D01*
X114786961Y-204228231D01*
X114737000Y-204190250D01*
X114620582Y-204110184D01*
X114554600Y-204097006D01*
X114510281Y-204120086D01*
X114563044Y-204194153D01*
X114629416Y-204255756D01*
X114843216Y-204373416D01*
X115097447Y-204413646D01*
X115341600Y-204373808D01*
X115475693Y-204299963D01*
X115670511Y-204074060D01*
X115746279Y-203807218D01*
X115703283Y-203497423D01*
X115619497Y-203287816D01*
X115439365Y-203024891D01*
X115209493Y-202878664D01*
X114928796Y-202848522D01*
X114858242Y-202857722D01*
G36*
X116304661Y-202831660D02*
G01*
X116109323Y-202850097D01*
X116013331Y-202877995D01*
X116007000Y-202888500D01*
X116066413Y-202919946D01*
X116228615Y-202942045D01*
X116469556Y-202951788D01*
X116515000Y-202952000D01*
X117023000Y-202952000D01*
X117023000Y-203523500D01*
X116578500Y-203523500D01*
X116350483Y-203531890D01*
X116192925Y-203554378D01*
X116134001Y-203586938D01*
X116134000Y-203587000D01*
X116192733Y-203619573D01*
X116350147Y-203642082D01*
X116578069Y-203650499D01*
X116578500Y-203650500D01*
X117023000Y-203650500D01*
X117023000Y-204285500D01*
X116550498Y-204285500D01*
X116317050Y-204293472D01*
X116136287Y-204314522D01*
X116042895Y-204344344D01*
X116038750Y-204349000D01*
X116077346Y-204381523D01*
X116234413Y-204402904D01*
X116501828Y-204412179D01*
X116574753Y-204412500D01*
X117150000Y-204412500D01*
X117150000Y-202825000D01*
X116578500Y-202825000D01*
X116304661Y-202831660D01*
G37*
X116304661Y-202831660D02*
X116109323Y-202850097D01*
X116013331Y-202877995D01*
X116007000Y-202888500D01*
X116066413Y-202919946D01*
X116228615Y-202942045D01*
X116469556Y-202951788D01*
X116515000Y-202952000D01*
X117023000Y-202952000D01*
X117023000Y-203523500D01*
X116578500Y-203523500D01*
X116350483Y-203531890D01*
X116192925Y-203554378D01*
X116134001Y-203586938D01*
X116134000Y-203587000D01*
X116192733Y-203619573D01*
X116350147Y-203642082D01*
X116578069Y-203650499D01*
X116578500Y-203650500D01*
X117023000Y-203650500D01*
X117023000Y-204285500D01*
X116550498Y-204285500D01*
X116317050Y-204293472D01*
X116136287Y-204314522D01*
X116042895Y-204344344D01*
X116038750Y-204349000D01*
X116077346Y-204381523D01*
X116234413Y-204402904D01*
X116501828Y-204412179D01*
X116574753Y-204412500D01*
X117150000Y-204412500D01*
X117150000Y-202825000D01*
X116578500Y-202825000D01*
X116304661Y-202831660D01*
G36*
X118199660Y-202897972D02*
G01*
X118178916Y-203059953D01*
X118167811Y-203336737D01*
X118166000Y-203551502D01*
X118166000Y-204285500D01*
X117749503Y-204285500D01*
X117517608Y-204294211D01*
X117390475Y-204318997D01*
X117372250Y-204349000D01*
X117451047Y-204380691D01*
X117620593Y-204403450D01*
X117844707Y-204412490D01*
X117852248Y-204412500D01*
X118293000Y-204412500D01*
X118293000Y-203654247D01*
X118287883Y-203338337D01*
X118273729Y-203084887D01*
X118252331Y-202916441D01*
X118229500Y-202856750D01*
X118199660Y-202897972D01*
G37*
X118199660Y-202897972D02*
X118178916Y-203059953D01*
X118167811Y-203336737D01*
X118166000Y-203551502D01*
X118166000Y-204285500D01*
X117749503Y-204285500D01*
X117517608Y-204294211D01*
X117390475Y-204318997D01*
X117372250Y-204349000D01*
X117451047Y-204380691D01*
X117620593Y-204403450D01*
X117844707Y-204412490D01*
X117852248Y-204412500D01*
X118293000Y-204412500D01*
X118293000Y-203654247D01*
X118287883Y-203338337D01*
X118273729Y-203084887D01*
X118252331Y-202916441D01*
X118229500Y-202856750D01*
X118199660Y-202897972D01*
G36*
X118904872Y-202832052D02*
G01*
X118707145Y-202850843D01*
X118592986Y-202877820D01*
X118578750Y-202888500D01*
X118616007Y-202922337D01*
X118770400Y-202943915D01*
X119032544Y-202951973D01*
X119051253Y-202952000D01*
X119563000Y-202952000D01*
X119563000Y-203523500D01*
X119153998Y-203523500D01*
X118937233Y-203532672D01*
X118774727Y-203556613D01*
X118705750Y-203587000D01*
X118741431Y-203622338D01*
X118892533Y-203644040D01*
X119114753Y-203650500D01*
X119563000Y-203650500D01*
X119563000Y-204285500D01*
X119086750Y-204285500D01*
X118846780Y-204293379D01*
X118679520Y-204314707D01*
X118610946Y-204346022D01*
X118610500Y-204349000D01*
X118670194Y-204379924D01*
X118834374Y-204401823D01*
X119080685Y-204412067D01*
X119150250Y-204412500D01*
X119690000Y-204412500D01*
X119690000Y-202825000D01*
X119153998Y-202825000D01*
X118904872Y-202832052D01*
G37*
X118904872Y-202832052D02*
X118707145Y-202850843D01*
X118592986Y-202877820D01*
X118578750Y-202888500D01*
X118616007Y-202922337D01*
X118770400Y-202943915D01*
X119032544Y-202951973D01*
X119051253Y-202952000D01*
X119563000Y-202952000D01*
X119563000Y-203523500D01*
X119153998Y-203523500D01*
X118937233Y-203532672D01*
X118774727Y-203556613D01*
X118705750Y-203587000D01*
X118741431Y-203622338D01*
X118892533Y-203644040D01*
X119114753Y-203650500D01*
X119563000Y-203650500D01*
X119563000Y-204285500D01*
X119086750Y-204285500D01*
X118846780Y-204293379D01*
X118679520Y-204314707D01*
X118610946Y-204346022D01*
X118610500Y-204349000D01*
X118670194Y-204379924D01*
X118834374Y-204401823D01*
X119080685Y-204412067D01*
X119150250Y-204412500D01*
X119690000Y-204412500D01*
X119690000Y-202825000D01*
X119153998Y-202825000D01*
X118904872Y-202832052D01*
G36*
X120320594Y-202866357D02*
G01*
X120135958Y-202935595D01*
X120030398Y-203047446D01*
X120029779Y-203049035D01*
X120012360Y-203159134D01*
X120068216Y-203176072D01*
X120180542Y-203096213D01*
X120192709Y-203084291D01*
X120353578Y-202986158D01*
X120541696Y-202957027D01*
X120719724Y-202990401D01*
X120850327Y-203079781D01*
X120896500Y-203206770D01*
X120837153Y-203341470D01*
X120675148Y-203465787D01*
X120452000Y-203555936D01*
X120253147Y-203652435D01*
X120094326Y-203798785D01*
X120011926Y-203958652D01*
X120007500Y-203999750D01*
X120062273Y-204183511D01*
X120205634Y-204318137D01*
X120406146Y-204396004D01*
X120632373Y-204409488D01*
X120852879Y-204350963D01*
X121008708Y-204242565D01*
X121112382Y-204117671D01*
X121111228Y-204052521D01*
X121096053Y-204045100D01*
X121001766Y-204070318D01*
X120919631Y-204151535D01*
X120773314Y-204261939D01*
X120576890Y-204294734D01*
X120379316Y-204251775D01*
X120229553Y-204134917D01*
X120222845Y-204125122D01*
X120155382Y-204004001D01*
X120165290Y-203921522D01*
X120227966Y-203842972D01*
X120374084Y-203737123D01*
X120519103Y-203681458D01*
X120743957Y-203591876D01*
X120913519Y-203449222D01*
X121012888Y-203279528D01*
X121027165Y-203108828D01*
X120941448Y-202963155D01*
X120933917Y-202956702D01*
X120761078Y-202872672D01*
X120542802Y-202843969D01*
X120320594Y-202866357D01*
G37*
X120320594Y-202866357D02*
X120135958Y-202935595D01*
X120030398Y-203047446D01*
X120029779Y-203049035D01*
X120012360Y-203159134D01*
X120068216Y-203176072D01*
X120180542Y-203096213D01*
X120192709Y-203084291D01*
X120353578Y-202986158D01*
X120541696Y-202957027D01*
X120719724Y-202990401D01*
X120850327Y-203079781D01*
X120896500Y-203206770D01*
X120837153Y-203341470D01*
X120675148Y-203465787D01*
X120452000Y-203555936D01*
X120253147Y-203652435D01*
X120094326Y-203798785D01*
X120011926Y-203958652D01*
X120007500Y-203999750D01*
X120062273Y-204183511D01*
X120205634Y-204318137D01*
X120406146Y-204396004D01*
X120632373Y-204409488D01*
X120852879Y-204350963D01*
X121008708Y-204242565D01*
X121112382Y-204117671D01*
X121111228Y-204052521D01*
X121096053Y-204045100D01*
X121001766Y-204070318D01*
X120919631Y-204151535D01*
X120773314Y-204261939D01*
X120576890Y-204294734D01*
X120379316Y-204251775D01*
X120229553Y-204134917D01*
X120222845Y-204125122D01*
X120155382Y-204004001D01*
X120165290Y-203921522D01*
X120227966Y-203842972D01*
X120374084Y-203737123D01*
X120519103Y-203681458D01*
X120743957Y-203591876D01*
X120913519Y-203449222D01*
X121012888Y-203279528D01*
X121027165Y-203108828D01*
X120941448Y-202963155D01*
X120933917Y-202956702D01*
X120761078Y-202872672D01*
X120542802Y-202843969D01*
X120320594Y-202866357D01*
G36*
X104338875Y-202828584D02*
G01*
X104011672Y-202868834D01*
X103758612Y-202971106D01*
X103593295Y-203123922D01*
X103529320Y-203315808D01*
X103559069Y-203486670D01*
X103664134Y-203639168D01*
X103781054Y-203724553D01*
X103940158Y-203797046D01*
X103684311Y-204074607D01*
X103554175Y-204232067D01*
X103477002Y-204358025D01*
X103467466Y-204415275D01*
X103526707Y-204406312D01*
X103642356Y-204320249D01*
X103771859Y-204193810D01*
X103927816Y-204040827D01*
X104062243Y-203933645D01*
X104132500Y-203899345D01*
X104320538Y-203893437D01*
X104415598Y-203942722D01*
X104447889Y-204071500D01*
X104450000Y-204154752D01*
X104464761Y-204323835D01*
X104501424Y-204432214D01*
X104513500Y-204444250D01*
X104542031Y-204401797D01*
X104562363Y-204237660D01*
X104574090Y-203956916D01*
X104577000Y-203654247D01*
X104577000Y-203365959D01*
X104450000Y-203365959D01*
X104450000Y-203779919D01*
X104275375Y-203741798D01*
X104077219Y-203688273D01*
X103923699Y-203636629D01*
X103733983Y-203519796D01*
X103655806Y-203372697D01*
X103686452Y-203220513D01*
X103823204Y-203088426D01*
X103990373Y-203018632D01*
X104223284Y-202960271D01*
X104360291Y-202958692D01*
X104426800Y-203033095D01*
X104448221Y-203202681D01*
X104450000Y-203365959D01*
X104577000Y-203365959D01*
X104577000Y-202825000D01*
X104338875Y-202828584D01*
G37*
X104338875Y-202828584D02*
X104011672Y-202868834D01*
X103758612Y-202971106D01*
X103593295Y-203123922D01*
X103529320Y-203315808D01*
X103559069Y-203486670D01*
X103664134Y-203639168D01*
X103781054Y-203724553D01*
X103940158Y-203797046D01*
X103684311Y-204074607D01*
X103554175Y-204232067D01*
X103477002Y-204358025D01*
X103467466Y-204415275D01*
X103526707Y-204406312D01*
X103642356Y-204320249D01*
X103771859Y-204193810D01*
X103927816Y-204040827D01*
X104062243Y-203933645D01*
X104132500Y-203899345D01*
X104320538Y-203893437D01*
X104415598Y-203942722D01*
X104447889Y-204071500D01*
X104450000Y-204154752D01*
X104464761Y-204323835D01*
X104501424Y-204432214D01*
X104513500Y-204444250D01*
X104542031Y-204401797D01*
X104562363Y-204237660D01*
X104574090Y-203956916D01*
X104577000Y-203654247D01*
X104577000Y-203365959D01*
X104450000Y-203365959D01*
X104450000Y-203779919D01*
X104275375Y-203741798D01*
X104077219Y-203688273D01*
X103923699Y-203636629D01*
X103733983Y-203519796D01*
X103655806Y-203372697D01*
X103686452Y-203220513D01*
X103823204Y-203088426D01*
X103990373Y-203018632D01*
X104223284Y-202960271D01*
X104360291Y-202958692D01*
X104426800Y-203033095D01*
X104448221Y-203202681D01*
X104450000Y-203365959D01*
X104577000Y-203365959D01*
X104577000Y-202825000D01*
X104338875Y-202828584D01*
G36*
X105189875Y-202866262D02*
G01*
X105010791Y-202890464D01*
X104947300Y-202922856D01*
X105002082Y-202956937D01*
X105177813Y-202986207D01*
X105421893Y-203002359D01*
X105917536Y-203020968D01*
X105878750Y-203555250D01*
X105450125Y-203574026D01*
X105190062Y-203596455D01*
X105054359Y-203629913D01*
X105041863Y-203666057D01*
X105151419Y-203696544D01*
X105381873Y-203713029D01*
X105469480Y-203714000D01*
X105917459Y-203714000D01*
X105898105Y-204015625D01*
X105878750Y-204317250D01*
X105386625Y-204335796D01*
X105154792Y-204351752D01*
X104981716Y-204377416D01*
X104897931Y-204407864D01*
X104894500Y-204415171D01*
X104951833Y-204449581D01*
X105100732Y-204470596D01*
X105306547Y-204478914D01*
X105534629Y-204475231D01*
X105750327Y-204460243D01*
X105918991Y-204434647D01*
X106005972Y-204399141D01*
X106009935Y-204392742D01*
X106021181Y-204298730D01*
X106027415Y-204106894D01*
X106028139Y-203846330D01*
X106023817Y-203583117D01*
X106005750Y-202856750D01*
X105481875Y-202856750D01*
X105189875Y-202866262D01*
G37*
X105189875Y-202866262D02*
X105010791Y-202890464D01*
X104947300Y-202922856D01*
X105002082Y-202956937D01*
X105177813Y-202986207D01*
X105421893Y-203002359D01*
X105917536Y-203020968D01*
X105878750Y-203555250D01*
X105450125Y-203574026D01*
X105190062Y-203596455D01*
X105054359Y-203629913D01*
X105041863Y-203666057D01*
X105151419Y-203696544D01*
X105381873Y-203713029D01*
X105469480Y-203714000D01*
X105917459Y-203714000D01*
X105898105Y-204015625D01*
X105878750Y-204317250D01*
X105386625Y-204335796D01*
X105154792Y-204351752D01*
X104981716Y-204377416D01*
X104897931Y-204407864D01*
X104894500Y-204415171D01*
X104951833Y-204449581D01*
X105100732Y-204470596D01*
X105306547Y-204478914D01*
X105534629Y-204475231D01*
X105750327Y-204460243D01*
X105918991Y-204434647D01*
X106005972Y-204399141D01*
X106009935Y-204392742D01*
X106021181Y-204298730D01*
X106027415Y-204106894D01*
X106028139Y-203846330D01*
X106023817Y-203583117D01*
X106005750Y-202856750D01*
X105481875Y-202856750D01*
X105189875Y-202866262D01*
G36*
X106554147Y-202866140D02*
G01*
X106376222Y-202890196D01*
X106278418Y-202922743D01*
X106273427Y-202957609D01*
X106373940Y-202988619D01*
X106497875Y-203003458D01*
X106736000Y-203023166D01*
X106736000Y-203714085D01*
X106741574Y-204009210D01*
X106756832Y-204246097D01*
X106779582Y-204399529D01*
X106799500Y-204444250D01*
X106829397Y-204403081D01*
X106850159Y-204241197D01*
X106861233Y-203964593D01*
X106863000Y-203753330D01*
X106863000Y-203023166D01*
X107086577Y-203003458D01*
X107260635Y-202976933D01*
X107320738Y-202943008D01*
X107279192Y-202907968D01*
X107148302Y-202878105D01*
X106940373Y-202859705D01*
X106799500Y-202856750D01*
X106554147Y-202866140D01*
G37*
X106554147Y-202866140D02*
X106376222Y-202890196D01*
X106278418Y-202922743D01*
X106273427Y-202957609D01*
X106373940Y-202988619D01*
X106497875Y-203003458D01*
X106736000Y-203023166D01*
X106736000Y-203714085D01*
X106741574Y-204009210D01*
X106756832Y-204246097D01*
X106779582Y-204399529D01*
X106799500Y-204444250D01*
X106829397Y-204403081D01*
X106850159Y-204241197D01*
X106861233Y-203964593D01*
X106863000Y-203753330D01*
X106863000Y-203023166D01*
X107086577Y-203003458D01*
X107260635Y-202976933D01*
X107320738Y-202943008D01*
X107279192Y-202907968D01*
X107148302Y-202878105D01*
X106940373Y-202859705D01*
X106799500Y-202856750D01*
X106554147Y-202866140D01*
G36*
X107599297Y-202947002D02*
G01*
X107581291Y-203102734D01*
X107568983Y-203326037D01*
X107562596Y-203587249D01*
X107562352Y-203856709D01*
X107568474Y-204104757D01*
X107581183Y-204301731D01*
X107600703Y-204417972D01*
X107611180Y-204435708D01*
X107663899Y-204398433D01*
X107771579Y-204274415D01*
X107918905Y-204082697D01*
X108090559Y-203842319D01*
X108103305Y-203823851D01*
X108545750Y-203181290D01*
X108564211Y-203780430D01*
X108581372Y-204122798D01*
X108605485Y-204340798D01*
X108632950Y-204436620D01*
X108660170Y-204412457D01*
X108683548Y-204270501D01*
X108699486Y-204012945D01*
X108704500Y-203694950D01*
X108700048Y-203376426D01*
X108687716Y-203122053D01*
X108669038Y-202952534D01*
X108645550Y-202888572D01*
X108644689Y-202888500D01*
X108587596Y-202937960D01*
X108476197Y-203072669D01*
X108326509Y-203272122D01*
X108154543Y-203515811D01*
X108152564Y-203518694D01*
X107720250Y-204148889D01*
X107702154Y-203518694D01*
X107688695Y-203250234D01*
X107667097Y-203039674D01*
X107640658Y-202913208D01*
X107622779Y-202888500D01*
X107599297Y-202947002D01*
G37*
X107599297Y-202947002D02*
X107581291Y-203102734D01*
X107568983Y-203326037D01*
X107562596Y-203587249D01*
X107562352Y-203856709D01*
X107568474Y-204104757D01*
X107581183Y-204301731D01*
X107600703Y-204417972D01*
X107611180Y-204435708D01*
X107663899Y-204398433D01*
X107771579Y-204274415D01*
X107918905Y-204082697D01*
X108090559Y-203842319D01*
X108103305Y-203823851D01*
X108545750Y-203181290D01*
X108564211Y-203780430D01*
X108581372Y-204122798D01*
X108605485Y-204340798D01*
X108632950Y-204436620D01*
X108660170Y-204412457D01*
X108683548Y-204270501D01*
X108699486Y-204012945D01*
X108704500Y-203694950D01*
X108700048Y-203376426D01*
X108687716Y-203122053D01*
X108669038Y-202952534D01*
X108645550Y-202888572D01*
X108644689Y-202888500D01*
X108587596Y-202937960D01*
X108476197Y-203072669D01*
X108326509Y-203272122D01*
X108154543Y-203515811D01*
X108152564Y-203518694D01*
X107720250Y-204148889D01*
X107702154Y-203518694D01*
X107688695Y-203250234D01*
X107667097Y-203039674D01*
X107640658Y-202913208D01*
X107622779Y-202888500D01*
X107599297Y-202947002D01*
G36*
X109317375Y-202866262D02*
G01*
X109138291Y-202890464D01*
X109074800Y-202922856D01*
X109129582Y-202956937D01*
X109305313Y-202986207D01*
X109549393Y-203002359D01*
X110045036Y-203020968D01*
X110006250Y-203555250D01*
X109577625Y-203574026D01*
X109317562Y-203596455D01*
X109181859Y-203629913D01*
X109169363Y-203666057D01*
X109278919Y-203696544D01*
X109509373Y-203713029D01*
X109596980Y-203714000D01*
X110044959Y-203714000D01*
X110025605Y-204015625D01*
X110006250Y-204317250D01*
X109514125Y-204335796D01*
X109282292Y-204351752D01*
X109109216Y-204377416D01*
X109025431Y-204407864D01*
X109022000Y-204415171D01*
X109079333Y-204449581D01*
X109228232Y-204470596D01*
X109434047Y-204478914D01*
X109662129Y-204475231D01*
X109877827Y-204460243D01*
X110046491Y-204434647D01*
X110133472Y-204399141D01*
X110137435Y-204392742D01*
X110148681Y-204298730D01*
X110154915Y-204106894D01*
X110155639Y-203846330D01*
X110151317Y-203583117D01*
X110133250Y-202856750D01*
X109609375Y-202856750D01*
X109317375Y-202866262D01*
G37*
X109317375Y-202866262D02*
X109138291Y-202890464D01*
X109074800Y-202922856D01*
X109129582Y-202956937D01*
X109305313Y-202986207D01*
X109549393Y-203002359D01*
X110045036Y-203020968D01*
X110006250Y-203555250D01*
X109577625Y-203574026D01*
X109317562Y-203596455D01*
X109181859Y-203629913D01*
X109169363Y-203666057D01*
X109278919Y-203696544D01*
X109509373Y-203713029D01*
X109596980Y-203714000D01*
X110044959Y-203714000D01*
X110025605Y-204015625D01*
X110006250Y-204317250D01*
X109514125Y-204335796D01*
X109282292Y-204351752D01*
X109109216Y-204377416D01*
X109025431Y-204407864D01*
X109022000Y-204415171D01*
X109079333Y-204449581D01*
X109228232Y-204470596D01*
X109434047Y-204478914D01*
X109662129Y-204475231D01*
X109877827Y-204460243D01*
X110046491Y-204434647D01*
X110133472Y-204399141D01*
X110137435Y-204392742D01*
X110148681Y-204298730D01*
X110154915Y-204106894D01*
X110155639Y-203846330D01*
X110151317Y-203583117D01*
X110133250Y-202856750D01*
X109609375Y-202856750D01*
X109317375Y-202866262D01*
G36*
X104906408Y-205926184D02*
G01*
X104894500Y-206000000D01*
X104857294Y-206099588D01*
X104735750Y-206127000D01*
X104616414Y-206148736D01*
X104577000Y-206190500D01*
X104631343Y-206238234D01*
X104735750Y-206254000D01*
X104856592Y-206280227D01*
X104893830Y-206383494D01*
X104894500Y-206412750D01*
X104916237Y-206532086D01*
X104958000Y-206571500D01*
X105005735Y-206517157D01*
X105021500Y-206412750D01*
X105047728Y-206291908D01*
X105150995Y-206254670D01*
X105180250Y-206254000D01*
X105299587Y-206232263D01*
X105339000Y-206190500D01*
X105284658Y-206142765D01*
X105180250Y-206127000D01*
X105055765Y-206097234D01*
X105021500Y-206000000D01*
X104994908Y-205896814D01*
X104958000Y-205873000D01*
X104906408Y-205926184D01*
G37*
X104906408Y-205926184D02*
X104894500Y-206000000D01*
X104857294Y-206099588D01*
X104735750Y-206127000D01*
X104616414Y-206148736D01*
X104577000Y-206190500D01*
X104631343Y-206238234D01*
X104735750Y-206254000D01*
X104856592Y-206280227D01*
X104893830Y-206383494D01*
X104894500Y-206412750D01*
X104916237Y-206532086D01*
X104958000Y-206571500D01*
X105005735Y-206517157D01*
X105021500Y-206412750D01*
X105047728Y-206291908D01*
X105150995Y-206254670D01*
X105180250Y-206254000D01*
X105299587Y-206232263D01*
X105339000Y-206190500D01*
X105284658Y-206142765D01*
X105180250Y-206127000D01*
X105055765Y-206097234D01*
X105021500Y-206000000D01*
X104994908Y-205896814D01*
X104958000Y-205873000D01*
X104906408Y-205926184D01*
G36*
X116050661Y-205181160D02*
G01*
X115855323Y-205199597D01*
X115759331Y-205227495D01*
X115753000Y-205238000D01*
X115809335Y-205277763D01*
X115950064Y-205299880D01*
X116007000Y-205301500D01*
X116261000Y-205301500D01*
X116261000Y-206031750D01*
X116267979Y-206393118D01*
X116286208Y-206630713D01*
X116311625Y-206744077D01*
X116340167Y-206732752D01*
X116367772Y-206596279D01*
X116390379Y-206334201D01*
X116401796Y-206047625D01*
X116419750Y-205333250D01*
X116657875Y-205313541D01*
X116838838Y-205288827D01*
X116905233Y-205258106D01*
X116869018Y-205226363D01*
X116742150Y-205198586D01*
X116536584Y-205179762D01*
X116324500Y-205174500D01*
X116050661Y-205181160D01*
G37*
X116050661Y-205181160D02*
X115855323Y-205199597D01*
X115759331Y-205227495D01*
X115753000Y-205238000D01*
X115809335Y-205277763D01*
X115950064Y-205299880D01*
X116007000Y-205301500D01*
X116261000Y-205301500D01*
X116261000Y-206031750D01*
X116267979Y-206393118D01*
X116286208Y-206630713D01*
X116311625Y-206744077D01*
X116340167Y-206732752D01*
X116367772Y-206596279D01*
X116390379Y-206334201D01*
X116401796Y-206047625D01*
X116419750Y-205333250D01*
X116657875Y-205313541D01*
X116838838Y-205288827D01*
X116905233Y-205258106D01*
X116869018Y-205226363D01*
X116742150Y-205198586D01*
X116536584Y-205179762D01*
X116324500Y-205174500D01*
X116050661Y-205181160D01*
G36*
X117241913Y-205185045D02*
G01*
X117116423Y-205212223D01*
X117086500Y-205238000D01*
X117140843Y-205285734D01*
X117245250Y-205301500D01*
X117404000Y-205301500D01*
X117404000Y-205968250D01*
X117402297Y-206265989D01*
X117394430Y-206459130D01*
X117376260Y-206570054D01*
X117343650Y-206621147D01*
X117292461Y-206634793D01*
X117280748Y-206635000D01*
X117159187Y-206664158D01*
X117118250Y-206698500D01*
X117152167Y-206735471D01*
X117299385Y-206757168D01*
X117467500Y-206762000D01*
X117687961Y-206752721D01*
X117804474Y-206726466D01*
X117816750Y-206698500D01*
X117727186Y-206645155D01*
X117654253Y-206635000D01*
X117599214Y-206625787D01*
X117563511Y-206583226D01*
X117543006Y-206484933D01*
X117533561Y-206308524D01*
X117531039Y-206031614D01*
X117531000Y-205968250D01*
X117531000Y-205301500D01*
X117693498Y-205301500D01*
X117801536Y-205281342D01*
X117816750Y-205238000D01*
X117736136Y-205202677D01*
X117570751Y-205179622D01*
X117432003Y-205174500D01*
X117241913Y-205185045D01*
G37*
X117241913Y-205185045D02*
X117116423Y-205212223D01*
X117086500Y-205238000D01*
X117140843Y-205285734D01*
X117245250Y-205301500D01*
X117404000Y-205301500D01*
X117404000Y-205968250D01*
X117402297Y-206265989D01*
X117394430Y-206459130D01*
X117376260Y-206570054D01*
X117343650Y-206621147D01*
X117292461Y-206634793D01*
X117280748Y-206635000D01*
X117159187Y-206664158D01*
X117118250Y-206698500D01*
X117152167Y-206735471D01*
X117299385Y-206757168D01*
X117467500Y-206762000D01*
X117687961Y-206752721D01*
X117804474Y-206726466D01*
X117816750Y-206698500D01*
X117727186Y-206645155D01*
X117654253Y-206635000D01*
X117599214Y-206625787D01*
X117563511Y-206583226D01*
X117543006Y-206484933D01*
X117533561Y-206308524D01*
X117531039Y-206031614D01*
X117531000Y-205968250D01*
X117531000Y-205301500D01*
X117693498Y-205301500D01*
X117801536Y-205281342D01*
X117816750Y-205238000D01*
X117736136Y-205202677D01*
X117570751Y-205179622D01*
X117432003Y-205174500D01*
X117241913Y-205185045D01*
G36*
X119339611Y-205233017D02*
G01*
X119316863Y-205388902D01*
X119308646Y-205603125D01*
X119288554Y-206019516D01*
X119226112Y-206323761D01*
X119116893Y-206524919D01*
X118956471Y-206632050D01*
X118794089Y-206656166D01*
X118600357Y-206625925D01*
X118461516Y-206525236D01*
X118368742Y-206339153D01*
X118313215Y-206052728D01*
X118293000Y-205807187D01*
X118272495Y-205553478D01*
X118244284Y-205354116D01*
X118213094Y-205238438D01*
X118198620Y-205221290D01*
X118140956Y-205248548D01*
X118111858Y-205371477D01*
X118110440Y-205599766D01*
X118134191Y-205925913D01*
X118165251Y-206187986D01*
X118207526Y-206362191D01*
X118274346Y-206487644D01*
X118358099Y-206582867D01*
X118564400Y-206717583D01*
X118803263Y-206768310D01*
X119031816Y-206732104D01*
X119177877Y-206639123D01*
X119276885Y-206495404D01*
X119359259Y-206303343D01*
X119368023Y-206273998D01*
X119403370Y-206089964D01*
X119425408Y-205862130D01*
X119434004Y-205623635D01*
X119429023Y-205407618D01*
X119410329Y-205247216D01*
X119377788Y-205175567D01*
X119372500Y-205174500D01*
X119339611Y-205233017D01*
G37*
X119339611Y-205233017D02*
X119316863Y-205388902D01*
X119308646Y-205603125D01*
X119288554Y-206019516D01*
X119226112Y-206323761D01*
X119116893Y-206524919D01*
X118956471Y-206632050D01*
X118794089Y-206656166D01*
X118600357Y-206625925D01*
X118461516Y-206525236D01*
X118368742Y-206339153D01*
X118313215Y-206052728D01*
X118293000Y-205807187D01*
X118272495Y-205553478D01*
X118244284Y-205354116D01*
X118213094Y-205238438D01*
X118198620Y-205221290D01*
X118140956Y-205248548D01*
X118111858Y-205371477D01*
X118110440Y-205599766D01*
X118134191Y-205925913D01*
X118165251Y-206187986D01*
X118207526Y-206362191D01*
X118274346Y-206487644D01*
X118358099Y-206582867D01*
X118564400Y-206717583D01*
X118803263Y-206768310D01*
X119031816Y-206732104D01*
X119177877Y-206639123D01*
X119276885Y-206495404D01*
X119359259Y-206303343D01*
X119368023Y-206273998D01*
X119403370Y-206089964D01*
X119425408Y-205862130D01*
X119434004Y-205623635D01*
X119429023Y-205407618D01*
X119410329Y-205247216D01*
X119377788Y-205175567D01*
X119372500Y-205174500D01*
X119339611Y-205233017D01*
G36*
X103336841Y-205253383D02*
G01*
X103125987Y-205369257D01*
X102964567Y-205581978D01*
X102960624Y-205590164D01*
X102875160Y-205849133D01*
X102887853Y-206093178D01*
X102986711Y-206343778D01*
X103110922Y-206587410D01*
X102970836Y-206704342D01*
X102886122Y-206788421D01*
X102903785Y-206821190D01*
X102929175Y-206823387D01*
X103060917Y-206783253D01*
X103098990Y-206754110D01*
X103192361Y-206714614D01*
X103348772Y-206745183D01*
X103375165Y-206754110D01*
X103561169Y-206810072D01*
X103696751Y-206812716D01*
X103848434Y-206758264D01*
X103921618Y-206723055D01*
X104135138Y-206551346D01*
X104265362Y-206303329D01*
X104294195Y-206048626D01*
X104130481Y-206048626D01*
X104103175Y-206310559D01*
X104013404Y-206490114D01*
X103846750Y-206621803D01*
X103735164Y-206680212D01*
X103649158Y-206690017D01*
X103515519Y-206659067D01*
X103510837Y-206657812D01*
X103410945Y-206620952D01*
X103417691Y-206565328D01*
X103473054Y-206499930D01*
X103539842Y-206411963D01*
X103514816Y-206382359D01*
X103488292Y-206381000D01*
X103361922Y-206422897D01*
X103325612Y-206451288D01*
X103246412Y-206464483D01*
X103161294Y-206382323D01*
X103086701Y-206234465D01*
X103039079Y-206050572D01*
X103030519Y-205919037D01*
X103080036Y-205674726D01*
X103199932Y-205506705D01*
X103405967Y-205371949D01*
X103620984Y-205347470D01*
X103822891Y-205420402D01*
X103989599Y-205577881D01*
X104099019Y-205807042D01*
X104130481Y-206048626D01*
X104294195Y-206048626D01*
X104298697Y-206008859D01*
X104288142Y-205918098D01*
X104192039Y-205639145D01*
X104024729Y-205427237D01*
X103810341Y-205288333D01*
X103573002Y-205228395D01*
X103336841Y-205253383D01*
G37*
X103336841Y-205253383D02*
X103125987Y-205369257D01*
X102964567Y-205581978D01*
X102960624Y-205590164D01*
X102875160Y-205849133D01*
X102887853Y-206093178D01*
X102986711Y-206343778D01*
X103110922Y-206587410D01*
X102970836Y-206704342D01*
X102886122Y-206788421D01*
X102903785Y-206821190D01*
X102929175Y-206823387D01*
X103060917Y-206783253D01*
X103098990Y-206754110D01*
X103192361Y-206714614D01*
X103348772Y-206745183D01*
X103375165Y-206754110D01*
X103561169Y-206810072D01*
X103696751Y-206812716D01*
X103848434Y-206758264D01*
X103921618Y-206723055D01*
X104135138Y-206551346D01*
X104265362Y-206303329D01*
X104294195Y-206048626D01*
X104130481Y-206048626D01*
X104103175Y-206310559D01*
X104013404Y-206490114D01*
X103846750Y-206621803D01*
X103735164Y-206680212D01*
X103649158Y-206690017D01*
X103515519Y-206659067D01*
X103510837Y-206657812D01*
X103410945Y-206620952D01*
X103417691Y-206565328D01*
X103473054Y-206499930D01*
X103539842Y-206411963D01*
X103514816Y-206382359D01*
X103488292Y-206381000D01*
X103361922Y-206422897D01*
X103325612Y-206451288D01*
X103246412Y-206464483D01*
X103161294Y-206382323D01*
X103086701Y-206234465D01*
X103039079Y-206050572D01*
X103030519Y-205919037D01*
X103080036Y-205674726D01*
X103199932Y-205506705D01*
X103405967Y-205371949D01*
X103620984Y-205347470D01*
X103822891Y-205420402D01*
X103989599Y-205577881D01*
X104099019Y-205807042D01*
X104130481Y-206048626D01*
X104294195Y-206048626D01*
X104298697Y-206008859D01*
X104288142Y-205918098D01*
X104192039Y-205639145D01*
X104024729Y-205427237D01*
X103810341Y-205288333D01*
X103573002Y-205228395D01*
X103336841Y-205253383D01*
G36*
X105935549Y-205297417D02*
G01*
X105884983Y-205468519D01*
X105825198Y-205700891D01*
X105762876Y-205964910D01*
X105704696Y-206230950D01*
X105657337Y-206469388D01*
X105627479Y-206650600D01*
X105621801Y-206744961D01*
X105624373Y-206751039D01*
X105665085Y-206764353D01*
X105706430Y-206708851D01*
X105754523Y-206568665D01*
X105815476Y-206327924D01*
X105856083Y-206149667D01*
X105913153Y-205900769D01*
X105961254Y-205704236D01*
X105993137Y-205589107D01*
X106000467Y-205571366D01*
X106028510Y-205618304D01*
X106088031Y-205760821D01*
X106169183Y-205974405D01*
X106229252Y-206140819D01*
X106344362Y-206457195D01*
X106429026Y-206664647D01*
X106490708Y-206775464D01*
X106536872Y-206801930D01*
X106574983Y-206756334D01*
X106586538Y-206728945D01*
X106625330Y-206616925D01*
X106690044Y-206419110D01*
X106769120Y-206171050D01*
X106801641Y-206067452D01*
X106971544Y-205523750D01*
X107112985Y-206142875D01*
X107178574Y-206403341D01*
X107242134Y-206609763D01*
X107294854Y-206735741D01*
X107319597Y-206762000D01*
X107357778Y-206710454D01*
X107351952Y-206619125D01*
X107324360Y-206497221D01*
X107276981Y-206286180D01*
X107217624Y-206020830D01*
X107180353Y-205853821D01*
X107116451Y-205595292D01*
X107054601Y-205393614D01*
X107003262Y-205273985D01*
X106978477Y-205252424D01*
X106933903Y-205318062D01*
X106863096Y-205478864D01*
X106776867Y-205708515D01*
X106709716Y-205906602D01*
X106616960Y-206184740D01*
X106552235Y-206355393D01*
X106507771Y-206432926D01*
X106475798Y-206431703D01*
X106453127Y-206381000D01*
X106337010Y-206034578D01*
X106224347Y-205726433D01*
X106122880Y-205475219D01*
X106040349Y-205299592D01*
X105984496Y-205218208D01*
X105970219Y-205217209D01*
X105935549Y-205297417D01*
G37*
X105935549Y-205297417D02*
X105884983Y-205468519D01*
X105825198Y-205700891D01*
X105762876Y-205964910D01*
X105704696Y-206230950D01*
X105657337Y-206469388D01*
X105627479Y-206650600D01*
X105621801Y-206744961D01*
X105624373Y-206751039D01*
X105665085Y-206764353D01*
X105706430Y-206708851D01*
X105754523Y-206568665D01*
X105815476Y-206327924D01*
X105856083Y-206149667D01*
X105913153Y-205900769D01*
X105961254Y-205704236D01*
X105993137Y-205589107D01*
X106000467Y-205571366D01*
X106028510Y-205618304D01*
X106088031Y-205760821D01*
X106169183Y-205974405D01*
X106229252Y-206140819D01*
X106344362Y-206457195D01*
X106429026Y-206664647D01*
X106490708Y-206775464D01*
X106536872Y-206801930D01*
X106574983Y-206756334D01*
X106586538Y-206728945D01*
X106625330Y-206616925D01*
X106690044Y-206419110D01*
X106769120Y-206171050D01*
X106801641Y-206067452D01*
X106971544Y-205523750D01*
X107112985Y-206142875D01*
X107178574Y-206403341D01*
X107242134Y-206609763D01*
X107294854Y-206735741D01*
X107319597Y-206762000D01*
X107357778Y-206710454D01*
X107351952Y-206619125D01*
X107324360Y-206497221D01*
X107276981Y-206286180D01*
X107217624Y-206020830D01*
X107180353Y-205853821D01*
X107116451Y-205595292D01*
X107054601Y-205393614D01*
X107003262Y-205273985D01*
X106978477Y-205252424D01*
X106933903Y-205318062D01*
X106863096Y-205478864D01*
X106776867Y-205708515D01*
X106709716Y-205906602D01*
X106616960Y-206184740D01*
X106552235Y-206355393D01*
X106507771Y-206432926D01*
X106475798Y-206431703D01*
X106453127Y-206381000D01*
X106337010Y-206034578D01*
X106224347Y-205726433D01*
X106122880Y-205475219D01*
X106040349Y-205299592D01*
X105984496Y-205218208D01*
X105970219Y-205217209D01*
X105935549Y-205297417D01*
G36*
X108732742Y-205250539D02*
G01*
X108613842Y-205422473D01*
X108478648Y-205652976D01*
X108360663Y-205856292D01*
X108261943Y-206012617D01*
X108201908Y-206091392D01*
X108198273Y-206094154D01*
X108144699Y-206058520D01*
X108047292Y-205935817D01*
X107924227Y-205749814D01*
X107883087Y-205681969D01*
X107753803Y-205476073D01*
X107643109Y-205320902D01*
X107570108Y-205242598D01*
X107558665Y-205238000D01*
X107499179Y-205261212D01*
X107498000Y-205266872D01*
X107528527Y-205325934D01*
X107610535Y-205469485D01*
X107729666Y-205673412D01*
X107871561Y-205913603D01*
X108021862Y-206165946D01*
X108166210Y-206406328D01*
X108290246Y-206610638D01*
X108379613Y-206754763D01*
X108419204Y-206813849D01*
X108462566Y-206792001D01*
X108472601Y-206777613D01*
X108465110Y-206691999D01*
X108402726Y-206550858D01*
X108381312Y-206513910D01*
X108255205Y-206306544D01*
X108543353Y-205806980D01*
X108671094Y-205578192D01*
X108769795Y-205387480D01*
X108824851Y-205263721D01*
X108831500Y-205237211D01*
X108806306Y-205187594D01*
X108732742Y-205250539D01*
G37*
X108732742Y-205250539D02*
X108613842Y-205422473D01*
X108478648Y-205652976D01*
X108360663Y-205856292D01*
X108261943Y-206012617D01*
X108201908Y-206091392D01*
X108198273Y-206094154D01*
X108144699Y-206058520D01*
X108047292Y-205935817D01*
X107924227Y-205749814D01*
X107883087Y-205681969D01*
X107753803Y-205476073D01*
X107643109Y-205320902D01*
X107570108Y-205242598D01*
X107558665Y-205238000D01*
X107499179Y-205261212D01*
X107498000Y-205266872D01*
X107528527Y-205325934D01*
X107610535Y-205469485D01*
X107729666Y-205673412D01*
X107871561Y-205913603D01*
X108021862Y-206165946D01*
X108166210Y-206406328D01*
X108290246Y-206610638D01*
X108379613Y-206754763D01*
X108419204Y-206813849D01*
X108462566Y-206792001D01*
X108472601Y-206777613D01*
X108465110Y-206691999D01*
X108402726Y-206550858D01*
X108381312Y-206513910D01*
X108255205Y-206306544D01*
X108543353Y-205806980D01*
X108671094Y-205578192D01*
X108769795Y-205387480D01*
X108824851Y-205263721D01*
X108831500Y-205237211D01*
X108806306Y-205187594D01*
X108732742Y-205250539D01*
G36*
X109315247Y-205227168D02*
G01*
X109142627Y-205301695D01*
X109057871Y-205408910D01*
X109038498Y-205518220D01*
X109098728Y-205531099D01*
X109234929Y-205447038D01*
X109249470Y-205435739D01*
X109445122Y-205333120D01*
X109639478Y-205312825D01*
X109800736Y-205367979D01*
X109897093Y-205491705D01*
X109911000Y-205578753D01*
X109894742Y-205670609D01*
X109831115Y-205748517D01*
X109697842Y-205828784D01*
X109472644Y-205927716D01*
X109387268Y-205962104D01*
X109168036Y-206093085D01*
X109058297Y-206259764D01*
X109065115Y-206447332D01*
X109111564Y-206539983D01*
X109302114Y-206728715D01*
X109540810Y-206808859D01*
X109800166Y-206771615D01*
X109815750Y-206765469D01*
X109945354Y-206686763D01*
X110063906Y-206576087D01*
X110139729Y-206468652D01*
X110143194Y-206401526D01*
X110072820Y-206409444D01*
X109961481Y-206487044D01*
X109958375Y-206489867D01*
X109803310Y-206601918D01*
X109669766Y-206664717D01*
X109488304Y-206663780D01*
X109325774Y-206574103D01*
X109225644Y-206426066D01*
X109212500Y-206345130D01*
X109230063Y-206250834D01*
X109299278Y-206170927D01*
X109444932Y-206084457D01*
X109615813Y-206004234D01*
X109871007Y-205875758D01*
X110018138Y-205759607D01*
X110072212Y-205636748D01*
X110048233Y-205488146D01*
X110040157Y-205465922D01*
X109930210Y-205330141D01*
X109747261Y-205243609D01*
X109529532Y-205208545D01*
X109315247Y-205227168D01*
G37*
X109315247Y-205227168D02*
X109142627Y-205301695D01*
X109057871Y-205408910D01*
X109038498Y-205518220D01*
X109098728Y-205531099D01*
X109234929Y-205447038D01*
X109249470Y-205435739D01*
X109445122Y-205333120D01*
X109639478Y-205312825D01*
X109800736Y-205367979D01*
X109897093Y-205491705D01*
X109911000Y-205578753D01*
X109894742Y-205670609D01*
X109831115Y-205748517D01*
X109697842Y-205828784D01*
X109472644Y-205927716D01*
X109387268Y-205962104D01*
X109168036Y-206093085D01*
X109058297Y-206259764D01*
X109065115Y-206447332D01*
X109111564Y-206539983D01*
X109302114Y-206728715D01*
X109540810Y-206808859D01*
X109800166Y-206771615D01*
X109815750Y-206765469D01*
X109945354Y-206686763D01*
X110063906Y-206576087D01*
X110139729Y-206468652D01*
X110143194Y-206401526D01*
X110072820Y-206409444D01*
X109961481Y-206487044D01*
X109958375Y-206489867D01*
X109803310Y-206601918D01*
X109669766Y-206664717D01*
X109488304Y-206663780D01*
X109325774Y-206574103D01*
X109225644Y-206426066D01*
X109212500Y-206345130D01*
X109230063Y-206250834D01*
X109299278Y-206170927D01*
X109444932Y-206084457D01*
X109615813Y-206004234D01*
X109871007Y-205875758D01*
X110018138Y-205759607D01*
X110072212Y-205636748D01*
X110048233Y-205488146D01*
X110040157Y-205465922D01*
X109930210Y-205330141D01*
X109747261Y-205243609D01*
X109529532Y-205208545D01*
X109315247Y-205227168D01*
G36*
X120116888Y-205243153D02*
G01*
X120106629Y-205247786D01*
X119888680Y-205410846D01*
X119758885Y-205646971D01*
X119724207Y-205931569D01*
X119791608Y-206240049D01*
X119811870Y-206288939D01*
X119942453Y-206584145D01*
X119800352Y-206702710D01*
X119712173Y-206786357D01*
X119722138Y-206819195D01*
X119765628Y-206823387D01*
X119879409Y-206793507D01*
X119910650Y-206764589D01*
X119990798Y-206736855D01*
X120162496Y-206729400D01*
X120343023Y-206739390D01*
X120564015Y-206755075D01*
X120702570Y-206744230D01*
X120802384Y-206695119D01*
X120907153Y-206596009D01*
X120917468Y-206585135D01*
X121074606Y-206335931D01*
X121130811Y-206052449D01*
X121130591Y-206050832D01*
X120999320Y-206050832D01*
X120953332Y-206279015D01*
X120839765Y-206470625D01*
X120663441Y-206597964D01*
X120472682Y-206635000D01*
X120330225Y-206619260D01*
X120262414Y-206580808D01*
X120261500Y-206575247D01*
X120307659Y-206489247D01*
X120325000Y-206476250D01*
X120393005Y-206405880D01*
X120360751Y-206366929D01*
X120254690Y-206382247D01*
X120228684Y-206393039D01*
X120098802Y-206432149D01*
X120010856Y-206385428D01*
X119976704Y-206344053D01*
X119917963Y-206204708D01*
X119884962Y-206007345D01*
X119882520Y-205947490D01*
X119903026Y-205734928D01*
X119986975Y-205574394D01*
X120066116Y-205487115D01*
X120244658Y-205345603D01*
X120412993Y-205311786D01*
X120610276Y-205381651D01*
X120683579Y-205423822D01*
X120869267Y-205595537D01*
X120972906Y-205813773D01*
X120999320Y-206050832D01*
X121130591Y-206050832D01*
X121091779Y-205766529D01*
X120963208Y-205510014D01*
X120750792Y-205314746D01*
X120683696Y-205278488D01*
X120469400Y-205194715D01*
X120299551Y-205183952D01*
X120116888Y-205243153D01*
G37*
X120116888Y-205243153D02*
X120106629Y-205247786D01*
X119888680Y-205410846D01*
X119758885Y-205646971D01*
X119724207Y-205931569D01*
X119791608Y-206240049D01*
X119811870Y-206288939D01*
X119942453Y-206584145D01*
X119800352Y-206702710D01*
X119712173Y-206786357D01*
X119722138Y-206819195D01*
X119765628Y-206823387D01*
X119879409Y-206793507D01*
X119910650Y-206764589D01*
X119990798Y-206736855D01*
X120162496Y-206729400D01*
X120343023Y-206739390D01*
X120564015Y-206755075D01*
X120702570Y-206744230D01*
X120802384Y-206695119D01*
X120907153Y-206596009D01*
X120917468Y-206585135D01*
X121074606Y-206335931D01*
X121130811Y-206052449D01*
X121130591Y-206050832D01*
X120999320Y-206050832D01*
X120953332Y-206279015D01*
X120839765Y-206470625D01*
X120663441Y-206597964D01*
X120472682Y-206635000D01*
X120330225Y-206619260D01*
X120262414Y-206580808D01*
X120261500Y-206575247D01*
X120307659Y-206489247D01*
X120325000Y-206476250D01*
X120393005Y-206405880D01*
X120360751Y-206366929D01*
X120254690Y-206382247D01*
X120228684Y-206393039D01*
X120098802Y-206432149D01*
X120010856Y-206385428D01*
X119976704Y-206344053D01*
X119917963Y-206204708D01*
X119884962Y-206007345D01*
X119882520Y-205947490D01*
X119903026Y-205734928D01*
X119986975Y-205574394D01*
X120066116Y-205487115D01*
X120244658Y-205345603D01*
X120412993Y-205311786D01*
X120610276Y-205381651D01*
X120683579Y-205423822D01*
X120869267Y-205595537D01*
X120972906Y-205813773D01*
X120999320Y-206050832D01*
X121130591Y-206050832D01*
X121091779Y-205766529D01*
X120963208Y-205510014D01*
X120750792Y-205314746D01*
X120683696Y-205278488D01*
X120469400Y-205194715D01*
X120299551Y-205183952D01*
X120116888Y-205243153D01*
G36*
X100640000Y-208349500D02*
G01*
X123182500Y-208349500D01*
X123182500Y-199290693D01*
X122992000Y-199290693D01*
X122991648Y-200267561D01*
X122990620Y-201218568D01*
X122988962Y-202134889D01*
X122986719Y-203007697D01*
X122983935Y-203828165D01*
X122980657Y-204587468D01*
X122976927Y-205276779D01*
X122972793Y-205887271D01*
X122968298Y-206410119D01*
X122963487Y-206836496D01*
X122958406Y-207157575D01*
X122953099Y-207364530D01*
X122950601Y-207418871D01*
X122909201Y-208095500D01*
X100907372Y-208095500D01*
X100865328Y-207127125D01*
X100859880Y-206933562D01*
X100854988Y-206622530D01*
X100850677Y-206203557D01*
X100846974Y-205686171D01*
X100843905Y-205079902D01*
X100841497Y-204394280D01*
X100839777Y-203638831D01*
X100838770Y-202823087D01*
X100838504Y-201956575D01*
X100839005Y-201048824D01*
X100840299Y-200109364D01*
X100842413Y-199147723D01*
X100842767Y-199015000D01*
X100862250Y-191871250D01*
X111927125Y-191855196D01*
X122992000Y-191839143D01*
X122992000Y-199290693D01*
X123182500Y-199290693D01*
X123182500Y-191649000D01*
X100640000Y-191649000D01*
X100640000Y-208349500D01*
G37*
X100640000Y-208349500D02*
X123182500Y-208349500D01*
X123182500Y-199290693D01*
X122992000Y-199290693D01*
X122991648Y-200267561D01*
X122990620Y-201218568D01*
X122988962Y-202134889D01*
X122986719Y-203007697D01*
X122983935Y-203828165D01*
X122980657Y-204587468D01*
X122976927Y-205276779D01*
X122972793Y-205887271D01*
X122968298Y-206410119D01*
X122963487Y-206836496D01*
X122958406Y-207157575D01*
X122953099Y-207364530D01*
X122950601Y-207418871D01*
X122909201Y-208095500D01*
X100907372Y-208095500D01*
X100865328Y-207127125D01*
X100859880Y-206933562D01*
X100854988Y-206622530D01*
X100850677Y-206203557D01*
X100846974Y-205686171D01*
X100843905Y-205079902D01*
X100841497Y-204394280D01*
X100839777Y-203638831D01*
X100838770Y-202823087D01*
X100838504Y-201956575D01*
X100839005Y-201048824D01*
X100840299Y-200109364D01*
X100842413Y-199147723D01*
X100842767Y-199015000D01*
X100862250Y-191871250D01*
X111927125Y-191855196D01*
X122992000Y-191839143D01*
X122992000Y-199290693D01*
X123182500Y-199290693D01*
X123182500Y-191649000D01*
X100640000Y-191649000D01*
X100640000Y-208349500D01*
D13*
X92750000Y-117250000D02*
X88750000Y-117250000D01*
X88750000Y-117250000D02*
X92750000Y-117750000D01*
X92750000Y-117750000D02*
X89000000Y-117750000D01*
X89000000Y-117750000D02*
X92500000Y-118000000D01*
X92500000Y-118000000D02*
X89250000Y-118250000D01*
X89250000Y-118250000D02*
X92250000Y-118500000D01*
X92250000Y-118500000D02*
X89500000Y-118750000D01*
X89500000Y-118750000D02*
X92000000Y-119000000D01*
X92000000Y-119000000D02*
X89750000Y-119000000D01*
X89250000Y-150000000D02*
X91500000Y-150000000D01*
X90500000Y-151000000D02*
X90500000Y-149000000D01*
X74650000Y-152750000D02*
X78650000Y-152750000D01*
X78650000Y-152750000D02*
X74650000Y-152250000D01*
X74650000Y-152250000D02*
X78400000Y-152250000D01*
X78400000Y-152250000D02*
X74900000Y-152000000D01*
X74900000Y-152000000D02*
X78150000Y-151750000D01*
X78150000Y-151750000D02*
X75150000Y-151500000D01*
X75150000Y-151500000D02*
X77900000Y-151250000D01*
X77900000Y-151250000D02*
X75400000Y-151000000D01*
X75400000Y-151000000D02*
X77650000Y-151000000D01*
X78150000Y-120000000D02*
X75900000Y-120000000D01*
X76900000Y-119000000D02*
X76900000Y-121000000D01*
X101650000Y-152830000D02*
X105650000Y-152830000D01*
X105650000Y-152830000D02*
X101650000Y-152330000D01*
X101650000Y-152330000D02*
X105400000Y-152330000D01*
X105400000Y-152330000D02*
X101900000Y-152080000D01*
X101900000Y-152080000D02*
X105150000Y-151830000D01*
X105150000Y-151830000D02*
X102150000Y-151580000D01*
X102150000Y-151580000D02*
X104900000Y-151330000D01*
X104900000Y-151330000D02*
X102400000Y-151080000D01*
X102400000Y-151080000D02*
X104650000Y-151080000D01*
X105150000Y-120080000D02*
X102900000Y-120080000D01*
X103900000Y-119080000D02*
X103900000Y-121080000D01*
D14*
X92725000Y-168385000D02*
X94400000Y-168385000D01*
X92725000Y-168125000D02*
X92725000Y-168385000D01*
X90000000Y-168125000D02*
X92725000Y-168125000D01*
X87275000Y-168125000D02*
X87275000Y-168385000D01*
X90000000Y-168125000D02*
X87275000Y-168125000D01*
X92725000Y-173575000D02*
X92725000Y-173315000D01*
X90000000Y-173575000D02*
X92725000Y-173575000D01*
X87275000Y-173575000D02*
X87275000Y-173315000D01*
X90000000Y-173575000D02*
X87275000Y-173575000D01*
D15*
X91438095Y-170102380D02*
X91438095Y-170911904D01*
X91390476Y-171007142D01*
X91342857Y-171054761D01*
X91247619Y-171102380D01*
X91057142Y-171102380D01*
X90961904Y-171054761D01*
X90914285Y-171007142D01*
X90866666Y-170911904D01*
X90866666Y-170102380D01*
X90438095Y-170197619D02*
X90390476Y-170150000D01*
X90295238Y-170102380D01*
X90057142Y-170102380D01*
X89961904Y-170150000D01*
X89914285Y-170197619D01*
X89866666Y-170292857D01*
X89866666Y-170388095D01*
X89914285Y-170530952D01*
X90485714Y-171102380D01*
X89866666Y-171102380D01*
X88914285Y-171102380D02*
X89485714Y-171102380D01*
X89200000Y-171102380D02*
X89200000Y-170102380D01*
X89295238Y-170245238D01*
X89390476Y-170340476D01*
X89485714Y-170388095D01*
M02*
